<svg width="20" height="24" viewBox="0 0 20 24" fill="none" xmlns="http://www.w3.org/2000/svg">
<g clip-path="url(#clip0_12_2706)">
<path d="M19.3497 18.4834C18.9992 19.2943 18.5844 20.0407 18.1038 20.7269C17.4487 21.6624 16.9124 22.3099 16.499 22.6695C15.8582 23.2598 15.1716 23.562 14.4364 23.5792C13.9086 23.5792 13.2721 23.4288 12.5312 23.1236C11.7879 22.8199 11.1047 22.6695 10.4801 22.6695C9.82499 22.6695 9.12241 22.8199 8.3709 23.1236C7.61825 23.4288 7.01193 23.5878 6.54835 23.6036C5.84333 23.6337 5.14061 23.3228 4.43916 22.6695C3.99146 22.2784 3.43148 21.6079 2.76065 20.6581C2.0409 19.6438 1.44916 18.4676 0.985588 17.1267C0.489115 15.6783 0.240234 14.2758 0.240234 12.918C0.240234 11.3626 0.575794 10.0211 1.24791 8.89691C1.77614 7.99394 2.47887 7.28164 3.35839 6.75873C4.23791 6.23583 5.18824 5.96936 6.21165 5.95232C6.77163 5.95232 7.50597 6.12581 8.41853 6.46677C9.32852 6.80888 9.91282 6.98237 10.169 6.98237C10.3605 6.98237 11.0096 6.77951 12.11 6.37508C13.1506 6.00002 14.0288 5.84473 14.7483 5.9059C16.6978 6.06349 18.1625 6.83323 19.1366 8.22C17.393 9.27813 16.5305 10.7602 16.5476 12.6614C16.5634 14.1423 17.0997 15.3746 18.1539 16.3531C18.6316 16.8072 19.1652 17.1582 19.7588 17.4075C19.63 17.7814 19.4941 18.1396 19.3497 18.4834ZM14.8784 0.860798C14.8784 2.02152 14.455 3.10528 13.6111 4.10839C12.5927 5.3009 11.3609 5.98999 10.0251 5.88126C10.0081 5.74201 9.99821 5.59545 9.99821 5.44144C9.99821 4.32716 10.4825 3.13465 11.3426 2.15961C11.772 1.66593 12.3181 1.25544 12.9803 0.927987C13.6412 0.605419 14.2662 0.427032 14.8541 0.396484C14.8713 0.551654 14.8784 0.706834 14.8784 0.860783V0.860798Z" fill="black"/>
</g>
<defs>
<clipPath id="clip0_12_2706">
<rect width="19.5185" height="23.2091" fill="white" transform="translate(0.240234 0.395508)"/>
</clipPath>
</defs>
</svg>
