<svg width="21" height="20" viewBox="0 0 21 20" fill="none" xmlns="http://www.w3.org/2000/svg">
<path d="M6.40148 15.8681C5.33136 15.8681 4.46553 16.7437 4.46553 17.8138C4.46553 18.8839 5.33136 19.7595 6.40148 19.7595C7.4716 19.7595 8.34716 18.8839 8.34716 17.8138C8.34716 16.7437 7.4716 15.8681 6.40148 15.8681ZM0.564453 0.302734V2.24841H2.51013L6.01234 9.63225L4.69901 12.0157C4.54336 12.2881 4.4558 12.6091 4.4558 12.9496C4.4558 14.0197 5.33136 14.8953 6.40148 14.8953H18.0755V12.9496H6.81007C6.67387 12.9496 6.56686 12.8426 6.56686 12.7064L6.59605 12.5897L7.4716 11.004H14.7192C15.4489 11.004 16.0909 10.6051 16.4217 10.0019L19.9045 3.68821C19.9823 3.55201 20.0212 3.38663 20.0212 3.22125C20.0212 2.68619 19.5834 2.24841 19.0484 2.24841H4.6601L3.74563 0.302734H0.564453ZM16.1299 15.8681C15.0597 15.8681 14.1939 16.7437 14.1939 17.8138C14.1939 18.8839 15.0597 19.7595 16.1299 19.7595C17.2 19.7595 18.0755 18.8839 18.0755 17.8138C18.0755 16.7437 17.2 15.8681 16.1299 15.8681Z" fill="#051B40"/>
</svg>
