<svg width="197" height="150" viewBox="0 0 197 150" fill="none" xmlns="http://www.w3.org/2000/svg">
<path d="M162.328 21.9338C162.328 21.9338 147.098 1.52589 121.819 0.0847223C96.5394 -1.35645 82.4396 15.8903 72.0915 28.8278C61.7434 41.7653 30.4157 34.2853 11.4442 54.1215C-7.52724 73.9577 1.67263 85.4492 10.0267 96.9455C18.3808 108.442 26.371 110.181 26.371 119.659C26.371 129.138 30.9733 141.792 49.08 144.665C67.1868 147.538 85.87 130.017 98.8028 136.632C111.735 143.247 133.438 148.417 146.735 144.665C160.031 140.913 156.001 127.13 170.36 122.532C184.72 117.935 198.527 103.561 196.514 88.0386C194.501 72.5165 183.005 69.6436 178.119 54.698C173.233 39.7523 166.353 28.2561 162.328 21.9338Z" fill="#EEEEEE"/>
<path opacity="0.7" d="M162.328 21.9338C162.328 21.9338 147.098 1.52589 121.819 0.0847223C96.5394 -1.35645 82.4396 15.8903 72.0915 28.8278C61.7434 41.7653 30.4157 34.2853 11.4442 54.1215C-7.52724 73.9577 1.67263 85.4492 10.0267 96.9455C18.3808 108.442 26.371 110.181 26.371 119.659C26.371 129.138 30.9733 141.792 49.08 144.665C67.1868 147.538 85.87 130.017 98.8028 136.632C111.735 143.247 133.438 148.417 146.735 144.665C160.031 140.913 156.001 127.13 170.36 122.532C184.72 117.935 198.527 103.561 196.514 88.0386C194.501 72.5165 183.005 69.6436 178.119 54.698C173.233 39.7523 166.353 28.2561 162.328 21.9338Z" fill="white"/>
<path d="M179.645 147.897C179.645 148.733 153.184 149.409 120.581 149.409C87.9774 149.409 61.5166 148.733 61.5166 147.897C61.5166 147.06 87.9774 146.389 120.581 146.389C153.184 146.389 179.645 147.065 179.645 147.897Z" fill="#777777"/>
<path d="M132.914 7.76306H77.4171C75.6895 7.76306 74.2891 9.16354 74.2891 10.8911V32.5843C74.2891 34.3118 75.6895 35.7123 77.4171 35.7123H132.914C134.642 35.7123 136.042 34.3118 136.042 32.5843V10.8911C136.042 9.16354 134.642 7.76306 132.914 7.76306Z" fill="#EEEEEE"/>
<path d="M74.2891 30.7981V40.8863L79.9167 34.4081" fill="#EEEEEE"/>
<path d="M132.918 7.76312H77.4026C76.9921 7.76312 76.5855 7.84407 76.2063 8.00132C75.827 8.15858 75.4825 8.38907 75.1924 8.67959C74.9023 8.97012 74.6724 9.31499 74.5157 9.69448C74.359 10.074 74.2787 10.4806 74.2793 10.8912V40.8864L78.7776 35.7124H132.918C133.329 35.7124 133.735 35.6314 134.115 35.4742C134.494 35.3169 134.838 35.0864 135.129 34.7959C135.419 34.5054 135.649 34.1605 135.805 33.781C135.962 33.4015 136.042 32.9949 136.042 32.5843V10.8912C136.042 10.4806 135.962 10.074 135.805 9.69448C135.649 9.31499 135.419 8.97012 135.129 8.67959C134.838 8.38907 134.494 8.15858 134.115 8.00132C133.735 7.84407 133.329 7.76312 132.918 7.76312Z" fill="#EEEEEE"/>
<path opacity="0.1" d="M132.918 7.76312H77.4026C76.9921 7.76312 76.5855 7.84407 76.2063 8.00132C75.827 8.15858 75.4825 8.38907 75.1924 8.67959C74.9023 8.97012 74.6724 9.31499 74.5157 9.69448C74.359 10.074 74.2787 10.4806 74.2793 10.8912V40.8864L78.7776 35.7124H132.918C133.329 35.7124 133.735 35.6314 134.115 35.4742C134.494 35.3169 134.838 35.0864 135.129 34.7959C135.419 34.5054 135.649 34.1605 135.805 33.781C135.962 33.4015 136.042 32.9949 136.042 32.5843V10.8912C136.042 10.4806 135.962 10.074 135.805 9.69448C135.649 9.31499 135.419 8.97012 135.129 8.67959C134.838 8.38907 134.494 8.15858 134.115 8.00132C133.735 7.84407 133.329 7.76312 132.918 7.76312Z" fill="#EEEEEE"/>
<path d="M121.819 23.0961H81.9437C81.648 23.0961 81.3644 22.9786 81.1552 22.7695C80.9461 22.5604 80.8286 22.2767 80.8286 21.981C80.8299 21.686 80.9479 21.4036 81.1569 21.1955C81.3659 20.9874 81.6488 20.8706 81.9437 20.8706H121.819C122.114 20.8706 122.397 20.9874 122.606 21.1955C122.815 21.4036 122.933 21.686 122.934 21.981C122.934 22.1274 122.906 22.2724 122.85 22.4077C122.793 22.543 122.711 22.666 122.608 22.7695C122.504 22.8731 122.381 22.9552 122.246 23.0112C122.111 23.0673 121.966 23.0961 121.819 23.0961Z" fill="white"/>
<path d="M121.819 28.2182H81.9437C81.7973 28.2182 81.6523 28.1894 81.517 28.1333C81.3817 28.0773 81.2588 27.9952 81.1552 27.8916C81.0517 27.7881 80.9695 27.6651 80.9135 27.5298C80.8575 27.3945 80.8286 27.2495 80.8286 27.1031C80.8299 26.8081 80.9479 26.5257 81.1569 26.3176C81.3659 26.1095 81.6488 25.9927 81.9437 25.9927H121.819C122.114 25.9927 122.397 26.1095 122.606 26.3176C122.815 26.5257 122.933 26.8081 122.934 27.1031C122.934 27.2495 122.906 27.3945 122.85 27.5298C122.793 27.6651 122.711 27.7881 122.608 27.8916C122.504 27.9952 122.381 28.0773 122.246 28.1333C122.111 28.1894 121.966 28.2182 121.819 28.2182Z" fill="white"/>
<path d="M84.169 17.9741C86.382 17.9741 88.176 16.1801 88.176 13.9672C88.176 11.7542 86.382 9.96024 84.169 9.96024C81.9561 9.96024 80.1621 11.7542 80.1621 13.9672C80.1621 16.1801 81.9561 17.9741 84.169 17.9741Z" fill="white"/>
<path d="M132.914 45.5879H77.4171C75.6895 45.5879 74.2891 46.9884 74.2891 48.7159V70.4091C74.2891 72.1367 75.6895 73.5371 77.4171 73.5371H132.914C134.642 73.5371 136.042 72.1367 136.042 70.4091V48.7159C136.042 46.9884 134.642 45.5879 132.914 45.5879Z" fill="#EEEEEE"/>
<path d="M74.2891 68.6183V78.7112L79.9167 72.2283" fill="#EEEEEE"/>
<path d="M132.918 45.5879H77.4026C76.5743 45.5879 75.7798 45.917 75.1941 46.5027C74.6084 47.0884 74.2793 47.8829 74.2793 48.7112V78.7112L78.7776 73.5135H132.918C133.747 73.5135 134.541 73.1844 135.127 72.5987C135.713 72.013 136.042 71.2185 136.042 70.3902V48.7112C136.042 47.8829 135.713 47.0884 135.127 46.5027C134.541 45.917 133.747 45.5879 132.918 45.5879Z" fill="#EEEEEE"/>
<path opacity="0.1" d="M132.918 45.5879H77.4026C76.5743 45.5879 75.7798 45.917 75.1941 46.5027C74.6084 47.0884 74.2793 47.8829 74.2793 48.7112V78.7112L78.7776 73.5135H132.918C133.747 73.5135 134.541 73.1844 135.127 72.5987C135.713 72.013 136.042 71.2185 136.042 70.3902V48.7112C136.042 47.8829 135.713 47.0884 135.127 46.5027C134.541 45.917 133.747 45.5879 132.918 45.5879Z" fill="#EEEEEE"/>
<path d="M121.819 60.9163H81.9437C81.6488 60.9163 81.3659 60.7994 81.1569 60.5913C80.9479 60.3832 80.8299 60.1008 80.8286 59.8059C80.8286 59.5101 80.9461 59.2265 81.1552 59.0173C81.3644 58.8082 81.648 58.6907 81.9437 58.6907H121.819C121.966 58.6907 122.111 58.7196 122.246 58.7756C122.381 58.8317 122.504 58.9138 122.608 59.0173C122.711 59.1209 122.793 59.2438 122.85 59.3791C122.906 59.5144 122.934 59.6594 122.934 59.8059C122.933 60.1008 122.815 60.3832 122.606 60.5913C122.397 60.7994 122.114 60.9163 121.819 60.9163Z" fill="white"/>
<path d="M121.819 66.0383H81.9437C81.6488 66.0383 81.3659 65.9215 81.1569 65.7134C80.9479 65.5052 80.8299 65.2228 80.8286 64.9279C80.8286 64.6321 80.9461 64.3485 81.1552 64.1394C81.3644 63.9302 81.648 63.8127 81.9437 63.8127H121.819C121.966 63.8127 122.111 63.8416 122.246 63.8976C122.381 63.9537 122.504 64.0358 122.608 64.1394C122.711 64.2429 122.793 64.3658 122.85 64.5011C122.906 64.6364 122.934 64.7814 122.934 64.9279C122.933 65.2228 122.815 65.5052 122.606 65.7134C122.397 65.9215 122.114 66.0383 121.819 66.0383Z" fill="white"/>
<path d="M84.169 55.7942C86.382 55.7942 88.176 54.0002 88.176 51.7872C88.176 49.5743 86.382 47.7803 84.169 47.7803C81.9561 47.7803 80.1621 49.5743 80.1621 51.7872C80.1621 54.0002 81.9561 55.7942 84.169 55.7942Z" fill="white"/>
<path d="M31.4036 100.967C31.3611 100.967 31.172 98.004 31.1815 97.815C31.2902 95.6273 32.7928 91.4597 35.1695 90.8265C35.5663 90.7317 35.9786 90.7216 36.3795 90.7969C36.7804 90.8722 37.1609 91.0312 37.4962 91.2635C37.8316 91.4958 38.1141 91.7962 38.3255 92.1451C38.5368 92.494 38.6722 92.8836 38.7228 93.2883C38.9969 94.9988 37.8818 96.8227 36.7524 98.0135C35.42 99.3932 31.4036 100.967 31.4036 100.967Z" fill="#777777"/>
<path d="M28.304 89.5508C28.2615 89.5508 28.5214 86.5928 28.5592 86.4038C29.0033 84.2586 31.1202 80.3651 33.5584 80.1005C33.965 80.0671 34.3741 80.1198 34.759 80.2551C35.144 80.3904 35.4961 80.6052 35.7925 80.8855C36.0889 81.1659 36.323 81.5056 36.4794 81.8824C36.6359 82.2592 36.7112 82.6647 36.7006 83.0726C36.7006 84.8067 35.335 86.4416 34.0403 87.4386C32.5141 88.6104 28.304 89.5508 28.304 89.5508Z" fill="#777777"/>
<path d="M27.5193 76.0793C27.4767 76.0793 27.7413 73.1214 27.7791 72.9324C28.2186 70.7872 30.3354 66.8937 32.7783 66.6291C33.1848 66.5957 33.5937 66.6484 33.9784 66.7837C34.3631 66.919 34.7149 67.1339 35.011 67.4143C35.307 67.6948 35.5406 68.0345 35.6965 68.4113C35.8524 68.7881 35.9272 69.1935 35.9158 69.6012C35.9158 71.3353 34.555 72.9655 33.2556 73.9672C31.7294 75.139 27.524 76.0793 27.5193 76.0793Z" fill="#777777"/>
<path d="M26.1633 63.4018C26.1208 63.4018 26.3854 60.4391 26.4232 60.2548C26.8626 58.1049 28.9795 54.2161 31.4224 53.9468C31.8291 53.9141 32.2381 53.9674 32.6227 54.1033C33.0074 54.2392 33.3592 54.4545 33.6552 54.7353C33.9511 55.0161 34.1847 55.3561 34.3405 55.7331C34.4964 56.1102 34.5712 56.5158 34.5599 56.9236C34.5599 58.653 33.199 60.2879 31.8996 61.2849C30.3734 62.4568 26.168 63.4018 26.1633 63.4018Z" fill="#777777"/>
<path d="M22.1186 53.2285C22.0808 53.2285 21.5516 50.3131 21.5374 50.1241C21.3957 47.9363 22.4116 43.6223 24.6938 42.7245C25.077 42.5846 25.4854 42.5271 25.8924 42.5557C26.2993 42.5843 26.6956 42.6985 27.0555 42.8907C27.4153 43.0828 27.7306 43.3488 27.9807 43.671C28.2308 43.9933 28.4101 44.3647 28.507 44.761C28.9795 46.429 28.0817 48.3663 27.0895 49.6704C25.9365 51.2061 22.1186 53.2285 22.1186 53.2285Z" fill="#777777"/>
<path d="M30.1517 101C30.1989 101 28.909 98.3017 28.805 98.1411C27.6379 96.2888 24.2878 93.3876 21.911 93.9971C21.5192 94.1091 21.1553 94.3023 20.8431 94.5642C20.5309 94.8261 20.2774 95.1509 20.0991 95.5173C19.9208 95.8838 19.8217 96.2836 19.8082 96.6909C19.7948 97.0982 19.8673 97.5038 20.021 97.8812C20.6163 99.5114 22.4781 100.556 24.0468 101.033C25.8991 101.595 30.1517 101 30.1517 101Z" fill="#777777"/>
<path d="M27.6708 88.0245C27.7181 88.0245 26.0312 85.5485 25.9083 85.4067C24.4908 83.7482 20.7107 81.3904 18.4662 82.3496C18.0948 82.519 17.7634 82.7649 17.4935 83.0712C17.2236 83.3775 17.0214 83.7372 16.9001 84.127C16.7788 84.5168 16.7411 84.9278 16.7895 85.3332C16.8379 85.7385 16.9713 86.1291 17.181 86.4793C18.0126 87.9961 20.0161 88.7474 21.6368 88.9837C23.5363 89.2577 27.6708 88.0245 27.6708 88.0245Z" fill="#777777"/>
<path d="M26.957 75.3139C26.9996 75.3139 25.3174 72.8379 25.1946 72.6961C23.777 71.0376 19.9969 68.6798 17.7477 69.6437C17.3723 69.812 17.0369 70.058 16.7637 70.3656C16.4905 70.6731 16.2857 71.0352 16.1628 71.4278C16.04 71.8204 16.0019 72.2347 16.0511 72.6431C16.1004 73.0516 16.2357 73.4449 16.4483 73.7971C17.2847 75.3139 19.2834 76.0652 20.9088 76.2967C22.8225 76.5519 26.957 75.3186 26.957 75.3139Z" fill="#777777"/>
<path d="M25.7333 63.6522C25.7806 63.6522 24.0937 61.1762 23.9708 61.0345C22.5533 59.376 18.7732 57.0181 16.5287 57.9773C16.1573 58.1467 15.8259 58.3926 15.556 58.6989C15.2861 59.0052 15.0839 59.365 14.9626 59.7548C14.8413 60.1446 14.8036 60.5556 14.852 60.9609C14.9004 61.3663 15.0338 61.7568 15.2435 62.1071C16.0751 63.6286 18.0786 64.3752 19.6993 64.6114C21.5988 64.8855 25.7333 63.6522 25.7333 63.6522Z" fill="#777777"/>
<path d="M22.1468 53.6112C22.1894 53.6112 20.2568 51.3337 20.1056 51.2014C18.499 49.713 14.511 47.7804 12.3705 48.9853C12.0191 49.1946 11.7159 49.4758 11.4808 49.8105C11.2457 50.1452 11.084 50.5258 11.0064 50.9274C10.9287 51.329 10.9369 51.7424 11.0303 52.1406C11.1237 52.5388 11.3002 52.9128 11.5483 53.238C12.5453 54.6555 14.6149 55.1847 16.2735 55.2367C18.173 55.2934 22.1468 53.616 22.1468 53.6112Z" fill="#777777"/>
<path d="M16.9919 45.3139C17.0344 45.3139 16.354 42.4126 16.2925 42.2331C15.5507 40.1682 12.9046 36.6196 10.4475 36.6999C10.0403 36.7247 9.64281 36.8349 9.28098 37.0234C8.91915 37.2119 8.60108 37.4745 8.34746 37.7941C8.09383 38.1137 7.91035 38.4831 7.80895 38.8783C7.70755 39.2735 7.69051 39.6857 7.75892 40.0879C7.99518 41.8078 9.58756 43.2254 11.0146 44.0287C12.692 44.9737 16.9871 45.3139 16.9919 45.3139Z" fill="#777777"/>
<path d="M35.5332 116.276C35.5332 116.276 35.0277 115.118 34.2338 113.091C33.44 111.064 32.3438 108.139 31.1814 104.586C30.6002 102.809 30.0096 100.872 29.4331 98.8072C29.1401 97.7677 28.8755 96.7234 28.5873 95.6036C28.4644 95.0555 28.3463 94.5026 28.2234 93.9451C28.1006 93.3875 28.0155 92.7969 27.9116 92.2157C27.5386 89.832 27.2973 87.4295 27.1886 85.0193C27.0705 82.5669 27.0233 80.0862 26.9618 77.6055C26.9004 75.1248 26.839 72.6535 26.6405 70.2343C26.4674 67.865 26.128 65.5108 25.6246 63.1891C25.1176 61.0269 24.4187 58.9142 23.5361 56.8763C22.7479 55.0427 21.8533 53.2567 20.8569 51.5274C19.945 49.9067 19.0094 48.4844 18.1731 47.2275C17.3367 45.9706 16.5523 44.9122 15.8955 44.0475C14.5819 42.3181 13.7598 41.392 13.7598 41.392C13.7598 41.392 14.6008 42.3039 15.957 44.0003C16.6279 44.8555 17.4312 45.8903 18.3195 47.1377C19.2079 48.3852 20.1529 49.7838 21.1026 51.3904C22.1499 53.1091 23.0965 54.8872 23.9377 56.7156C24.8802 58.7584 25.6408 60.8804 26.2105 63.0568C26.7714 65.3887 27.1677 67.7571 27.3965 70.1445C27.647 72.5874 27.7746 75.0728 27.8691 77.5535C27.9636 80.0342 28.0817 82.5055 28.2518 84.9295C28.411 87.2932 28.6981 89.6467 29.1118 91.9794C29.2299 92.5417 29.3008 93.0898 29.4473 93.6474C29.5937 94.2049 29.7166 94.7531 29.8489 95.2965C30.1419 96.3313 30.4395 97.4086 30.7514 98.4151C31.3609 100.442 31.9894 102.346 32.6037 104.085C33.8227 107.582 34.9662 110.445 35.8026 112.439C36.6389 114.433 37.154 115.539 37.154 115.539C37.2319 115.743 37.2295 115.97 37.1472 116.172C37.065 116.375 36.909 116.539 36.7108 116.631C36.5125 116.723 36.2866 116.737 36.0787 116.669C35.8707 116.602 35.6961 116.458 35.5899 116.267L35.5332 116.276Z" fill="#777777"/>
<path d="M46.6611 97.9615C46.6186 97.9615 47.2848 95.0555 47.3463 94.876C48.0739 92.8111 50.7011 89.2436 53.1535 89.3097C53.5607 89.3315 53.9588 89.439 54.3218 89.625C54.6847 89.811 55.0044 90.0715 55.2599 90.3894C55.5153 90.7073 55.7009 91.0755 55.8045 91.47C55.9081 91.8645 55.9273 92.2764 55.861 92.6788C55.6389 94.3987 54.056 95.8305 52.6337 96.6432C50.9421 97.5977 46.6895 97.9615 46.6611 97.9615Z" fill="#777777"/>
<path d="M46.9348 86.1391C46.8923 86.1391 47.9885 83.3608 48.0783 83.1954C49.1131 81.2581 52.2459 78.13 54.6604 78.5695C55.0598 78.653 55.4371 78.8197 55.7678 79.0587C56.0985 79.2977 56.3751 79.6037 56.5797 79.9568C56.7843 80.3098 56.9123 80.7019 56.9553 81.1077C56.9983 81.5135 56.9553 81.9237 56.8293 82.3118C56.3567 83.9797 54.5659 85.1469 53.0491 85.7375C51.2394 86.4274 46.9395 86.1391 46.9348 86.1391Z" fill="#777777"/>
<path d="M49.9971 72.9986C49.9498 72.9986 51.0461 70.2202 51.1359 70.0548C52.1707 68.1222 55.3082 64.9942 57.7227 65.4289C58.1222 65.5129 58.4995 65.6801 58.8301 65.9197C59.1607 66.1593 59.437 66.4658 59.6412 66.8193C59.8454 67.1728 59.9728 67.5654 60.0151 67.9714C60.0574 68.3775 60.0137 68.7879 59.8868 69.1759C59.4143 70.8392 57.6235 72.011 56.1067 72.6017C54.3206 73.2915 49.9971 72.9986 49.9971 72.9986Z" fill="#777777"/>
<path d="M52.3169 60.4627C52.2697 60.4627 53.3659 57.689 53.4557 57.5189C54.4905 55.5863 57.628 52.4583 60.0425 52.8977C60.4419 52.9811 60.8191 53.1478 61.1497 53.3869C61.4802 53.626 61.7566 53.9321 61.9608 54.2853C62.1651 54.6384 62.2925 55.0307 62.3349 55.4364C62.3772 55.8422 62.3335 56.2523 62.2066 56.64C61.7341 58.308 59.9433 59.4751 58.4265 60.0658C56.6121 60.7556 52.3169 60.4627 52.3169 60.4627Z" fill="#777777"/>
<path d="M51.3387 49.5524C51.2914 49.5524 51.6174 46.5992 51.66 46.4149C52.1325 44.2744 54.3439 40.4281 56.7915 40.2155C57.1986 40.1911 57.6062 40.2528 57.9879 40.3963C58.3696 40.5399 58.7168 40.7622 59.0069 41.0488C59.2971 41.3353 59.5236 41.6798 59.6719 42.0597C59.8202 42.4396 59.8868 42.8464 59.8675 43.2537C59.8675 44.9879 58.45 46.5897 57.1175 47.5584C55.5677 48.6971 51.3387 49.5524 51.3387 49.5524Z" fill="#777777"/>
<path d="M45.4703 97.6402C45.5129 97.6402 45.0404 94.7011 44.9978 94.5216C44.4072 92.4095 42.021 88.6766 39.5686 88.5821C39.1604 88.5775 38.7557 88.659 38.381 88.8212C38.0063 88.9835 37.6701 89.2229 37.3941 89.5238C37.1181 89.8247 36.9087 90.1804 36.7794 90.5677C36.6501 90.955 36.6039 91.3652 36.6438 91.7716C36.7524 93.501 38.2409 95.0319 39.6064 95.9344C41.2035 96.9976 45.4656 97.6402 45.4703 97.6402Z" fill="#777777"/>
<path d="M46.765 84.4949C46.8122 84.4949 45.8955 81.6598 45.8199 81.4802C44.9127 79.4815 41.9878 76.155 39.5497 76.4338C39.1456 76.4914 38.7583 76.6335 38.4128 76.8508C38.0674 77.0681 37.7716 77.3558 37.5447 77.695C37.3178 78.0342 37.1649 78.4174 37.096 78.8197C37.027 79.2219 37.0436 79.6342 37.1446 80.0296C37.5131 81.7212 39.2189 83.0112 40.7026 83.6963C42.4367 84.5043 46.7602 84.4949 46.765 84.4949Z" fill="#777777"/>
<path d="M49.6944 72.1054C49.7369 72.1054 48.825 69.2703 48.7493 69.0908C47.8468 67.0968 44.922 63.7703 42.4838 64.0491C42.0783 64.1059 41.6895 64.2478 41.3427 64.4655C40.9959 64.6831 40.699 64.9716 40.4715 65.312C40.2439 65.6524 40.0909 66.037 40.0224 66.4407C39.9539 66.8444 39.9715 67.2579 40.074 67.6543C40.4473 69.3507 42.1483 70.6359 43.6367 71.3211C45.3803 72.1149 49.6897 72.1054 49.6944 72.1054Z" fill="#777777"/>
<path d="M51.8353 60.5667C51.8825 60.5667 50.9658 57.7316 50.8902 57.552C49.983 55.558 47.0629 52.2268 44.62 52.5103C44.2161 52.5673 43.8289 52.7089 43.4834 52.9257C43.138 53.1425 42.8421 53.4297 42.6152 53.7686C42.3882 54.1074 42.2353 54.4903 42.1663 54.8923C42.0973 55.2943 42.1139 55.7062 42.2149 56.1014C42.5834 57.7977 44.2892 59.083 45.7776 59.7681C47.5212 60.5667 51.8353 60.5667 51.8353 60.5667Z" fill="#777777"/>
<path d="M51.2492 49.9304C51.2964 49.9304 50.0774 47.204 49.9781 47.0386C48.8583 45.1485 45.5885 42.167 43.1928 42.7151C42.7975 42.8163 42.428 42.9998 42.1084 43.2536C41.7888 43.5073 41.5263 43.8256 41.3381 44.1878C41.1499 44.5499 41.0403 44.9476 41.0163 45.355C40.9922 45.7623 41.0545 46.1702 41.1988 46.5519C41.7516 48.1915 43.585 49.283 45.1396 49.8028C46.9635 50.4123 51.2492 49.9304 51.2492 49.9304Z" fill="#777777"/>
<path d="M48.6693 40.5084C48.7071 40.5084 48.8819 37.5457 48.8677 37.3567C48.7449 35.1643 47.2186 31.0061 44.8419 30.3871C44.4444 30.2954 44.0321 30.2883 43.6317 30.3664C43.2313 30.4445 42.8518 30.606 42.518 30.8405C42.1841 31.0749 41.9034 31.377 41.694 31.7271C41.4846 32.0773 41.3513 32.4675 41.3028 32.8726C41.0381 34.5878 42.1627 36.4022 43.3015 37.5977C44.6387 38.9586 48.6645 40.5037 48.6693 40.5084Z" fill="#777777"/>
<path d="M46.2736 113.814C46.2736 113.814 46.1129 112.562 45.9287 110.389C45.7444 108.215 45.5223 105.106 45.4231 101.368C45.3711 99.4782 45.3522 97.4748 45.39 95.3295C45.39 94.2522 45.4467 93.1749 45.4892 92.0219C45.527 91.4644 45.5696 90.8974 45.6074 90.3303C45.6452 89.7633 45.7397 89.168 45.8011 88.582C46.125 86.1967 46.5777 83.8307 47.1572 81.4943C47.7384 79.1081 48.3999 76.7125 49.0473 74.3215C49.6946 71.9306 50.3325 69.5397 50.8334 67.1582C51.3406 64.8385 51.6832 62.4858 51.8587 60.1177C51.9803 57.8993 51.9044 55.6744 51.6319 53.4695C51.3985 51.4864 51.0482 49.5189 50.5829 47.5772C50.1671 45.7627 49.6804 44.1326 49.2363 42.6914C48.7921 41.2502 48.3338 40.0075 47.9557 38.9963C47.1856 36.9645 46.6611 35.8399 46.6611 35.8399C46.6611 35.8399 47.2092 36.9551 48.0219 38.968C48.4283 39.9744 48.8961 41.2077 49.3875 42.6394C49.8789 44.0711 50.3892 45.7013 50.8428 47.511C51.353 49.455 51.749 51.4272 52.0288 53.4175C52.354 55.6447 52.4805 57.8965 52.4068 60.1461C52.2806 62.5485 51.9853 64.939 51.5232 67.3C51.0507 69.7098 50.4837 72.1291 49.8836 74.5389C49.2835 76.9487 48.6787 79.3491 48.1542 81.7211C47.6333 84.0321 47.239 86.3698 46.9729 88.7238C46.9257 89.2955 46.8406 89.8389 46.8217 90.4154C46.8028 90.9919 46.765 91.5542 46.7367 92.1117C46.7367 93.1891 46.7036 94.3042 46.7367 95.3579C46.7367 97.4795 46.8075 99.4829 46.902 101.33C47.0769 105.03 47.3746 108.106 47.5966 110.247C47.8187 112.387 48.0077 113.606 48.0077 113.606C48.0242 113.718 48.0184 113.833 47.9907 113.942C47.9631 114.052 47.914 114.155 47.8465 114.246C47.7789 114.337 47.6941 114.414 47.5969 114.472C47.4997 114.53 47.3921 114.568 47.2801 114.585C47.1681 114.601 47.0539 114.595 46.9441 114.568C46.8344 114.54 46.7311 114.491 46.6403 114.423C46.5495 114.356 46.4728 114.271 46.4148 114.174C46.3567 114.077 46.3184 113.969 46.3019 113.857V113.833L46.2736 113.814Z" fill="#777777"/>
<path d="M51.7545 145.057H31.7483L26.1206 112.293H57.3822L51.7545 145.057Z" fill="#777777"/>
<path d="M86.9947 148.157C111.022 148.157 130.499 128.679 130.499 104.652C130.499 80.6254 111.022 61.1478 86.9947 61.1478C62.9678 61.1478 43.4902 80.6254 43.4902 104.652C43.4902 128.679 62.9678 148.157 86.9947 148.157Z" fill="#EEEEEE"/>
<path d="M86.9948 148.374C78.3474 148.374 69.8942 145.81 62.7042 141.006C55.5142 136.201 49.9103 129.373 46.6011 121.384C43.2919 113.395 42.4261 104.604 44.1131 96.1226C45.8001 87.6414 49.9642 79.8509 56.0788 73.7363C62.1934 67.6217 69.9839 63.4576 78.4651 61.7706C86.9463 60.0836 95.7372 60.9494 103.726 64.2586C111.715 67.5678 118.544 73.1718 123.348 80.3618C128.152 87.5518 130.717 96.0049 130.717 104.652C130.703 116.244 126.092 127.357 117.896 135.553C109.699 143.75 98.5863 148.36 86.9948 148.374ZM86.9948 61.3605C78.4324 61.3605 70.0624 63.8995 62.9431 68.6565C55.8238 73.4134 50.275 80.1747 46.9983 88.0852C43.7217 95.9958 42.8644 104.7 44.5348 113.098C46.2052 121.496 50.3284 129.21 56.3828 135.264C62.4373 141.319 70.1512 145.442 78.5489 147.112C86.9467 148.783 95.6513 147.925 103.562 144.649C111.472 141.372 118.234 135.823 122.991 128.704C127.748 121.585 130.287 113.215 130.287 104.652C130.275 93.174 125.711 82.1691 117.594 74.0528C109.478 65.9365 98.473 61.3717 86.9948 61.3605Z" fill="#777777"/>
<path d="M75.4704 133.263C71.7901 131.905 68.417 129.828 65.5476 127.153C62.6529 124.371 60.4099 120.982 58.9796 117.231C57.3576 113.024 56.5541 108.546 56.6123 104.038C56.5813 100.189 57.2605 96.3668 58.6158 92.7639C59.8411 89.4589 61.6763 86.4135 64.0261 83.7861C68.6695 78.6946 74.6741 75.0397 81.3296 73.2537C84.5951 72.3778 87.9612 71.933 91.3422 71.9307C94.1475 71.9204 96.9435 72.2537 99.6679 72.923C102.3 73.5745 104.82 74.6178 107.143 76.0179C109.439 77.3997 111.495 79.1438 113.234 81.1825C115.053 83.373 116.44 85.8888 117.321 88.5963C118.341 91.6786 118.844 94.9086 118.809 98.1552C118.774 104.401 116.537 110.435 112.492 115.194C110.743 117.191 108.666 118.874 106.349 120.17C104.356 121.326 102.1 121.954 99.7954 121.994C98.2138 122.013 96.6692 121.515 95.3963 120.576C94.7537 120.104 94.2305 119.488 93.8687 118.777C93.5068 118.067 93.3164 117.281 93.3125 116.484C90.6161 120.283 86.9682 122.183 82.3691 122.183C78.6236 122.183 75.631 120.902 73.3913 118.341C71.1516 115.78 70.0365 112.63 70.0459 108.891C70.0561 106.046 70.5514 103.224 71.5107 100.546C72.4493 97.8386 73.794 95.2894 75.4987 92.9859C77.1907 90.7145 79.3518 88.8338 81.8352 87.4717C84.3117 86.0728 87.1087 85.3401 89.953 85.3454C91.9291 85.3253 93.8786 85.8013 95.6231 86.7298C97.323 87.6315 98.7014 89.038 99.5686 90.7557L99.9372 89.5555C100.106 89.0513 100.391 88.5941 100.77 88.2211C101.148 87.8481 101.61 87.5699 102.117 87.4092C102.623 87.2484 103.161 87.2097 103.685 87.2961C104.21 87.3825 104.707 87.5916 105.135 87.9064C105.408 88.1295 105.625 88.4139 105.768 88.7366C105.911 89.0592 105.976 89.411 105.957 89.7634C105.957 90.101 105.902 90.4364 105.792 90.7557L99.9277 110.247C99.2662 112.477 98.9355 114.007 98.9355 114.835C98.9355 116.24 99.6521 116.941 101.085 116.938C102.957 116.938 104.795 116.078 106.6 114.358C108.544 112.417 110.045 110.078 110.999 107.502C112.121 104.683 112.696 101.676 112.69 98.6419C112.718 95.9689 112.327 93.308 111.533 90.7557C110.874 88.5548 109.822 86.4913 108.428 84.665C107.105 83.001 105.507 81.5755 103.703 80.4501C101.902 79.316 99.937 78.4666 97.877 77.9316C95.7665 77.3814 93.5941 77.1036 91.413 77.1047C88.6398 77.1082 85.8806 77.4978 83.2149 78.2624C80.4781 79.0456 77.8694 80.2218 75.4704 81.7543C73.051 83.282 70.8604 85.1449 68.9639 87.2874C67.0078 89.5434 65.483 92.1397 64.4655 94.9469C63.334 98.0074 62.7673 101.248 62.7928 104.511C62.7314 108.376 63.4331 112.215 64.8577 115.808C66.0736 118.925 68.0045 121.712 70.4948 123.945C72.8956 126.034 75.6689 127.652 78.6693 128.713C81.8322 129.832 85.1661 130.392 88.5212 130.367C92.1078 130.373 95.6742 129.83 99.0961 128.755C99.4414 128.639 99.8043 128.583 100.169 128.59C100.515 128.576 100.861 128.637 101.181 128.769C101.502 128.901 101.79 129.101 102.026 129.355C102.479 129.826 102.731 130.455 102.73 131.108C102.775 131.634 102.627 132.158 102.316 132.584C102.004 133.01 101.548 133.308 101.033 133.424C96.7629 134.73 92.3256 135.412 87.8597 135.446C83.6316 135.478 79.4331 134.738 75.4704 133.263ZM90.4019 114.514C92.1835 113.228 93.5079 111.407 94.182 109.316L97.9621 96.0195L97.7117 95.4808C97.4713 95.0425 97.1811 94.6335 96.847 94.2617C96.3951 93.7426 95.9038 93.2592 95.3774 92.8158C94.7012 92.2713 93.9331 91.8521 93.1094 91.5778C90.9701 90.8206 88.6234 90.9017 86.5414 91.8046C85.4095 92.2925 84.3692 92.97 83.4653 93.8081C82.522 94.6868 81.6833 95.6714 80.9657 96.7424C80.2166 97.8512 79.5833 99.034 79.0757 100.272C78.5671 101.506 78.1733 102.784 77.8991 104.09C77.6285 105.332 77.4891 106.599 77.4833 107.87C77.4783 108.685 77.5272 109.5 77.6298 110.308C77.7176 111.025 77.8759 111.731 78.1023 112.416C78.3023 113.036 78.5869 113.626 78.9481 114.169C79.2815 114.671 79.7005 115.111 80.1861 115.468C80.7028 115.846 81.2841 116.126 81.9013 116.295C82.6272 116.497 83.3782 116.594 84.1316 116.583C86.3933 116.608 88.599 115.88 90.4019 114.514Z" fill="#777777"/>
<path d="M146.159 68.0655C146.159 68.0655 144.741 70.7021 144.533 71.0707C144.325 71.4392 143.564 73.4332 143.791 73.9057C144.018 74.3783 144.235 74.6476 144.684 74.7232C145.133 74.7988 145.502 75.6163 146.244 75.7627C146.711 75.8553 147.185 75.9059 147.661 75.9139C147.778 75.9997 147.913 76.0575 148.055 76.0829C148.198 76.1083 148.344 76.1006 148.483 76.0604C148.928 75.9139 149.301 75.6918 149.599 74.4255C149.78 73.7984 149.83 73.1403 149.745 72.4929L149.613 69.9366L146.159 68.0655Z" fill="white"/>
<path d="M148.219 76.3344C147.994 76.3314 147.775 76.266 147.586 76.1454C147.119 76.1328 146.654 76.0806 146.196 75.9895C145.772 75.8738 145.392 75.6335 145.105 75.2996C144.977 75.1472 144.815 75.0274 144.632 74.95C144.389 74.8958 144.164 74.7805 143.978 74.6152C143.792 74.4498 143.651 74.2398 143.569 74.005C143.262 73.3954 144.155 71.2266 144.32 70.9525C144.538 70.5887 145.927 67.9804 145.941 67.952C145.972 67.8975 146.023 67.857 146.083 67.8386C146.141 67.8155 146.205 67.8155 146.262 67.8386L149.712 69.7051C149.747 69.7254 149.777 69.7541 149.798 69.7888C149.82 69.8234 149.832 69.8629 149.835 69.9035L149.967 72.4551C150.053 73.125 150 73.8055 149.811 74.4539C149.518 75.7155 149.135 76.0651 148.54 76.2636C148.437 76.304 148.329 76.3279 148.219 76.3344ZM146.258 68.3868C145.918 69.0199 144.925 70.8769 144.736 71.1935C144.476 71.6235 143.853 73.4994 143.999 73.7923C144.235 74.2648 144.415 74.4349 144.722 74.4869C145.002 74.5696 145.25 74.7342 145.436 74.9594C145.659 75.2284 145.956 75.4257 146.291 75.5265C146.741 75.6136 147.198 75.6626 147.656 75.6729C147.711 75.6729 147.764 75.6912 147.808 75.7249C147.892 75.7865 147.99 75.8282 148.093 75.847C148.196 75.8658 148.302 75.8612 148.403 75.8336C148.729 75.7249 149.069 75.6115 149.348 74.3688C149.52 73.7737 149.569 73.1502 149.494 72.5354L149.367 70.0784L146.258 68.3868Z" fill="#777777"/>
<path d="M154.352 139.061C154.352 139.061 152.334 142.345 152.334 143.139C152.334 143.932 155.113 145.392 156.304 145.922C157.494 146.451 159.611 146.867 161.331 147.112C163.051 147.358 166.623 148.057 165.584 146.716C164.544 145.374 158.156 141.839 157.891 141.419C157.564 141.026 157.196 140.668 156.795 140.351L154.352 139.061Z" fill="white"/>
<path d="M164.723 147.746C163.715 147.705 162.711 147.593 161.718 147.41L161.293 147.344C158.892 146.975 157.182 146.569 156.209 146.134C156.038 146.059 152.098 144.296 152.098 143.139C152.098 142.302 153.94 139.278 154.148 138.933C154.181 138.883 154.23 138.846 154.288 138.831C154.346 138.815 154.407 138.821 154.46 138.848L156.903 140.143C157.342 140.478 157.74 140.864 158.089 141.291C158.203 141.423 159.242 142.075 160.249 142.709C162.394 144.046 165.059 145.714 165.749 146.574C165.999 146.886 166.06 147.155 165.928 147.377C165.796 147.599 165.38 147.746 164.723 147.746ZM154.422 139.373C153.657 140.639 152.556 142.638 152.556 143.153C152.556 143.668 154.578 144.915 156.383 145.719C157.328 146.134 158.992 146.527 161.354 146.89L161.775 146.957C162.644 147.094 165.29 147.514 165.508 147.146C165.508 147.146 165.508 147.051 165.366 146.876C164.728 146.078 161.987 144.362 159.984 143.096C158.373 142.09 157.796 141.721 157.678 141.546C157.365 141.172 157.013 140.832 156.629 140.53L154.422 139.373Z" fill="#777777"/>
<path d="M157.513 144.235L158.222 145.293C158.984 146.45 160.02 147.401 161.237 148.062C163.127 149.083 166.037 150.25 168.579 149.551C172.747 148.402 162.257 142.075 162.257 142.075C162.257 142.075 158.52 144.674 157.513 144.235Z" fill="white"/>
<path d="M166.925 149.999C164.828 149.999 162.673 149.121 161.123 148.27C159.874 147.592 158.81 146.619 158.023 145.435L157.315 144.372C157.285 144.331 157.269 144.283 157.269 144.232C157.269 144.182 157.285 144.133 157.315 144.093C157.348 144.054 157.393 144.026 157.443 144.014C157.493 144.002 157.546 144.007 157.593 144.027C158.203 144.292 160.599 142.935 162.106 141.891C162.143 141.866 162.188 141.852 162.233 141.852C162.279 141.852 162.323 141.866 162.361 141.891C163.15 142.364 170.068 146.616 169.77 148.771C169.704 149.243 169.298 149.603 168.627 149.792C168.071 149.937 167.499 150.007 166.925 149.999ZM157.976 144.499L158.416 145.166C159.159 146.287 160.164 147.21 161.345 147.854C163.273 148.894 166.07 149.995 168.518 149.324C169.255 149.116 169.302 148.795 169.316 148.691C169.529 147.145 164.416 143.673 162.262 142.359C161.51 142.86 159.252 144.348 157.976 144.499Z" fill="#777777"/>
<path d="M158.713 144.736C159.861 146.472 161.6 147.733 163.608 148.284C167.034 149.262 168.017 149.017 168.749 148.039" fill="white"/>
<path d="M166.878 149.144C165.745 149.08 164.625 148.867 163.547 148.511C161.476 147.952 159.683 146.65 158.51 144.854C158.494 144.827 158.483 144.798 158.479 144.767C158.475 144.736 158.476 144.705 158.484 144.675C158.492 144.645 158.506 144.617 158.525 144.593C158.544 144.568 158.568 144.548 158.595 144.533C158.649 144.501 158.714 144.493 158.775 144.509C158.836 144.525 158.888 144.564 158.921 144.618C160.044 146.295 161.73 147.515 163.674 148.058C167.015 149.003 167.927 148.766 168.56 147.897C168.598 147.848 168.654 147.815 168.716 147.807C168.778 147.798 168.84 147.813 168.891 147.85C168.941 147.887 168.974 147.943 168.983 148.005C168.992 148.067 168.976 148.13 168.938 148.18C168.707 148.505 168.395 148.764 168.035 148.933C167.674 149.102 167.275 149.174 166.878 149.144Z" fill="#777777"/>
<path d="M152.594 142.534C152.594 142.534 156.374 145.241 158.222 145.293L152.594 142.534Z" fill="white"/>
<path d="M158.203 145.53C156.313 145.478 152.604 142.836 152.448 142.728C152.398 142.69 152.365 142.634 152.355 142.573C152.345 142.511 152.36 142.448 152.396 142.397C152.413 142.371 152.436 142.35 152.462 142.333C152.488 142.317 152.517 142.305 152.547 142.3C152.577 142.295 152.608 142.295 152.638 142.302C152.668 142.309 152.697 142.322 152.722 142.34C152.76 142.368 156.469 145.01 158.217 145.057C158.28 145.06 158.34 145.087 158.383 145.133C158.426 145.179 158.45 145.24 158.449 145.303C158.448 145.334 158.44 145.364 158.427 145.393C158.414 145.421 158.396 145.446 158.373 145.467C158.35 145.488 158.323 145.505 158.294 145.515C158.265 145.526 158.234 145.531 158.203 145.53Z" fill="#777777"/>
<path d="M144.386 68.9727C144.386 68.9727 147.741 74.5343 148.46 75.8242C149.178 77.1142 158.231 87.467 161.822 96.3786C165.413 105.29 168.867 113.332 168.721 115.922C168.574 118.511 156.785 140.351 156.785 140.351L154.342 139.061C154.342 139.061 158.075 118.506 157.65 116.352C157.225 114.197 144.027 92.7828 144.027 92.7828C144.027 92.7828 137.847 88.4734 135.262 83.4412" fill="#777777"/>
<path d="M144.864 82.8693C144.864 82.8693 142.997 86.8904 142.997 87.4669C142.997 88.0433 153.487 118.941 156.506 125.982C158.418 130.492 160.096 135.097 161.534 139.779C161.534 139.779 162.687 141.197 161.822 142.652C160.958 144.107 157.513 145.095 156.795 143.8C156.076 142.505 149.031 135.767 146.017 129.001C143.002 122.235 138.688 110.748 136.24 106.438C133.016 100.921 130.138 95.2079 127.622 89.3333C124.456 81.8629 121.2 73.7639 121.2 73.7639C125.467 74.1205 129.763 73.639 133.845 72.3464C140.46 70.1917 143.295 66.0667 143.295 66.0667C143.295 66.0667 144.977 70.3666 145.407 71.1982" fill="#777777"/>
<path d="M145.851 95.0036C145.819 95.0031 145.787 94.993 145.76 94.9745C145.733 94.956 145.712 94.9299 145.7 94.8996L142.393 86.2998C142.381 86.2679 142.38 86.2333 142.388 86.2005C142.397 86.1677 142.415 86.1381 142.44 86.1156L146.144 82.9403C146.176 82.911 146.217 82.8948 146.26 82.8948C146.303 82.8948 146.345 82.911 146.376 82.9403C146.405 82.971 146.421 83.0115 146.421 83.0537C146.421 83.0958 146.405 83.1364 146.376 83.1671L142.757 86.2715L146.022 94.7768C146.037 94.8169 146.037 94.8616 146.02 94.9013C146.003 94.9411 145.972 94.9727 145.932 94.9894L145.851 95.0036Z" fill="white"/>
<path d="M142.539 86.3991C142.499 86.3995 142.46 86.3842 142.431 86.3565C142.414 86.3415 142.401 86.3232 142.392 86.3029C142.383 86.2826 142.379 86.2606 142.379 86.2384C142.379 86.2148 142.379 83.6207 141.216 81.9858C140.928 81.5652 140.697 81.2345 140.503 80.9651C139.898 80.1052 139.714 79.8453 139.605 79.4153C139.53 78.9125 139.53 78.4013 139.605 77.8985C139.613 77.8568 139.636 77.8196 139.671 77.7942C139.705 77.7689 139.747 77.7572 139.789 77.7615C139.81 77.7644 139.831 77.7715 139.849 77.7823C139.868 77.7932 139.884 77.8077 139.897 77.8248C139.909 77.842 139.919 77.8615 139.924 77.8823C139.929 77.9031 139.93 77.9246 139.926 77.9458C139.86 78.408 139.86 78.8774 139.926 79.3397C140.021 79.7083 140.181 79.9351 140.777 80.7809C140.966 81.0502 141.202 81.381 141.49 81.8015C142.539 83.3088 142.686 85.4729 142.709 86.0919L149.424 85.832C149.467 85.8319 149.508 85.8479 149.539 85.8768C149.571 85.9057 149.59 85.9454 149.594 85.988C149.595 86.0092 149.592 86.0305 149.585 86.0505C149.578 86.0706 149.566 86.0889 149.552 86.1044C149.537 86.1199 149.52 86.1322 149.5 86.1406C149.48 86.1491 149.459 86.1534 149.438 86.1533L142.558 86.418L142.539 86.3991Z" fill="white"/>
<path d="M165.04 116.99C162.049 116.99 158.25 115.052 158.08 114.967C158.043 114.947 158.014 114.913 158.002 114.872C157.99 114.832 157.994 114.788 158.014 114.75C158.024 114.731 158.037 114.714 158.053 114.7C158.069 114.686 158.088 114.676 158.108 114.669C158.128 114.662 158.149 114.66 158.171 114.662C158.192 114.663 158.212 114.669 158.231 114.679C158.274 114.703 162.593 116.905 165.551 116.645C165.572 116.643 165.594 116.645 165.614 116.652C165.635 116.658 165.654 116.669 165.67 116.683C165.686 116.697 165.7 116.715 165.709 116.734C165.719 116.753 165.724 116.774 165.725 116.796C165.727 116.817 165.725 116.838 165.719 116.859C165.713 116.879 165.702 116.898 165.689 116.914C165.675 116.93 165.658 116.943 165.639 116.953C165.621 116.963 165.6 116.969 165.579 116.971C165.404 116.985 165.225 116.99 165.04 116.99Z" fill="white"/>
<path d="M164.638 119.485H164.601C161.95 118.818 158.973 116.38 158.845 116.276C158.816 116.245 158.8 116.205 158.8 116.163C158.8 116.121 158.816 116.08 158.845 116.049C158.859 116.033 158.875 116.019 158.894 116.009C158.912 115.999 158.933 115.993 158.954 115.99C158.975 115.988 158.996 115.99 159.016 115.996C159.037 116.002 159.056 116.012 159.072 116.026C159.1 116.049 162.12 118.525 164.7 119.168C164.72 119.173 164.74 119.183 164.756 119.196C164.773 119.209 164.787 119.225 164.798 119.244C164.808 119.262 164.815 119.282 164.818 119.303C164.82 119.325 164.819 119.346 164.813 119.366C164.804 119.404 164.781 119.438 164.749 119.46C164.716 119.481 164.677 119.49 164.638 119.485Z" fill="white"/>
<path d="M142.407 83.8853C142.381 83.8853 142.356 83.8793 142.333 83.8678C142.31 83.8563 142.29 83.8396 142.274 83.8191C142.262 83.8015 142.253 83.7816 142.249 83.7606C142.244 83.7396 142.244 83.7178 142.248 83.6967C142.252 83.6755 142.26 83.6554 142.272 83.6375C142.284 83.6195 142.299 83.6042 142.317 83.5923C142.955 83.1481 143.966 82.2929 143.966 81.8723C143.966 81.5936 143.621 81.2628 143.252 80.9273C142.845 80.5866 142.507 80.1692 142.26 79.6988C142.019 79.1365 141.155 76.9298 141.315 76.3912C141.322 76.3709 141.332 76.3522 141.346 76.336C141.359 76.3198 141.376 76.3065 141.395 76.2968C141.414 76.2872 141.435 76.2813 141.456 76.2797C141.477 76.278 141.498 76.2806 141.518 76.2872C141.56 76.3012 141.594 76.3309 141.613 76.3698C141.632 76.4087 141.636 76.4538 141.622 76.4951C141.523 76.7833 142.038 78.3852 142.544 79.557C142.775 79.9842 143.086 80.3628 143.46 80.6721C143.9 81.0927 144.278 81.4518 144.278 81.8676C144.278 82.5953 142.671 83.7246 142.487 83.8522C142.464 83.87 142.436 83.8814 142.407 83.8853Z" fill="white"/>
<path d="M126.662 84.8114C126.628 84.8128 126.594 84.8032 126.566 84.7842C126.538 84.7651 126.516 84.7375 126.505 84.7054C126.493 84.6732 126.492 84.6382 126.502 84.6055C126.511 84.5727 126.531 84.5439 126.558 84.5232L127.881 83.4647C129.152 82.4535 129.937 79.8689 129.946 79.8405C129.959 79.7996 129.988 79.7653 130.026 79.745C130.064 79.7247 130.108 79.72 130.149 79.7319C130.19 79.7449 130.225 79.7735 130.245 79.8114C130.265 79.8493 130.27 79.8937 130.258 79.935C130.225 80.0437 129.431 82.6425 128.085 83.7151L126.761 84.7736C126.734 84.7974 126.699 84.8108 126.662 84.8114Z" fill="white"/>
<path d="M158.075 144.443C158.052 144.442 158.028 144.436 158.007 144.425C157.986 144.415 157.967 144.4 157.952 144.381C156.261 142.307 154.733 140.105 153.383 137.794C151.555 134.525 146.296 125.58 146.239 125.509C145.752 124.433 145.39 123.304 145.162 122.145C145.128 121.965 145.105 121.8 145.081 121.672C144.906 120.481 144.831 119.99 143.248 118.969C141.665 117.949 141.566 116.172 141.433 114.268C141.405 113.819 141.372 113.356 141.32 112.898C141.107 111.008 136.089 102.502 132.427 96.3218C131.596 94.9043 130.84 93.6379 130.225 92.5842C126.946 86.9424 124.678 79.5239 124.654 79.4483C124.642 79.4069 124.647 79.3626 124.668 79.3247C124.688 79.2867 124.722 79.2582 124.763 79.2451C124.783 79.2386 124.804 79.2363 124.826 79.2383C124.847 79.2404 124.867 79.2466 124.886 79.2568C124.904 79.267 124.92 79.2808 124.934 79.2975C124.947 79.3142 124.956 79.3333 124.961 79.3538C124.985 79.4294 127.244 86.8148 130.504 92.4188C131.118 93.4725 131.874 94.753 132.706 96.1564C136.387 102.37 141.424 110.885 141.641 112.86C141.693 113.332 141.726 113.805 141.759 114.249C141.887 116.139 141.996 117.783 143.423 118.7C145.128 119.796 145.213 120.368 145.402 121.62C145.402 121.776 145.45 121.937 145.478 122.116C145.702 123.241 146.054 124.337 146.527 125.381C146.57 125.462 151.833 134.406 153.667 137.667C155.008 139.959 156.525 142.144 158.203 144.202C158.216 144.218 158.226 144.237 158.232 144.257C158.239 144.278 158.241 144.299 158.238 144.32C158.236 144.341 158.23 144.362 158.22 144.38C158.21 144.399 158.196 144.415 158.179 144.429C158.147 144.444 158.111 144.449 158.075 144.443Z" fill="white"/>
<path d="M121.2 73.764C121.2 73.764 121.503 77.1094 122.826 78.1678C124.149 79.2263 128.118 80.1524 133.542 79.1129C138.967 78.0733 144.92 73.4427 145.45 71.8361C145.979 70.2296 143.286 66.0714 143.286 66.0714C143.286 66.0714 140.157 70.5131 131.425 71.9684C122.693 73.4238 121.2 73.764 121.2 73.764Z" fill="white"/>
<path d="M128.945 79.798C125.746 79.798 123.553 79.0562 122.674 78.3521C121.29 77.2417 120.978 73.9294 120.964 73.7876C120.959 73.7313 120.974 73.675 121.007 73.6291C121.04 73.5831 121.088 73.5505 121.143 73.5372C121.205 73.5372 122.745 73.1544 131.387 71.7133C139.893 70.2957 143.059 65.958 143.092 65.9155C143.114 65.8849 143.143 65.86 143.177 65.8428C143.21 65.8255 143.248 65.8165 143.285 65.8163C143.324 65.8171 143.362 65.8275 143.396 65.8464C143.43 65.8654 143.458 65.8924 143.479 65.925C143.763 66.3597 146.22 70.2437 145.672 71.8928C145.09 73.6317 139 78.2671 133.585 79.3255C132.057 79.6315 130.503 79.7898 128.945 79.798ZM121.46 73.953C121.55 74.6807 121.932 77.1472 122.972 77.9835C124.153 78.9286 127.938 79.9492 133.495 78.8624C138.957 77.7945 144.755 73.1592 145.227 71.7416C145.601 70.617 144.075 67.7772 143.262 66.4636C142.421 67.4701 139.047 70.9194 131.449 72.1811C124.446 73.3529 122.093 73.7971 121.46 73.953Z" fill="#777777"/>
<path d="M156.076 41.3353C153.917 39.9178 137.105 26.8197 135.522 26.2432C133.939 25.6667 130.797 26.2432 130.797 26.2432C130.797 26.2432 121.054 27.4339 119.012 28.2561C118.819 28.3317 114.429 30.8549 114.287 30.9873C112.704 32.2819 105.782 35.4667 103.92 39.4925C101.808 44.0476 120.369 71.4723 121.233 73.7687C122.098 76.0652 126.629 76.6322 130.797 76.0557C134.965 75.4792 138.622 74.6382 141.641 71.1841C142.189 70.4961 142.647 69.742 143.007 68.9396C143.438 68.0431 143.548 67.0254 143.319 66.0573C142.241 61.5684 139.491 48.6262 137.677 40.069C140.701 42.0205 146.99 45.9849 150.647 47.3835C155.533 49.2736 159.271 47.96 159.271 46.3771C159.271 44.7941 158.231 42.7718 156.076 41.3353Z" fill="white"/>
<path d="M150.241 44.1278C147.36 43.8436 144.57 42.9634 142.048 41.5432C142.048 41.5432 145.785 39.8185 145.927 38.9538C146.069 38.0891 140.753 38.8121 141.471 38.5238C142.19 38.2356 143.196 37.5174 141.471 37.5174C140.096 37.4269 138.742 37.1372 137.45 36.6574L137.644 40.0548C139.288 41.1179 141.897 42.767 144.514 44.279C146.976 45.5735 149.512 46.7237 152.108 47.7237C152.108 47.7237 155.269 44.7043 150.241 44.1278Z" fill="#EEEEEE"/>
<g style="mix-blend-mode:multiply">
<path d="M130.764 76.051L131.298 75.9754C132.451 75.4178 134.402 75.0682 136.302 74.5957C139.175 73.8775 136.014 73.8775 131.27 71.4346C126.526 68.9917 124.654 65.4005 120.345 60.2265C116.036 55.0525 114.311 52.4631 115.176 51.8913C116.04 51.3196 113.451 51.3149 112.445 50.7384C111.438 50.1619 113.862 50.1667 115.894 48.1538C117.926 46.1408 112.01 48.5837 111.438 48.442C110.866 48.3002 112.01 46.4291 112.01 46.4291L107.842 50.7384L117.902 67.9852L118.479 68.4152L119.14 69.3602L121.03 73.4238C121.106 73.5656 121.158 73.6837 121.191 73.7641C122.06 76.0652 126.596 76.6322 130.764 76.051Z" fill="#EEEEEE"/>
</g>
<path d="M111.712 35.8684C114.892 35.3958 123.756 40.4518 123.756 40.4518C118.885 37.1441 114.623 34.0445 111.707 32.6458L106.335 36.4259L105.966 36.7709C106.59 36.648 108.981 36.2558 111.712 35.8684Z" fill="#EEEEEE"/>
<path opacity="0.5" d="M150.241 44.1278C147.36 43.8436 144.57 42.9634 142.048 41.5432C142.048 41.5432 145.785 39.8185 145.927 38.9538C146.069 38.0891 140.753 38.8121 141.471 38.5238C142.19 38.2356 143.196 37.5174 141.471 37.5174C140.096 37.4269 138.742 37.1372 137.45 36.6574L137.644 40.0548C139.288 41.1179 141.897 42.767 144.514 44.279C146.976 45.5735 149.512 46.7237 152.108 47.7237C152.108 47.7237 155.269 44.7043 150.241 44.1278Z" fill="white"/>
<path opacity="0.5" d="M130.764 76.051L131.298 75.9754C132.451 75.4178 134.402 75.0682 136.302 74.5957C139.175 73.8775 136.014 73.8775 131.27 71.4346C126.526 68.9917 124.654 65.4005 120.345 60.2265C116.036 55.0525 114.311 52.4631 115.176 51.8913C116.04 51.3196 113.451 51.3149 112.445 50.7384C111.438 50.1619 113.862 50.1667 115.894 48.1538C117.926 46.1408 112.01 48.5837 111.438 48.442C110.866 48.3002 112.01 46.4291 112.01 46.4291L107.842 50.7384L117.902 67.9852L118.479 68.4152L119.14 69.3602L121.03 73.4238C121.106 73.5656 121.158 73.6837 121.191 73.7641C122.06 76.0652 126.596 76.6322 130.764 76.051Z" fill="white"/>
<path opacity="0.5" d="M111.712 35.8684C114.892 35.3958 123.756 40.4518 123.756 40.4518C118.885 37.1441 114.623 34.0445 111.707 32.6458L106.335 36.4259L105.966 36.7709C106.59 36.648 108.981 36.2558 111.712 35.8684Z" fill="white"/>
<path d="M127.74 76.4998C124.555 76.4998 121.687 75.739 120.978 73.849C120.77 73.2914 119.372 71.0139 117.6 68.1505C110.073 55.9407 102.167 42.6347 103.675 39.3885C105.092 36.3266 109.283 33.7986 112.057 32.1259C112.764 31.7244 113.447 31.2827 114.103 30.8029C114.273 30.6659 118.672 28.1332 118.909 28.0387C120.959 27.2118 130.353 26.0588 130.755 26.0116C130.873 25.988 133.982 25.4304 135.603 26.0116C136.651 26.3943 143.838 31.833 149.613 36.2037C152.741 38.5663 155.439 40.617 156.204 41.1273C158.614 42.7339 159.474 44.8791 159.474 46.3534C159.457 46.627 159.372 46.892 159.226 47.1246C159.081 47.3572 158.881 47.5501 158.642 47.6859C157.248 48.6309 154.201 48.9853 150.529 47.5819C147.963 46.5991 143.635 44.1751 137.993 40.5509C139.883 49.5523 142.478 61.677 143.512 65.9863C143.756 67.008 143.641 68.0824 143.186 69.0293C142.817 69.8539 142.34 70.6261 141.769 71.3258C138.612 74.931 134.771 75.7249 130.783 76.273C129.775 76.4183 128.758 76.494 127.74 76.4998ZM133.599 26.2242C132.67 26.2383 131.742 26.322 130.825 26.4747C130.712 26.4747 121.077 27.6701 119.083 28.4734C118.824 28.5915 114.613 31.0155 114.401 31.1715C113.728 31.6658 113.026 32.1187 112.298 32.5276C109.576 34.1719 105.466 36.6574 104.105 39.6153C102.574 42.9229 112.61 59.1821 118.001 67.9284C119.924 71.047 121.196 73.126 121.422 73.7072C122.259 75.9375 126.833 76.3769 130.731 75.8383C134.629 75.2996 138.381 74.5294 141.429 71.047C141.964 70.3759 142.412 69.6391 142.761 68.8545C143.167 68.0075 143.271 67.0469 143.054 66.1328C141.996 61.729 139.331 49.1837 137.412 40.1445C137.403 40.0983 137.407 40.0505 137.425 40.0068C137.443 39.9631 137.473 39.9256 137.511 39.8988C137.55 39.8734 137.595 39.8599 137.641 39.8599C137.688 39.8599 137.733 39.8734 137.771 39.8988C143.621 43.6789 148.091 46.1974 150.699 47.1897C154.187 48.5269 157.126 48.2103 158.373 47.3504C158.545 47.2535 158.691 47.1174 158.8 46.9531C158.91 46.7889 158.979 46.6012 159.001 46.4053C159.001 45.0539 158.198 43.0741 155.944 41.5715C155.165 41.0517 152.462 39.0058 149.329 36.6337C143.881 32.5134 136.425 26.8668 135.442 26.5077C134.847 26.3134 134.225 26.2176 133.599 26.2242Z" fill="#777777"/>
<path d="M106.198 36.5487C106.198 36.5487 104.473 38.4388 103.802 39.3129C100.202 43.9388 88.7432 58.7616 88.6157 59.9571C88.4881 61.1526 89.0315 61.9558 91.8335 63.0332C94.6355 64.1105 113.38 45.328 113.38 45.328" fill="white"/>
<g style="mix-blend-mode:multiply" opacity="0.8">
<path d="M106.226 36.6055L105.985 36.7614C105.636 37.1489 104.88 37.9947 104.294 38.6893L95.5899 50.1052C95.5899 50.1052 95.3206 50.4076 94.8953 50.9085C91.6303 55.2604 88.7857 59.187 88.6109 59.8863C88.6109 59.9099 88.6109 59.9335 88.6109 59.9524C88.4975 61.0817 89.0456 61.9417 91.8334 63.0143C92.3296 63.2033 93.3124 62.7781 94.6024 61.9512C93.947 61.8194 93.321 61.5696 92.7548 61.214C91.1719 60.2076 92.4666 59.2011 92.4666 59.2011C92.4666 59.2011 94.522 60.0233 96.5491 60.5761C96.9697 60.2596 97.4091 59.9193 97.858 59.5602C97.4262 59.2774 97.017 58.9614 96.6342 58.6152C94.9095 57.037 93.4731 55.4541 93.4731 55.4541L106.647 37.0685L106.226 36.6055Z" fill="#EEEEEE"/>
</g>
<path opacity="0.5" d="M106.226 36.6055L105.985 36.7614C105.636 37.1489 104.88 37.9947 104.294 38.6893L95.5899 50.1052C95.5899 50.1052 95.3206 50.4076 94.8953 50.9085C91.6303 55.2604 88.7857 59.187 88.6109 59.8863C88.6109 59.9099 88.6109 59.9335 88.6109 59.9524C88.4975 61.0817 89.0456 61.9417 91.8334 63.0143C92.3296 63.2033 93.3124 62.7781 94.6024 61.9512C93.947 61.8194 93.321 61.5696 92.7548 61.214C91.1719 60.2076 92.4666 59.2011 92.4666 59.2011C92.4666 59.2011 94.522 60.0233 96.5491 60.5761C96.9697 60.2596 97.4091 59.9193 97.858 59.5602C97.4262 59.2774 97.017 58.9614 96.6342 58.6152C94.9095 57.037 93.4731 55.4541 93.4731 55.4541L106.647 37.0685L106.226 36.6055Z" fill="white"/>
<path d="M92.0507 63.3073C91.9445 63.3085 91.8389 63.2909 91.7388 63.2553C89.1305 62.2488 88.2139 61.3652 88.3698 59.9477C88.4974 58.7711 97.9713 46.4338 103.604 39.1854C104.275 38.3254 105.943 36.4873 106.013 36.4117C106.034 36.3866 106.059 36.3659 106.087 36.3508C106.116 36.3358 106.147 36.3267 106.179 36.3241C106.211 36.3216 106.243 36.3256 106.274 36.336C106.304 36.3464 106.332 36.3629 106.356 36.3845C106.38 36.4061 106.399 36.4324 106.413 36.4617C106.426 36.491 106.433 36.5227 106.434 36.5549C106.435 36.5871 106.429 36.6191 106.416 36.6489C106.404 36.6787 106.386 36.7058 106.363 36.7283C106.363 36.7283 104.634 38.6184 103.977 39.4783C94.8763 51.1873 88.9321 59.2436 88.8565 59.9997C88.7478 61.0061 89.2156 61.7905 91.9278 62.8347C93.8793 63.586 105.73 52.6851 113.219 45.1769C113.264 45.1324 113.324 45.1074 113.387 45.1074C113.45 45.1074 113.51 45.1324 113.555 45.1769C113.599 45.2214 113.624 45.2817 113.624 45.3446C113.624 45.4075 113.599 45.4679 113.555 45.5124C111.679 47.3646 95.6701 63.3073 92.0507 63.3073Z" fill="#777777"/>
<path d="M144.126 35.6888L137.644 40.0548C138.589 39.9225 143.068 38.3348 143.068 38.3348" fill="white"/>
<path d="M137.643 40.291C137.596 40.2918 137.549 40.2776 137.51 40.2504C137.471 40.2233 137.442 40.1846 137.426 40.1398C137.406 40.0906 137.404 40.0361 137.419 39.9854C137.435 39.9346 137.467 39.8907 137.511 39.861L143.999 35.495C144.024 35.4772 144.053 35.4647 144.083 35.4582C144.113 35.4516 144.144 35.4512 144.175 35.4569C144.205 35.4626 144.234 35.4744 144.26 35.4915C144.286 35.5086 144.308 35.5307 144.325 35.5564C144.359 35.6093 144.372 35.6735 144.359 35.7353C144.347 35.7972 144.311 35.8517 144.259 35.8872L138.943 39.4689C140.573 38.968 142.959 38.1269 142.992 38.1127C143.055 38.0921 143.123 38.0971 143.182 38.1268C143.241 38.1565 143.286 38.2084 143.307 38.271C143.327 38.3337 143.322 38.402 143.292 38.4609C143.263 38.5198 143.211 38.5646 143.148 38.5852C142.964 38.6467 138.617 40.1823 137.677 40.3147L137.643 40.291Z" fill="#777777"/>
<path d="M143.862 38.4388C143.807 38.4377 143.754 38.4179 143.712 38.3826C143.67 38.3474 143.641 38.2989 143.631 38.245C143.62 38.1836 143.633 38.1204 143.669 38.069C143.704 38.0177 143.758 37.9824 143.82 37.971L145.275 37.7064C145.337 37.6952 145.401 37.7087 145.453 37.7441C145.505 37.7794 145.541 37.8337 145.554 37.8954C145.56 37.9264 145.56 37.9584 145.553 37.9894C145.547 38.0204 145.534 38.0498 145.516 38.0758C145.498 38.1018 145.475 38.1239 145.448 38.1408C145.421 38.1577 145.391 38.169 145.36 38.1741L143.905 38.4388H143.862Z" fill="#777777"/>
<path d="M95.8309 55.369C94.8305 55.3391 93.8356 55.5278 92.9155 55.9218L95.8309 55.369Z" fill="white"/>
<path d="M92.9157 56.1723C92.8531 56.1842 92.7883 56.1707 92.7355 56.1348C92.6828 56.0989 92.6465 56.0436 92.6346 55.9809C92.6227 55.9182 92.6362 55.8534 92.6721 55.8007C92.7079 55.748 92.7633 55.7117 92.826 55.6998C93.78 55.29 94.8123 55.0948 95.8501 55.128C95.8811 55.1304 95.9114 55.1389 95.9392 55.153C95.9669 55.1672 95.9916 55.1867 96.0118 55.2104C96.032 55.2341 96.0473 55.2616 96.0569 55.2912C96.0664 55.3209 96.07 55.3521 96.0674 55.3832C96.0614 55.4454 96.0314 55.5029 95.9838 55.5435C95.9362 55.584 95.8747 55.6045 95.8123 55.6005C94.8505 55.5726 93.8943 55.7548 93.0102 56.1345C92.982 56.1541 92.9497 56.167 92.9157 56.1723Z" fill="#777777"/>
<path d="M109.959 48.8908C109.959 48.8908 113.602 47.7756 114.566 47.0338L109.959 48.8908Z" fill="white"/>
<path d="M109.959 49.127C109.896 49.1358 109.833 49.1193 109.782 49.0812C109.732 49.0431 109.699 48.9865 109.69 48.9239C109.681 48.8612 109.698 48.7976 109.736 48.7471C109.774 48.6966 109.83 48.6633 109.893 48.6545C109.926 48.6545 113.503 47.5488 114.424 46.8401C114.474 46.802 114.537 46.785 114.599 46.793C114.661 46.801 114.717 46.8332 114.755 46.8826C114.792 46.9326 114.808 46.9949 114.8 47.0565C114.792 47.1181 114.761 47.1743 114.713 47.2133C113.72 47.9741 110.181 49.0609 110.03 49.1034C110.008 49.116 109.984 49.1241 109.959 49.127Z" fill="#777777"/>
<path d="M115.459 46.6652C115.459 46.6652 116.054 46.1454 116.276 46.1454L115.459 46.6652Z" fill="white"/>
<path d="M115.459 46.9015C115.426 46.9012 115.392 46.8939 115.361 46.8801C115.33 46.8663 115.303 46.8462 115.28 46.8212C115.236 46.7762 115.212 46.7161 115.212 46.6534C115.212 46.5908 115.236 46.5307 115.28 46.4857C115.547 46.2101 115.883 46.0111 116.253 45.9092C116.316 45.9092 116.376 45.9341 116.42 45.9784C116.465 46.0227 116.49 46.0828 116.49 46.1455C116.488 46.2078 116.463 46.2672 116.419 46.3112C116.375 46.3553 116.316 46.3805 116.253 46.3818C116.01 46.5044 115.787 46.6638 115.592 46.8543C115.554 46.8836 115.507 46.9002 115.459 46.9015Z" fill="#777777"/>
<path d="M137.644 40.291C137.586 40.2903 137.529 40.2683 137.486 40.2292C137.442 40.1901 137.415 40.1365 137.408 40.0784L136.817 34.0066C136.814 33.9756 136.817 33.9442 136.826 33.9144C136.835 33.8845 136.85 33.8568 136.87 33.8326C136.889 33.8085 136.914 33.7885 136.941 33.7737C136.969 33.759 136.999 33.7498 137.03 33.7467C137.061 33.7436 137.092 33.7467 137.122 33.7557C137.152 33.7647 137.18 33.7795 137.204 33.7992C137.228 33.819 137.248 33.8433 137.263 33.8707C137.277 33.8982 137.287 33.9283 137.29 33.9594L137.885 40.0359C137.888 40.0667 137.885 40.0978 137.876 40.1275C137.867 40.1571 137.852 40.1846 137.833 40.2084C137.813 40.2322 137.788 40.2518 137.761 40.266C137.733 40.2802 137.703 40.2887 137.672 40.291H137.644Z" fill="#777777"/>
<path d="M88.6015 60.0186C88.6015 60.0186 87.7651 63.2175 93.1282 64.5453C95.675 65.1738 112.53 69.2705 112.53 69.2705C112.53 69.2705 114.037 66.0385 113.177 66.0385C112.317 66.0385 96.776 55.7046 96.776 55.7046" fill="white"/>
<path d="M91.1058 63.8412L110.649 68.831L111.169 67.593C111.169 67.593 103.807 66.1187 99.2094 63.8129C94.6119 61.507 94.3189 62.2299 92.7407 61.2282C91.1625 60.2265 92.4525 59.2153 92.4525 59.2153C92.4525 59.2153 96.7666 60.94 99.0677 61.0817C101.369 61.2235 98.3495 60.2217 96.6248 58.6388C95.9113 57.9868 95.2498 57.33 94.7347 56.7913L88.592 60.0138C88.592 60.0138 87.9967 62.3339 91.1058 63.8412Z" fill="#EEEEEE"/>
<path opacity="0.5" d="M91.1058 63.8412L110.649 68.831L111.169 67.593C111.169 67.593 103.807 66.1187 99.2094 63.8129C94.6119 61.507 94.3189 62.2299 92.7407 61.2282C91.1625 60.2265 92.4525 59.2153 92.4525 59.2153C92.4525 59.2153 96.7666 60.94 99.0677 61.0817C101.369 61.2235 98.3495 60.2217 96.6248 58.6388C95.9113 57.9868 95.2498 57.33 94.7347 56.7913L88.592 60.0138C88.592 60.0138 87.9967 62.3339 91.1058 63.8412Z" fill="white"/>
<path d="M112.529 69.5445H112.473C112.473 69.5445 95.6182 65.4289 93.0713 64.8193C90.945 64.2948 89.5038 63.4018 88.7903 62.2158C88.3747 61.5587 88.226 60.7676 88.3745 60.0044C88.3912 59.9442 88.4305 59.8929 88.4843 59.8611C88.538 59.8294 88.602 59.8198 88.6627 59.8343C88.7227 59.8509 88.7737 59.8904 88.8047 59.9444C88.8356 59.9984 88.8441 60.0624 88.8281 60.1225C88.7211 60.7684 88.8557 61.4312 89.2061 61.9842C89.8535 63.071 91.1954 63.8743 93.1847 64.3468C95.5473 64.9374 110.535 68.5994 112.397 69.0436C112.978 67.7584 113.342 66.5109 113.177 66.3172C112.279 66.3172 99.2612 57.6702 96.6624 55.9219C96.6103 55.8863 96.5742 55.8318 96.5618 55.77C96.5494 55.7081 96.5618 55.6439 96.5963 55.5911C96.6134 55.5653 96.6354 55.5432 96.6612 55.5262C96.687 55.5091 96.7159 55.4973 96.7463 55.4916C96.7767 55.4859 96.8079 55.4863 96.8382 55.4928C96.8684 55.4994 96.897 55.5119 96.9223 55.5297C103.041 59.6075 112.426 65.7171 113.186 65.8352C113.263 65.8364 113.339 65.8564 113.406 65.8934C113.474 65.9305 113.531 65.9835 113.574 66.0479C113.966 66.6668 113.035 68.7743 112.737 69.4074C112.719 69.4474 112.69 69.4813 112.653 69.5056C112.616 69.5298 112.573 69.5432 112.529 69.5445Z" fill="#777777"/>
<path d="M113.177 66.0526C113.177 66.0526 118.71 68.642 119.14 69.3602C119.57 70.0784 120.557 73.8113 120.557 74.9642C120.557 76.1171 120.416 76.1124 119.697 76.1124C118.979 76.1124 117.108 73.3813 116.678 72.8048C116.248 72.2283 115.26 72.2283 113.947 71.3873C113.581 71.1551 113.266 70.8504 113.022 70.492C112.779 70.1337 112.611 69.7292 112.529 69.3035L113.177 66.0526Z" fill="white"/>
<path d="M119.716 76.3487C119.097 76.3487 118.077 75.1154 116.735 73.2631C116.64 73.1308 116.565 73.0222 116.508 72.9513C116.238 72.6828 115.9 72.4933 115.53 72.4032C114.934 72.1913 114.365 71.9106 113.834 71.5668C113.436 71.3168 113.094 70.9877 112.829 70.5999C112.564 70.2122 112.382 69.7741 112.293 69.3129C112.291 69.2893 112.291 69.2656 112.293 69.242L112.941 66.0053C112.948 65.9705 112.963 65.9377 112.984 65.9091C113.005 65.8806 113.032 65.857 113.063 65.8399C113.096 65.8237 113.131 65.8153 113.167 65.8153C113.204 65.8153 113.239 65.8237 113.271 65.8399C114.216 66.2746 118.894 68.4955 119.338 69.2373C119.783 69.9792 120.808 73.7782 120.808 74.9642C120.808 76.1502 120.591 76.3487 119.716 76.3487ZM112.771 69.294C112.855 69.6816 113.016 70.0485 113.244 70.3731C113.472 70.6976 113.762 70.9734 114.098 71.1841C114.6 71.5069 115.137 71.7702 115.7 71.9684C116.155 72.0866 116.567 72.3326 116.886 72.6772C116.943 72.7481 117.023 72.8568 117.118 72.9938C118.847 75.3847 119.48 75.8856 119.716 75.8856C120.34 75.8856 120.34 75.8856 120.34 74.9736C120.34 73.8585 119.357 70.1871 118.923 69.4877C118.649 69.0152 115.459 67.4087 113.333 66.4022L112.771 69.294Z" fill="#777777"/>
<path d="M110.815 68.968C110.791 68.9725 110.767 68.9725 110.744 68.968C110.714 68.9589 110.686 68.9439 110.662 68.9239C110.638 68.9038 110.619 68.8792 110.605 68.8514C110.591 68.8236 110.582 68.7932 110.58 68.7621C110.578 68.731 110.582 68.6998 110.592 68.6703L111.452 66.0006C111.461 65.9701 111.476 65.9416 111.496 65.9169C111.516 65.8922 111.541 65.8718 111.569 65.8568C111.597 65.8419 111.628 65.8328 111.659 65.8301C111.691 65.8273 111.723 65.831 111.753 65.8409C111.783 65.8507 111.811 65.8666 111.835 65.8874C111.859 65.9083 111.878 65.9338 111.892 65.9624C111.906 65.991 111.914 66.0221 111.916 66.0538C111.917 66.0856 111.912 66.1173 111.901 66.1471L111.041 68.8168C111.023 68.862 110.992 68.9006 110.951 68.9276C110.911 68.9545 110.863 68.9686 110.815 68.968Z" fill="#777777"/>
<path d="M152.769 45.9187C152.769 45.9187 151.352 50.8045 150.756 53.6774C150.161 56.5503 146.159 68.0513 146.159 68.0513L149.608 70.2059C149.608 70.2059 157.225 54.4239 158.676 50.9651C160.126 47.5063 159.682 44.9264 158.246 43.49" fill="white"/>
<path d="M149.608 70.4563C149.564 70.4553 149.522 70.4423 149.485 70.4185L146.036 68.2639C145.99 68.2357 145.955 68.1926 145.937 68.1419C145.919 68.0912 145.919 68.0359 145.936 67.9851C145.974 67.8717 149.962 56.4699 150.525 53.649C151.087 50.8281 152.533 45.9187 152.533 45.8667C152.55 45.804 152.592 45.7509 152.649 45.719C152.705 45.6871 152.773 45.679 152.835 45.6966C152.898 45.7141 152.951 45.7558 152.983 45.8125C153.015 45.8693 153.023 45.9363 153.005 45.999C153.005 46.0462 151.564 50.9084 150.997 53.7388C150.458 56.4368 146.985 66.4447 146.451 67.9662L149.518 69.8799C150.463 67.8906 157.13 54.0459 158.453 50.8706C159.729 47.804 159.592 45.2004 158.075 43.6553C158.031 43.6114 158.007 43.552 158.007 43.4899C158.007 43.4279 158.031 43.3684 158.075 43.3245C158.119 43.2807 158.179 43.256 158.241 43.256C158.303 43.256 158.362 43.2807 158.406 43.3245C160.069 44.9831 160.244 47.804 158.879 51.0549C157.461 54.4712 149.901 70.1634 149.821 70.324C149.807 70.3539 149.786 70.3804 149.761 70.4017C149.736 70.4229 149.706 70.4383 149.674 70.4469L149.608 70.4563Z" fill="#777777"/>
<path d="M146.811 66.4069C147.07 66.4069 150.345 68.2119 150.345 68.2119L146.811 66.4069Z" fill="#777777"/>
<path d="M124.149 40.4517C123.355 40.3194 119.117 37.541 116.206 35.2918C113.295 33.0427 111.708 32.6458 111.708 32.6458L109.723 33.9688C109.423 33.0018 109.518 31.9551 109.988 31.0581C110.781 29.6028 113.56 28.1474 116.338 27.089C119.117 26.0306 122.292 25.1281 124.281 25.1281C126.27 25.1281 126.795 25.9219 126.795 26.9803C126.795 28.0387 126.795 31.3463 126.133 33.8601C125.472 36.3739 124.149 40.4517 124.149 40.4517Z" fill="white"/>
<g style="mix-blend-mode:multiply">
<path d="M122.902 26.6542C122.902 26.6542 121.678 30.321 120.454 31.4219C119.509 32.2144 118.486 32.9093 117.401 33.4963C117.401 33.4963 116.669 30.9305 114.836 30.9305C113.002 30.9305 110.191 32.1543 110.191 32.1543C110.191 32.1543 110.191 31.1762 112.511 29.9524L114.836 28.7333L120.213 26.6542H122.902Z" fill="#EEEEEE"/>
</g>
<path opacity="0.5" d="M122.902 26.6542C122.902 26.6542 121.678 30.321 120.454 31.4219C119.509 32.2144 118.486 32.9093 117.401 33.4963C117.401 33.4963 116.669 30.9305 114.836 30.9305C113.002 30.9305 110.191 32.1543 110.191 32.1543C110.191 32.1543 110.191 31.1762 112.511 29.9524L114.836 28.7333L120.213 26.6542H122.902Z" fill="white"/>
<path d="M124.149 40.6879H124.106C123.227 40.5414 118.876 37.6544 116.074 35.4902C113.64 33.6002 112.137 33.0379 111.755 32.915L109.865 34.1767C109.834 34.1953 109.799 34.2074 109.764 34.2123C109.728 34.2172 109.692 34.2147 109.657 34.205C109.623 34.1933 109.592 34.1741 109.567 34.1487C109.541 34.1233 109.522 34.0925 109.51 34.0585C109.348 33.5485 109.29 33.0113 109.337 32.4783C109.385 31.9453 109.539 31.4271 109.789 30.9541C110.734 29.1869 114.259 27.6465 116.267 26.8763C117.845 26.2762 121.786 24.8776 124.3 24.8776C126.148 24.8776 127.05 25.558 127.05 26.9661C127.05 28.0529 127.05 31.3652 126.379 33.9073C125.708 36.4495 124.404 40.4942 124.39 40.5225C124.375 40.5736 124.343 40.6179 124.299 40.648C124.255 40.6782 124.202 40.6922 124.149 40.6879ZM111.707 32.4095H111.764C111.83 32.4095 113.437 32.8442 116.352 35.0981C119.088 37.2102 122.901 39.724 123.993 40.154C124.276 39.2656 125.34 35.9013 125.883 33.7656C126.54 31.2849 126.54 28.0198 126.54 26.9472C126.54 26.1486 126.27 25.3312 124.262 25.3312C122.552 25.3312 119.688 26.0494 116.404 27.3016C113.12 28.5537 110.829 29.9665 110.177 31.162C109.786 31.9046 109.668 32.761 109.846 33.5813L111.556 32.4425C111.601 32.4145 111.655 32.4028 111.707 32.4095Z" fill="#777777"/>
<path d="M112.369 23.6585C113.919 25.368 115.007 27.4449 115.53 29.6925C116.39 33.4301 121.796 37.8245 123.091 37.8245C124.385 37.8245 124.295 31.4172 123.865 29.5508C123.435 27.6844 121.711 22.6521 121.711 22.6521C121.711 22.6521 114.831 19.3445 112.369 23.6585Z" fill="white"/>
<path d="M123.109 38.0608C121.72 38.0608 116.192 33.5436 115.317 29.7445C114.799 27.5415 113.733 25.505 112.218 23.8239C112.181 23.7873 112.158 23.7397 112.151 23.6885C112.144 23.6373 112.154 23.5853 112.18 23.5404C114.703 19.0893 121.758 22.4017 121.829 22.4395C121.857 22.4529 121.883 22.472 121.904 22.4955C121.925 22.5191 121.941 22.5466 121.951 22.5765C122.022 22.7797 123.686 27.6371 124.116 29.4988C124.489 31.1337 124.664 36.5062 123.671 37.7584C123.608 37.849 123.524 37.9235 123.426 37.976C123.328 38.0285 123.22 38.0575 123.109 38.0608ZM112.681 23.6255C114.197 25.342 115.26 27.4094 115.776 29.6406C116.636 33.3498 122.008 37.5883 123.109 37.5883C123.109 37.5883 123.199 37.5883 123.298 37.4607C124.101 36.4543 124.049 31.318 123.653 29.6028C123.256 27.8876 121.762 23.531 121.536 22.8222C120.747 22.4725 114.911 20.0296 112.681 23.6255Z" fill="#777777"/>
<g style="mix-blend-mode:multiply">
<path d="M122.902 26.6543C122.902 26.6543 121.678 30.321 120.454 31.422C119.509 32.2144 118.486 32.9094 117.401 33.4963C117.401 33.4963 116.669 30.9306 114.836 30.9306C113.002 30.9306 110.191 32.1544 110.191 32.1544C110.191 32.1544 110.191 31.1763 112.511 29.9525L114.836 28.7334L120.213 26.6543H122.902Z" fill="#EEEEEE"/>
</g>
<path opacity="0.5" d="M122.902 26.6543C122.902 26.6543 121.678 30.321 120.454 31.422C119.509 32.2144 118.486 32.9094 117.401 33.4963C117.401 33.4963 116.669 30.9306 114.836 30.9306C113.002 30.9306 110.191 32.1544 110.191 32.1544C110.191 32.1544 110.191 31.1763 112.511 29.9525L114.836 28.7334L120.213 26.6543H122.902Z" fill="white"/>
<path d="M112.369 23.6585C113.919 25.368 115.007 27.4449 115.53 29.6925C116.39 33.4301 121.796 37.8245 123.091 37.8245C124.385 37.8245 124.295 31.4172 123.865 29.5508C123.435 27.6843 121.711 22.652 121.711 22.652C121.711 22.652 114.831 19.3444 112.369 23.6585Z" fill="white"/>
<path d="M123.11 38.0608C121.72 38.0608 116.192 33.5435 115.318 29.7445C114.8 27.5414 113.733 25.5049 112.218 23.8239C112.182 23.7873 112.158 23.7397 112.151 23.6885C112.145 23.6373 112.155 23.5853 112.18 23.5404C114.704 19.0893 121.758 22.4016 121.829 22.4394C121.858 22.4529 121.883 22.472 121.904 22.4955C121.926 22.519 121.942 22.5466 121.952 22.5765C122.023 22.7796 123.686 27.6371 124.116 29.4988C124.489 31.1337 124.664 36.5062 123.672 37.7584C123.608 37.849 123.524 37.9235 123.426 37.976C123.329 38.0285 123.22 38.0575 123.11 38.0608ZM112.681 23.6254C114.197 25.3419 115.261 27.4093 115.776 29.6406C116.636 33.3498 122.009 37.5883 123.11 37.5883C123.11 37.5883 123.199 37.5883 123.299 37.4607C124.102 36.4542 124.05 31.318 123.653 29.6028C123.256 27.8875 121.763 23.5309 121.536 22.8222C120.747 22.4725 114.912 20.0296 112.681 23.6254Z" fill="#777777"/>
<path d="M107.828 16.7315C108.842 19.4884 110.095 22.151 111.575 24.6886C113.758 28.275 117.973 30.3068 120.312 29.3713C122.651 28.4357 124.243 25.4163 123.619 20.7384C123.482 19.7083 122.584 19.2878 122.296 18.3758C121.261 15.0682 120.208 11.8788 119.844 10.6644C119.371 9.10038 115.629 7.54108 111.731 8.63259C107.832 9.7241 107.204 12.9845 107.828 16.7315Z" fill="white"/>
<path d="M120.78 13.868C120.78 13.868 119.362 14.9217 116.177 14.3122C112.993 13.7026 110.8 13.8397 110.923 14.6807C111.046 15.5218 111.292 16.6322 111.292 16.6322C111.292 16.6322 107.469 13.3246 110.932 12.4457C113.427 11.7984 114.868 12.7812 115.478 12.9183C116.088 13.0553 120.78 13.868 120.78 13.868Z" fill="#EEEEEE"/>
<path opacity="0.5" d="M120.78 13.868C120.78 13.868 119.362 14.9217 116.177 14.3122C112.993 13.7026 110.8 13.8397 110.923 14.6807C111.046 15.5218 111.292 16.6322 111.292 16.6322C111.292 16.6322 107.469 13.3246 110.932 12.4457C113.427 11.7984 114.868 12.7812 115.478 12.9183C116.088 13.0553 120.78 13.868 120.78 13.868Z" fill="white"/>
<path d="M119.008 29.8533C116.47 29.8533 113.168 27.7789 111.372 24.8257C109.88 22.2735 108.615 19.595 107.592 16.8213C107.589 16.8088 107.589 16.796 107.592 16.7835C106.812 12.1292 108.145 9.38392 111.66 8.40109C115.738 7.25761 119.57 8.93976 120.066 10.5888C120.236 11.1606 120.539 12.1623 120.959 13.4239C121.432 14.8415 121.966 16.5567 122.514 18.3145C122.651 18.6642 122.853 18.9848 123.109 19.2595C123.491 19.6606 123.748 20.1649 123.846 20.7101C124.546 25.9597 122.523 28.7429 120.397 29.5934C119.955 29.7678 119.483 29.856 119.008 29.8533ZM108.06 16.6701C109.066 19.4047 110.309 22.0465 111.774 24.5658C113.971 28.1711 118.124 29.9903 120.227 29.1492C122.188 28.3648 124.05 25.7518 123.383 20.7668C123.297 20.3114 123.082 19.8902 122.764 19.5524C122.466 19.2251 122.236 18.841 122.089 18.4231C121.54 16.6701 120.988 14.9501 120.534 13.5373C120.132 12.2899 119.811 11.2834 119.636 10.7022C119.239 9.38865 115.747 7.73012 111.811 8.81218C108.561 9.74776 107.337 12.3088 108.06 16.6701Z" fill="#777777"/>
<path d="M110.64 21.8772C110.64 21.8772 108.14 20.7857 107.984 21.8772C107.828 22.9687 108.929 23.7672 110.011 24.2397C110.281 24.3873 110.589 24.4513 110.895 24.4236C111.201 24.3958 111.492 24.2775 111.731 24.0838" fill="white"/>
<path d="M110.8 24.6556C110.497 24.6518 110.198 24.5859 109.921 24.4619C108.376 23.8003 107.606 22.8789 107.752 21.8678C107.765 21.7522 107.805 21.6414 107.871 21.545C107.936 21.4487 108.023 21.3697 108.126 21.3149C108.877 20.8944 110.545 21.6031 110.734 21.6882C110.787 21.7162 110.828 21.7635 110.847 21.8204C110.867 21.8772 110.864 21.9394 110.839 21.9943C110.815 22.0491 110.77 22.0924 110.714 22.1155C110.659 22.1385 110.597 22.1395 110.54 22.1182C109.917 21.8441 108.768 21.4992 108.353 21.726C108.315 21.7467 108.283 21.7766 108.26 21.8129C108.237 21.8493 108.223 21.8909 108.22 21.9339C108.069 22.9876 109.335 23.6964 110.11 24.0271C110.338 24.1535 110.597 24.2106 110.857 24.1913C111.116 24.172 111.364 24.0771 111.57 23.9185C111.616 23.8801 111.674 23.8602 111.734 23.8629C111.793 23.8656 111.849 23.8907 111.891 23.9331C111.933 23.9755 111.957 24.0321 111.959 24.0915C111.961 24.151 111.94 24.209 111.901 24.2539C111.598 24.5221 111.205 24.6656 110.8 24.6556Z" fill="#777777"/>
<path d="M120.841 15.7061C120.841 15.7061 118.058 15.0446 119.249 18.7538C119.485 19.4862 121.106 20.3415 121.106 20.3415C121.106 20.3415 120.974 21.5322 120.312 21.6645" fill="white"/>
<path d="M120.307 21.9008C120.253 21.8999 120.201 21.8808 120.159 21.8465C120.117 21.8122 120.087 21.7647 120.076 21.7118C120.07 21.681 120.07 21.6494 120.076 21.6187C120.082 21.5879 120.094 21.5587 120.112 21.5328C120.129 21.5068 120.152 21.4847 120.178 21.4675C120.204 21.4504 120.234 21.4387 120.265 21.433C120.605 21.3621 120.78 20.7998 120.846 20.488C120.411 20.2423 119.249 19.5429 119.027 18.8436C118.583 17.4639 118.62 16.481 119.135 15.9235C119.769 15.2383 120.846 15.4888 120.893 15.4982C120.954 15.5128 121.006 15.5508 121.039 15.6039C121.072 15.657 121.082 15.721 121.068 15.7817C121.061 15.8121 121.049 15.8408 121.031 15.8662C121.013 15.8915 120.99 15.913 120.963 15.9293C120.937 15.9456 120.907 15.9564 120.877 15.9611C120.846 15.9658 120.815 15.9642 120.784 15.9566C120.784 15.9566 119.924 15.7628 119.48 16.2448C119.036 16.7268 119.093 17.5111 119.48 18.6971C119.632 19.1697 120.629 19.8359 121.219 20.1478C121.26 20.1712 121.294 20.2059 121.315 20.2478C121.337 20.2897 121.346 20.337 121.342 20.384C121.342 20.5258 121.167 21.7543 120.359 21.915L120.307 21.9008Z" fill="#777777"/>
<path d="M118.852 24.3106C118.852 24.3106 116.868 24.7075 116.074 23.7814L118.852 24.3106Z" fill="white"/>
<path d="M117.902 24.6556C117.537 24.6846 117.17 24.6373 116.824 24.5169C116.479 24.3966 116.162 24.2056 115.894 23.9563C115.873 23.9327 115.858 23.9054 115.849 23.8759C115.839 23.8464 115.835 23.8153 115.838 23.7843C115.84 23.7534 115.849 23.7232 115.863 23.6956C115.877 23.6679 115.896 23.6433 115.92 23.6232C115.943 23.603 115.971 23.5877 116 23.5781C116.03 23.5684 116.061 23.5647 116.092 23.5672C116.122 23.5696 116.153 23.578 116.18 23.5921C116.208 23.6062 116.233 23.6256 116.253 23.6491C116.947 24.4619 118.79 24.1217 118.809 24.1217C118.839 24.1148 118.87 24.1142 118.901 24.1198C118.931 24.1255 118.96 24.1373 118.986 24.1546C119.012 24.1719 119.033 24.1942 119.05 24.2202C119.067 24.2462 119.078 24.2754 119.083 24.3059C119.089 24.3363 119.089 24.3677 119.084 24.3981C119.078 24.4286 119.066 24.4576 119.049 24.4835C119.032 24.5094 119.01 24.5317 118.984 24.549C118.958 24.5664 118.929 24.5785 118.899 24.5847C118.569 24.637 118.236 24.6607 117.902 24.6556Z" fill="#777777"/>
<path d="M115.941 18.0923C115.941 18.0923 114.486 17.5631 113.692 18.2246C113.267 18.5204 112.939 18.9344 112.747 19.4154" fill="white"/>
<path d="M112.766 19.6469H112.709C112.679 19.6391 112.651 19.6256 112.626 19.6069C112.601 19.5882 112.58 19.5648 112.564 19.5381C112.548 19.5113 112.538 19.4816 112.534 19.4509C112.529 19.4201 112.531 19.3887 112.539 19.3586C112.736 18.8319 113.085 18.375 113.541 18.045C114.429 17.3079 115.96 17.8513 116.021 17.8749C116.051 17.8849 116.078 17.9008 116.101 17.9216C116.125 17.9424 116.143 17.9677 116.157 17.9959C116.17 18.0242 116.177 18.0548 116.178 18.086C116.179 18.1172 116.174 18.1482 116.163 18.1773C116.142 18.2362 116.098 18.2842 116.041 18.3108C115.984 18.3374 115.92 18.3404 115.861 18.3191C115.861 18.3191 114.523 17.8466 113.843 18.4089C113.468 18.6806 113.176 19.05 112.997 19.4768C112.982 19.5262 112.951 19.5695 112.91 19.6001C112.868 19.6307 112.817 19.6471 112.766 19.6469Z" fill="#777777"/>
<path d="M115.904 20.3556C116.093 20.7951 116.055 21.2298 115.818 21.329C115.582 21.4282 115.242 21.1589 115.053 20.7195C114.864 20.28 114.907 19.85 115.143 19.7461C115.379 19.6421 115.719 19.9304 115.904 20.3556Z" fill="#777777"/>
<path d="M120.662 18.0403C120.851 18.475 120.808 18.9097 120.577 19.0137C120.345 19.1176 119.995 18.8388 119.811 18.4041C119.627 17.9694 119.66 17.53 119.896 17.4307C120.132 17.3315 120.473 17.6056 120.662 18.0403Z" fill="#777777"/>
<path d="M109.945 22.5056C109.945 22.5056 111.523 21.3574 111.235 20.3509C110.947 19.3445 110.375 19.3445 110.951 18.7727C111.528 18.201 111.953 17.908 111.811 17.0481C111.67 16.1881 109.369 14.7469 110.087 13.8869C110.805 13.027 110.517 11.9969 116.409 13.4522C122.301 14.9076 126.039 12.5923 124.314 10.4376C122.589 8.28292 121.153 7.99468 121.153 7.99468C121.153 7.99468 124.461 6.57714 121.73 5.11707C118.998 3.657 112.818 3.69952 109.369 6.41176C105.919 9.12399 106.637 11.4251 106.637 11.4251C106.637 11.4251 104.771 11.7134 104.624 14.591C104.478 17.4686 109.945 22.5056 109.945 22.5056Z" fill="#777777"/>
<path d="M119.348 12.8804C118.092 12.8277 116.855 12.5525 115.695 12.0677C114.786 11.6801 113.818 11.45 112.832 11.3873C110.55 11.3873 110.077 12.682 110.058 12.7387C110.052 12.7589 110.042 12.7775 110.028 12.7936C110.014 12.8096 109.997 12.8226 109.978 12.8319C109.959 12.8412 109.938 12.8465 109.917 12.8476C109.896 12.8486 109.875 12.8453 109.855 12.8379C109.835 12.8315 109.816 12.8211 109.8 12.8074C109.784 12.7937 109.77 12.7769 109.761 12.758C109.751 12.7391 109.745 12.7185 109.744 12.6973C109.742 12.6762 109.745 12.6549 109.751 12.6347C109.775 12.5733 110.304 11.0613 112.832 11.0613C113.856 11.1218 114.862 11.3601 115.804 11.7653C117.274 12.2898 118.8 12.8332 120.718 12.4079C121.758 12.1764 122.367 11.8031 122.519 11.307C122.717 10.6691 122.103 10.0028 122.098 9.99338C122.068 9.96327 122.051 9.92249 122.051 9.87998C122.051 9.83746 122.068 9.79668 122.098 9.76657C122.129 9.73734 122.171 9.7211 122.214 9.7211C122.257 9.7211 122.298 9.73734 122.33 9.76657C122.358 9.79965 123.076 10.5793 122.826 11.3967C122.632 12.0157 121.947 12.4599 120.784 12.7198C120.313 12.8241 119.831 12.878 119.348 12.8804Z" fill="white"/>
<path d="M108.806 12.4836C108.763 12.48 108.723 12.4597 108.695 12.427C108.667 12.3943 108.652 12.3519 108.655 12.3088C108.655 12.2757 108.934 9.15709 111.698 8.45777C113.328 8.04668 115.214 8.35382 116.73 8.59952C117.675 8.75545 118.521 8.89248 118.876 8.75545C118.914 8.74712 118.955 8.75309 118.99 8.77227C119.025 8.79145 119.052 8.82255 119.065 8.85988C119.079 8.89721 119.079 8.93825 119.065 8.97548C119.051 9.01271 119.024 9.04364 118.989 9.06259C118.554 9.22324 117.727 9.09094 116.678 8.92083C115.19 8.67513 113.338 8.37744 111.778 8.76963C109.236 9.41697 108.981 12.304 108.976 12.3324C108.975 12.3535 108.97 12.3742 108.961 12.3932C108.951 12.4122 108.939 12.4293 108.923 12.4433C108.907 12.4574 108.889 12.4681 108.869 12.4751C108.849 12.482 108.827 12.4849 108.806 12.4836Z" fill="white"/>
<path d="M106.978 17.3599C106.946 17.3593 106.915 17.3495 106.888 17.3315C106.464 16.9758 106.135 16.5199 105.931 16.0051C105.727 15.4903 105.655 14.9328 105.721 14.3831C105.853 12.304 107.45 12.2804 107.469 12.2804C107.508 12.2869 107.543 12.3069 107.568 12.3367C107.593 12.3666 107.607 12.4044 107.607 12.4434C107.607 12.4824 107.593 12.5202 107.568 12.55C107.543 12.5799 107.508 12.5998 107.469 12.6064C107.412 12.6064 106.156 12.6348 106.052 14.402C105.988 14.8964 106.048 15.3989 106.227 15.8642C106.406 16.3295 106.698 16.7429 107.077 17.0669C107.094 17.0787 107.109 17.0939 107.121 17.1116C107.132 17.1293 107.14 17.1492 107.143 17.1699C107.147 17.1907 107.146 17.2119 107.141 17.2324C107.136 17.2529 107.127 17.2721 107.115 17.289C107.1 17.3121 107.08 17.3308 107.056 17.3433C107.032 17.3557 107.005 17.3615 106.978 17.3599Z" fill="white"/>
<path d="M107.956 16.018C107.925 16.018 107.894 16.0091 107.868 15.9923C107.842 15.9756 107.822 15.9517 107.809 15.9235C107.693 15.7079 107.623 15.4699 107.606 15.2254C107.589 14.981 107.624 14.7357 107.71 14.5059C107.918 14.0556 108.29 13.701 108.749 13.5137C108.769 13.5053 108.79 13.501 108.811 13.501C108.832 13.5011 108.853 13.5054 108.873 13.5138C108.892 13.5222 108.91 13.5345 108.924 13.5499C108.939 13.5653 108.95 13.5835 108.957 13.6034C108.973 13.6429 108.972 13.6869 108.955 13.7259C108.938 13.7649 108.907 13.7956 108.868 13.8113C108.491 13.9707 108.186 14.2612 108.008 14.6288C107.941 14.8175 107.915 15.0182 107.931 15.2178C107.947 15.4173 108.005 15.6111 108.102 15.7865C108.12 15.826 108.121 15.8709 108.106 15.9116C108.091 15.9522 108.061 15.9853 108.022 16.0038C108.001 16.013 107.978 16.0179 107.956 16.018Z" fill="white"/>
<path d="M108.319 18.579C108.293 18.5785 108.268 18.5718 108.245 18.5595C108.222 18.5472 108.202 18.5296 108.187 18.5082L107.578 17.6576C107.553 17.6225 107.542 17.5789 107.55 17.5364C107.557 17.4939 107.58 17.4559 107.615 17.4308C107.651 17.4058 107.694 17.3957 107.737 17.4028C107.779 17.4098 107.817 17.4335 107.842 17.4686L108.452 18.3239C108.476 18.3585 108.485 18.4011 108.478 18.4427C108.471 18.4842 108.448 18.5213 108.414 18.546C108.387 18.5677 108.354 18.5795 108.319 18.579Z" fill="white"/>
</svg>
