<svg width="41" height="34" viewBox="0 0 41 34" fill="none" xmlns="http://www.w3.org/2000/svg">
<path d="M0.974121 10.7079C0.974121 4.79403 5.76824 6.10352e-05 11.682 6.10352e-05C14.3049 6.10352e-05 16.7058 0.944561 18.5666 2.51085C19.6851 3.4523 21.3155 3.4523 22.4339 2.51085C24.2946 0.944485 26.6955 6.10352e-05 29.3185 6.10352e-05C35.2323 6.10352e-05 40.0264 4.79403 40.0264 10.7079V10.393C40.0264 20.7775 27.3974 30.1434 22.4524 33.4128C21.8734 33.7958 21.1945 34 20.5002 34C19.806 34 19.1271 33.7958 18.548 33.4128C13.6031 30.1434 0.974121 20.7775 0.974121 10.393" fill="#FF6464"/>
<path d="M0.974121 10.7079C0.974121 10.6626 0.980376 10.6189 0.980909 10.5737C0.979994 10.5134 0.974121 10.4534 0.974121 10.3929V10.7079ZM9.73205 11.4113C9.73159 11.46 9.72724 11.5072 9.72724 11.5561V11.2162C9.72724 11.2814 9.73144 11.3461 9.73205 11.4113C9.77354 6.30961 11.9769 2.00509 15.0107 0.539104C13.962 0.195414 12.8459 0 11.682 0C5.81347 0 1.05352 4.72235 0.980909 10.5737C1.12652 20.8859 13.6319 30.1625 18.5481 33.4127C19.0526 33.7462 19.6212 33.9288 20.1989 33.9782C16.1423 29.4198 9.81885 20.815 9.73205 11.4113Z" fill="#D2555A"/>
<path d="M35.262 11.6598C36.6118 11.6598 37.7061 10.5655 37.7061 9.21567C37.7061 7.86582 36.6118 6.77155 35.262 6.77155C33.9121 6.77155 32.8179 7.86582 32.8179 9.21567C32.8179 10.5655 33.9121 11.6598 35.262 11.6598Z" fill="#FF8B8B"/>
<path d="M32.1277 6.08312C32.9714 6.08312 33.6553 5.39919 33.6553 4.55551C33.6553 3.71183 32.9714 3.02789 32.1277 3.02789C31.284 3.02789 30.6001 3.71183 30.6001 4.55551C30.6001 5.39919 31.284 6.08312 32.1277 6.08312Z" fill="#FFC1C1"/>
</svg>
