<svg width="135" height="61" viewBox="0 0 135 61" fill="none" xmlns="http://www.w3.org/2000/svg">
<path d="M17.3884 41.056C2.36259 40.0975 -2.10315 26.6833 0.865529 13.9307C3.32529 3.36222 12.8293 -0.696393 22.8932 0.758262C30.9001 1.91746 35.8366 6.42845 37.7026 14.2912C37.7394 14.4439 37.6786 14.5231 37.5203 14.5287L35.3404 14.6178C35.1679 14.6234 35.0619 14.5428 35.0223 14.376C33.3514 7.47455 28.8927 3.74109 21.6463 3.17562C16.2603 2.75153 9.97938 3.64637 6.44241 8.06122C2.49406 12.9977 2.30322 21.2294 3.59672 27.2728C5.74265 37.3239 14.5384 39.4317 23.4445 38.2273C29.7763 37.3706 33.4914 33.1975 34.9375 27.2644C34.9509 27.2077 34.9833 27.1573 35.0294 27.1211C35.0756 27.0849 35.1329 27.0652 35.192 27.065H37.5203C37.6503 27.065 37.7012 27.1287 37.673 27.2559C35.4676 37.5487 27.2444 41.6794 17.3884 41.056Z" fill="#DF1C26"/>
<path d="M43.5576 0.993892L41.0385 0.980702C40.9752 0.980371 40.9237 1.03137 40.9234 1.09461L40.9112 3.41863C40.9109 3.48187 40.9618 3.5334 41.0251 3.53373L43.5442 3.54692C43.6074 3.54726 43.659 3.49626 43.6593 3.43302L43.6715 1.109C43.6718 1.04576 43.6208 0.994223 43.5576 0.993892Z" fill="#1F1F1F"/>
<path d="M100.291 0.987244H97.8397C97.7273 0.987244 97.6361 1.07838 97.6361 1.1908V40.4368C97.6361 40.5492 97.7273 40.6404 97.8397 40.6404H100.291C100.403 40.6404 100.495 40.5492 100.495 40.4368V1.1908C100.495 1.07838 100.403 0.987244 100.291 0.987244Z" fill="#DF1C26"/>
<path d="M77.6017 40.9542C70.8289 40.263 66.0027 36.497 64.6413 29.7326C62.3215 18.2057 67.8475 8.46413 80.7188 8.99001C88.5392 9.30808 94.3112 13.0317 95.6937 21.3228C95.7164 21.4641 95.657 21.5362 95.5156 21.5391L93.1703 21.5899C93.0956 21.5907 93.0232 21.5643 92.9669 21.5158C92.9106 21.4674 92.8743 21.4002 92.865 21.327C91.7454 13.0147 84.5781 11.3607 77.5084 12.0223C70.8374 12.6457 67.6651 16.3778 67.0629 22.8962C66.4098 29.9532 68.4497 36.6751 76.3294 37.9898C83.9123 39.2536 91.3425 37.4215 92.9116 28.7487C92.9484 28.531 93.0785 28.4236 93.3018 28.4264L95.5156 28.4518C95.623 28.4518 95.6697 28.5056 95.6556 28.613C94.2433 38.3036 86.6223 41.8745 77.6017 40.9542Z" fill="#DF1C26"/>
<path d="M105.715 25.2542C105.749 31.2339 107.899 36.4546 114.316 37.8159C121.797 39.402 130.584 37.6802 131.64 28.5664C131.648 28.4943 131.683 28.4281 131.738 28.3814C131.794 28.3347 131.865 28.3114 131.937 28.3161L134.202 28.4603C134.352 28.4688 134.415 28.5466 134.393 28.6936C132.968 38.5114 125.075 41.8236 116.19 41.0094C110.198 40.458 105.656 37.0356 103.841 31.2933C101.919 25.2245 102.738 16.3184 108.23 12.1071C114.142 7.57352 125.376 7.8916 130.652 13.3413C133.727 16.5135 134.494 20.4746 134.728 24.8428C134.729 24.8694 134.726 24.8962 134.717 24.9213C134.708 24.9465 134.694 24.9695 134.675 24.989C134.657 25.0085 134.635 25.024 134.61 25.0346C134.586 25.0452 134.559 25.0506 134.533 25.0506H105.914C105.782 25.0506 105.715 25.1184 105.715 25.2542ZM105.881 22.506H131.717C131.718 22.506 131.719 22.5055 131.72 22.5048C131.72 22.504 131.721 22.5029 131.721 22.5017V22.4848C131.721 21.0852 131.428 19.6993 130.859 18.4063C130.29 17.1133 129.456 15.9384 128.404 14.9488C127.353 13.9591 126.105 13.1741 124.731 12.6385C123.357 12.1029 121.884 11.8272 120.397 11.8272H117.2C114.197 11.8272 111.316 12.9501 109.193 14.9488C107.069 16.9474 105.876 19.6582 105.876 22.4848V22.5017C105.876 22.5029 105.877 22.504 105.878 22.5048C105.878 22.5055 105.879 22.506 105.881 22.506Z" fill="#DF1C26"/>
<path d="M43.5552 9.47345H41.0276C40.9643 9.47345 40.9131 9.52472 40.9131 9.58796V40.5386C40.9131 40.6018 40.9643 40.6531 41.0276 40.6531H43.5552C43.6185 40.6531 43.6697 40.6018 43.6697 40.5386V9.58796C43.6697 9.52472 43.6185 9.47345 43.5552 9.47345Z" fill="#DF1C26"/>
<path d="M49.5477 14.7662C49.5486 14.7892 49.5566 14.8115 49.5705 14.83C49.5843 14.8485 49.6034 14.8622 49.625 14.8693C49.6466 14.8763 49.6696 14.8763 49.6907 14.8692C49.7119 14.8621 49.7301 14.8483 49.7428 14.8298C53.7123 9.39286 59.0347 9.48192 65.1672 9.56674C65.3086 9.56674 65.3821 9.63742 65.3877 9.77879L65.4471 11.8781C65.4499 12.0307 65.3764 12.1043 65.2266 12.0986C61.879 11.9629 59.5649 12.0406 58.2841 12.3319C51.9099 13.7696 49.8445 18.8757 49.6749 24.9742C49.5279 30.1171 49.4699 35.2642 49.501 40.4156C49.501 40.5626 49.4275 40.6361 49.2805 40.6361H47.0625C46.8504 40.6361 46.7444 40.5301 46.7444 40.3181V9.78303C46.7444 9.64449 46.8151 9.57381 46.9564 9.57098L49.2635 9.56674C49.4077 9.56674 49.4812 9.63884 49.4841 9.78303L49.5477 14.7662Z" fill="#DF1C26"/>
<path d="M7.76065 49.7618C7.92456 49.8789 8.01432 49.9882 8.02993 50.0896C8.05334 50.1911 8.01432 50.3121 7.91285 50.4526L5.16153 54.6322V57.3836C5.16153 57.485 5.14982 57.5787 5.12641 57.6645C5.10299 57.7426 5.05226 57.8011 4.97421 57.8402C4.90396 57.887 4.79079 57.9104 4.63468 57.9104C4.47858 57.9104 4.3615 57.887 4.28345 57.8402C4.2132 57.8011 4.16247 57.7387 4.13125 57.6528C4.10783 57.567 4.09613 57.4694 4.09613 57.3601V54.6205L1.3331 50.476C1.23944 50.3355 1.20431 50.2145 1.22773 50.1131C1.25114 50.0038 1.34481 49.8906 1.50871 49.7735C1.62579 49.6955 1.72336 49.6486 1.80141 49.633C1.88726 49.6096 1.96532 49.6213 2.03556 49.6682C2.10581 49.7072 2.17215 49.7813 2.23459 49.8906L4.62297 53.6371L7.02306 49.8906C7.09331 49.7813 7.15965 49.7072 7.22209 49.6682C7.29234 49.6291 7.37039 49.6174 7.45625 49.633C7.54211 49.6408 7.64357 49.6838 7.76065 49.7618Z" fill="black"/>
<path d="M10.2495 57.969C9.86701 57.969 9.50016 57.8948 9.14893 57.7465C8.80551 57.5982 8.4972 57.3953 8.22402 57.1377C7.95084 56.8723 7.7362 56.564 7.58009 56.2128C7.42399 55.8616 7.34594 55.4791 7.34594 55.0654C7.34594 54.6596 7.42009 54.2849 7.56839 53.9415C7.71669 53.5903 7.92352 53.2819 8.1889 53.0166C8.45427 52.7512 8.75867 52.5444 9.1021 52.3961C9.45333 52.24 9.82798 52.1619 10.226 52.1619C10.7646 52.1619 11.2485 52.2907 11.6778 52.5483C12.1149 52.798 12.4622 53.1415 12.7198 53.5785C12.9774 54.0156 13.1062 54.5074 13.1062 55.0537C13.1062 55.483 13.0281 55.8772 12.872 56.2362C12.7159 56.5874 12.5052 56.8918 12.2398 57.1494C11.9744 57.407 11.67 57.6099 11.3266 57.7582C10.9831 57.8987 10.6241 57.969 10.2495 57.969ZM10.226 56.9504C10.5539 56.9504 10.8583 56.8684 11.1392 56.7045C11.4202 56.5406 11.6466 56.3143 11.8183 56.0255C11.99 55.7367 12.0759 55.4089 12.0759 55.042C12.0759 54.6752 11.9939 54.3513 11.83 54.0703C11.6739 53.7893 11.4554 53.5707 11.1744 53.4146C10.8934 53.2585 10.5734 53.1805 10.2143 53.1805C9.87091 53.1805 9.5587 53.2624 9.27772 53.4263C9.00454 53.5903 8.78209 53.8127 8.61038 54.0937C8.44647 54.3747 8.36451 54.6947 8.36451 55.0537C8.36451 55.4284 8.45037 55.7601 8.62208 56.0489C8.7938 56.3299 9.02015 56.5523 9.30113 56.7162C9.58992 56.8723 9.89823 56.9504 10.226 56.9504Z" fill="black"/>
<path d="M16.4847 57.9104C16.1412 57.9104 15.8212 57.848 15.5246 57.7231C15.2358 57.5982 14.9822 57.4226 14.7636 57.1962C14.5451 56.9699 14.3734 56.6967 14.2485 56.3767C14.1314 56.0567 14.0729 55.6937 14.0729 55.2879V52.7473C14.0729 52.638 14.0846 52.5444 14.108 52.4663C14.1314 52.3883 14.1782 52.3297 14.2485 52.2907C14.3265 52.2439 14.4397 52.2204 14.588 52.2204C14.7363 52.2204 14.8456 52.2439 14.9158 52.2907C14.9939 52.3375 15.0446 52.4 15.068 52.478C15.0914 52.5561 15.1031 52.6497 15.1031 52.759V55.2996C15.1031 55.6196 15.1578 55.9045 15.2671 56.1543C15.3763 56.3962 15.5402 56.5835 15.7588 56.7162C15.9851 56.8489 16.2583 56.9153 16.5783 56.9153C16.9061 56.9153 17.1871 56.8489 17.4213 56.7162C17.6632 56.5835 17.8467 56.3962 17.9715 56.1543C18.1042 55.9045 18.1706 55.6196 18.1706 55.2996V52.7473C18.1706 52.638 18.1823 52.5444 18.2057 52.4663C18.2291 52.3883 18.2759 52.3297 18.3462 52.2907C18.4242 52.2439 18.5374 52.2204 18.6857 52.2204C18.834 52.2204 18.9433 52.2439 19.0135 52.2907C19.0916 52.3375 19.1384 52.4 19.154 52.478C19.1774 52.5561 19.1891 52.6497 19.1891 52.759V57.407C19.1891 57.5006 19.1774 57.5865 19.154 57.6645C19.1384 57.7348 19.0916 57.7894 19.0135 57.8285C18.9433 57.8675 18.834 57.887 18.6857 57.887C18.5764 57.887 18.4867 57.8753 18.4164 57.8519C18.354 57.8285 18.3072 57.7972 18.2759 57.7582C18.2447 57.7192 18.2213 57.6763 18.2057 57.6294C18.1979 57.5748 18.194 57.5202 18.194 57.4655L18.2408 56.9621C18.1628 57.0557 18.0691 57.1572 17.9598 57.2665C17.8506 57.3758 17.7218 57.4811 17.5735 57.5826C17.433 57.6763 17.273 57.7543 17.0935 57.8167C16.9139 57.8792 16.711 57.9104 16.4847 57.9104Z" fill="black"/>
<path d="M21.1089 57.8987C20.9606 57.8987 20.8474 57.8753 20.7693 57.8285C20.6991 57.7894 20.6522 57.7309 20.6288 57.6528C20.6132 57.567 20.6054 57.4694 20.6054 57.3601V52.7473C20.6054 52.6302 20.6171 52.5327 20.6405 52.4546C20.664 52.3765 20.7108 52.3219 20.781 52.2907C20.8513 52.2517 20.9645 52.2322 21.1206 52.2322C21.2611 52.2322 21.3664 52.2517 21.4367 52.2907C21.5147 52.3219 21.5655 52.3726 21.5889 52.4429C21.6201 52.5053 21.6357 52.5795 21.6357 52.6653L21.5889 53.0166C21.6435 52.9151 21.7059 52.8136 21.7762 52.7122C21.8542 52.6107 21.9479 52.5209 22.0572 52.4429C22.1743 52.357 22.3108 52.2868 22.467 52.2322C22.6309 52.1775 22.8299 52.1502 23.064 52.1502C23.1811 52.1502 23.2904 52.1619 23.3919 52.1853C23.5011 52.2009 23.6026 52.2283 23.6963 52.2673C23.7977 52.3063 23.8836 52.3531 23.9538 52.4078C24.0241 52.4546 24.0787 52.5092 24.1177 52.5717C24.1646 52.6263 24.188 52.6927 24.188 52.7707C24.188 52.9424 24.1334 53.0907 24.0241 53.2156C23.9148 53.3327 23.8016 53.3912 23.6846 53.3912C23.5831 53.3912 23.5089 53.3795 23.4621 53.3561C23.4153 53.3249 23.3684 53.2937 23.3216 53.2624C23.2826 53.2312 23.2241 53.2039 23.146 53.1805C23.0679 53.1493 22.9431 53.1337 22.7714 53.1337C22.6543 53.1337 22.5294 53.1571 22.3967 53.2039C22.2718 53.2507 22.1508 53.321 22.0338 53.4146C21.9167 53.5005 21.8191 53.6137 21.7411 53.7542C21.6708 53.8947 21.6357 54.0586 21.6357 54.2459V57.3836C21.6357 57.4928 21.624 57.5865 21.6006 57.6645C21.5772 57.7426 21.5264 57.8011 21.4484 57.8402C21.3781 57.8792 21.265 57.8987 21.1089 57.8987Z" fill="black"/>
<path d="M28.908 57.8987C28.7597 57.8987 28.6466 57.8753 28.5685 57.8285C28.4983 57.7894 28.4514 57.7309 28.428 57.6528C28.4046 57.567 28.3929 57.4694 28.3929 57.3601V50.2535C28.3929 50.1521 28.4046 50.0623 28.428 49.9843C28.4592 49.9062 28.5139 49.8438 28.5919 49.7969C28.67 49.7501 28.7793 49.7267 28.9197 49.7267H31.4837C31.8584 49.7267 32.2018 49.7852 32.514 49.9023C32.834 50.0116 33.1111 50.1833 33.3453 50.4175C33.5872 50.6438 33.7746 50.9209 33.9072 51.2487C34.0399 51.5765 34.1063 51.9551 34.1063 52.3844C34.1063 52.8058 34.0399 53.1805 33.9072 53.5083C33.7746 53.8361 33.5872 54.1132 33.3453 54.3395C33.1033 54.5581 32.8223 54.7259 32.5023 54.843C32.1901 54.9601 31.8467 55.0186 31.472 55.0186H29.4583V57.3719C29.4583 57.4811 29.4427 57.5748 29.4115 57.6528C29.3881 57.7309 29.3373 57.7894 29.2593 57.8285C29.189 57.8753 29.0719 57.8987 28.908 57.8987ZM29.4583 53.9532H31.4837C31.796 53.9532 32.0691 53.8947 32.3033 53.7776C32.5374 53.6527 32.7209 53.4732 32.8536 53.239C32.9862 52.9971 33.0526 52.7044 33.0526 52.3609C33.0526 52.0331 32.9901 51.7521 32.8653 51.518C32.7404 51.2838 32.557 51.1043 32.315 50.9794C32.0808 50.8545 31.7999 50.7921 31.472 50.7921H29.4583V53.9532Z" fill="black"/>
<path d="M37.9182 57.969C37.5357 57.969 37.1689 57.8948 36.8176 57.7465C36.4742 57.5982 36.1659 57.3953 35.8927 57.1377C35.6195 56.8723 35.4049 56.564 35.2488 56.2128C35.0927 55.8616 35.0146 55.4791 35.0146 55.0654C35.0146 54.6596 35.0888 54.2849 35.2371 53.9415C35.3854 53.5903 35.5922 53.2819 35.8576 53.0166C36.123 52.7512 36.4274 52.5444 36.7708 52.3961C37.122 52.24 37.4967 52.1619 37.8947 52.1619C38.4333 52.1619 38.9172 52.2907 39.3465 52.5483C39.7836 52.798 40.1309 53.1415 40.3885 53.5785C40.6461 54.0156 40.7748 54.5074 40.7748 55.0537C40.7748 55.483 40.6968 55.8772 40.5407 56.2362C40.3846 56.5874 40.1739 56.8918 39.9085 57.1494C39.6431 57.407 39.3387 57.6099 38.9953 57.7582C38.6518 57.8987 38.2928 57.969 37.9182 57.969ZM37.8947 56.9504C38.2226 56.9504 38.527 56.8684 38.8079 56.7045C39.0889 56.5406 39.3153 56.3143 39.487 56.0255C39.6587 55.7367 39.7446 55.4089 39.7446 55.042C39.7446 54.6752 39.6626 54.3513 39.4987 54.0703C39.3426 53.7893 39.1241 53.5707 38.8431 53.4146C38.5621 53.2585 38.2421 53.1805 37.883 53.1805C37.5396 53.1805 37.2274 53.2624 36.9464 53.4263C36.6732 53.5903 36.4508 53.8127 36.2791 54.0937C36.1152 54.3747 36.0332 54.6947 36.0332 55.0537C36.0332 55.4284 36.1191 55.7601 36.2908 56.0489C36.4625 56.3299 36.6888 56.5523 36.9698 56.7162C37.2586 56.8723 37.5669 56.9504 37.8947 56.9504Z" fill="black"/>
<path d="M44.5748 57.9221C44.169 57.9221 43.7865 57.8558 43.4275 57.7231C43.0762 57.5904 42.764 57.3992 42.4909 57.1494C42.2255 56.8996 42.0147 56.603 41.8586 56.2596C41.7103 55.9084 41.6362 55.5103 41.6362 55.0654C41.6362 54.6205 41.7103 54.2264 41.8586 53.8829C42.0147 53.5317 42.2255 53.2312 42.4909 52.9815C42.7562 52.7317 43.0645 52.5405 43.4158 52.4078C43.7748 52.2751 44.1534 52.2087 44.5514 52.2087C44.8168 52.2087 45.0783 52.2517 45.3358 52.3375C45.5934 52.4156 45.8198 52.5209 46.0149 52.6536C46.2178 52.7785 46.3622 52.9112 46.4481 53.0517C46.5261 53.1532 46.5808 53.239 46.612 53.3093C46.651 53.3717 46.6549 53.4459 46.6237 53.5317C46.5925 53.5942 46.5495 53.6527 46.4949 53.7073C46.4403 53.7542 46.3856 53.7932 46.331 53.8244C46.1905 53.9337 46.05 53.9493 45.9095 53.8712C45.8237 53.7854 45.7261 53.7073 45.6168 53.6371C45.5154 53.559 45.4061 53.4888 45.289 53.4263C45.1719 53.3639 45.0509 53.3171 44.9261 53.2859C44.809 53.2468 44.6841 53.2273 44.5514 53.2273C44.1846 53.2273 43.8607 53.3054 43.5797 53.4615C43.2987 53.6098 43.0801 53.8244 42.924 54.1054C42.7757 54.3786 42.7016 54.6986 42.7016 55.0654C42.7016 55.4323 42.7757 55.7523 42.924 56.0255C43.0801 56.2986 43.2948 56.5133 43.568 56.6694C43.849 56.8255 44.169 56.9035 44.528 56.9035C44.6919 56.9035 44.848 56.884 44.9963 56.845C45.1524 56.7982 45.2968 56.7396 45.4295 56.6694C45.5622 56.5913 45.6715 56.5094 45.7573 56.4235C45.8354 56.3689 45.9017 56.3221 45.9563 56.283C46.011 56.244 46.0773 56.2245 46.1554 56.2245C46.2178 56.2245 46.2842 56.2518 46.3544 56.3065C46.4247 56.3533 46.4988 56.4274 46.5769 56.5289C46.6393 56.5991 46.6744 56.6733 46.6822 56.7513C46.6978 56.8294 46.6861 56.9035 46.6471 56.9738C46.6081 57.044 46.5456 57.1143 46.4598 57.1845C46.3349 57.3094 46.1671 57.4304 45.9563 57.5475C45.7534 57.6567 45.531 57.7465 45.289 57.8167C45.0471 57.887 44.809 57.9221 44.5748 57.9221Z" fill="black"/>
<path d="M52.2061 56.9855C52.3544 57.1026 52.4324 57.2158 52.4402 57.325C52.4559 57.4343 52.4012 57.5631 52.2763 57.7114C52.1827 57.8207 52.0968 57.8909 52.0188 57.9221C51.9485 57.9611 51.8744 57.965 51.7963 57.9338C51.7183 57.9104 51.6285 57.8558 51.527 57.7699L48.8811 55.6157V57.3719C48.8811 57.4811 48.8655 57.5748 48.8343 57.6528C48.8108 57.7309 48.764 57.7894 48.6938 57.8285C48.6235 57.8753 48.5103 57.8987 48.3542 57.8987C48.2137 57.8987 48.1045 57.8753 48.0264 57.8285C47.9484 57.7894 47.8976 57.7309 47.8742 57.6528C47.8586 57.567 47.8508 57.4694 47.8508 57.3601V50.1365C47.8508 50.0272 47.8625 49.9335 47.8859 49.8555C47.9093 49.7774 47.9601 49.7189 48.0381 49.6799C48.1162 49.633 48.2255 49.6096 48.3659 49.6096C48.5221 49.6096 48.6352 49.633 48.7055 49.6799C48.7757 49.7189 48.8226 49.7813 48.846 49.8672C48.8694 49.9452 48.8811 50.0389 48.8811 50.1482V54.2927L50.8129 52.4429C50.8987 52.357 50.9807 52.2985 51.0587 52.2673C51.1446 52.2283 51.2265 52.2204 51.3046 52.2439C51.3904 52.2673 51.4763 52.3297 51.5622 52.4312C51.7027 52.5873 51.769 52.72 51.7612 52.8292C51.7612 52.9307 51.6909 53.0478 51.5505 53.1805L49.6538 54.9718L52.2061 56.9855Z" fill="black"/>
<path d="M55.8938 57.9572C55.4255 57.9572 55.008 57.8792 54.6411 57.7231C54.2743 57.567 53.9621 57.3562 53.7045 57.0909C53.4547 56.8177 53.2635 56.5055 53.1308 56.1543C52.9981 55.803 52.9318 55.4245 52.9318 55.0186C52.9318 54.48 53.0567 54 53.3064 53.5785C53.5562 53.1571 53.8996 52.8253 54.3367 52.5834C54.7816 52.3336 55.2889 52.2087 55.8587 52.2087C56.249 52.2087 56.5963 52.2712 56.9007 52.3961C57.2129 52.5131 57.4783 52.6731 57.6968 52.8761C57.9154 53.079 58.0832 53.3054 58.2003 53.5551C58.3173 53.8049 58.3759 54.0547 58.3759 54.3044C58.3759 54.7025 58.2822 54.9835 58.0949 55.1474C57.9076 55.3035 57.6773 55.3815 57.4041 55.3815H54.0206C54.0128 55.725 54.1026 56.0216 54.2899 56.2713C54.485 56.5133 54.727 56.7006 55.0158 56.8333C55.3124 56.966 55.609 57.0323 55.9056 57.0323C56.1241 57.0323 56.3114 57.0206 56.4675 56.9972C56.6236 56.9738 56.7602 56.9426 56.8773 56.9035C56.9944 56.8645 57.0958 56.8255 57.1817 56.7865C57.2676 56.7474 57.3417 56.7084 57.4041 56.6694C57.4744 56.6304 57.5407 56.603 57.6032 56.5874C57.6734 56.5718 57.7398 56.5796 57.8022 56.6109C57.8725 56.6343 57.9271 56.685 57.9661 56.7631C58.0129 56.8255 58.0442 56.884 58.0598 56.9387C58.0754 56.9933 58.0832 57.0518 58.0832 57.1143C58.0832 57.2236 57.9895 57.3445 57.8022 57.4772C57.6149 57.6099 57.3534 57.7231 57.0178 57.8167C56.69 57.9104 56.3153 57.9572 55.8938 57.9572ZM54.0206 54.6908H56.9593C57.1075 54.6908 57.2168 54.6713 57.2871 54.6322C57.3651 54.5932 57.4041 54.4878 57.4041 54.3161C57.4041 54.0976 57.3378 53.9025 57.2051 53.7307C57.0724 53.5512 56.889 53.4068 56.6549 53.2976C56.4285 53.1883 56.167 53.1337 55.8704 53.1337C55.527 53.1337 55.2109 53.2039 54.9221 53.3444C54.6411 53.4771 54.4187 53.6605 54.2548 53.8947C54.0909 54.1288 54.0128 54.3942 54.0206 54.6908Z" fill="black"/>
<path d="M62.1022 57.8987C61.7353 57.8987 61.4231 57.8636 61.1655 57.7933C60.9158 57.7231 60.7089 57.6138 60.545 57.4655C60.3811 57.3172 60.264 57.126 60.1938 56.8918C60.1235 56.6499 60.0884 56.3533 60.0884 56.002V50.8272C60.0884 50.718 60.1001 50.6243 60.1235 50.5462C60.147 50.4682 60.1938 50.4096 60.264 50.3706C60.3343 50.3238 60.4436 50.3004 60.5919 50.3004C60.7402 50.3004 60.8533 50.3238 60.9314 50.3706C61.0094 50.4096 61.0602 50.4682 61.0836 50.5462C61.107 50.6165 61.1187 50.7062 61.1187 50.8155V56.002C61.1187 56.205 61.1343 56.3689 61.1655 56.4938C61.2046 56.6109 61.2592 56.7006 61.3294 56.7631C61.4075 56.8255 61.509 56.8645 61.6338 56.8801C61.7587 56.8957 61.9109 56.9035 62.0905 56.9035C62.2153 56.9035 62.3168 56.9153 62.3949 56.9387C62.4729 56.9621 62.5314 57.0089 62.5705 57.0792C62.6095 57.1494 62.629 57.2548 62.629 57.3953C62.629 57.5436 62.6056 57.6567 62.5588 57.7348C62.5197 57.805 62.4573 57.848 62.3714 57.8636C62.2934 57.887 62.2036 57.8987 62.1022 57.8987ZM59.4796 52.3609L60.6036 52.3726L62.2309 52.3492C62.3402 52.3492 62.4339 52.3609 62.5119 52.3844C62.59 52.4 62.6485 52.4468 62.6875 52.5248C62.7344 52.5951 62.7578 52.7044 62.7578 52.8527C62.7578 53.001 62.7383 53.1141 62.6993 53.1922C62.6602 53.2624 62.6017 53.3093 62.5236 53.3327C62.4456 53.3561 62.3519 53.3678 62.2426 53.3678L60.6387 53.3444L59.4562 53.3561C59.2923 53.3561 59.1791 53.3171 59.1167 53.239C59.062 53.161 59.0347 53.0322 59.0347 52.8527C59.0347 52.681 59.0698 52.5561 59.1401 52.478C59.2103 52.4 59.3235 52.3609 59.4796 52.3609Z" fill="black"/>
<path d="M69.2425 58.0158C68.9459 58.0158 68.6649 57.9807 68.3996 57.9104C68.142 57.8402 67.9039 57.7465 67.6854 57.6294C67.4746 57.5045 67.2873 57.368 67.1234 57.2197C66.9595 57.0714 66.8307 56.9231 66.7371 56.7748C66.6512 56.6499 66.5966 56.5484 66.5731 56.4704C66.5497 56.3845 66.5536 56.3025 66.5849 56.2245C66.6239 56.1464 66.698 56.0606 66.8073 55.9669C66.9322 55.8733 67.0415 55.8303 67.1351 55.8381C67.2288 55.8381 67.3146 55.8733 67.3927 55.9435C67.4785 56.0138 67.5644 56.1074 67.6503 56.2245C67.8454 56.4899 68.0834 56.685 68.3644 56.8099C68.6454 56.927 68.9225 56.9855 69.1957 56.9855C69.5469 56.9855 69.8591 56.9387 70.1323 56.845C70.4055 56.7513 70.6201 56.6109 70.7762 56.4235C70.9401 56.2284 71.0221 55.9786 71.0221 55.6742C71.0221 55.4245 70.9596 55.2137 70.8348 55.042C70.7099 54.8703 70.5421 54.7259 70.3313 54.6088C70.1206 54.4839 69.8864 54.3786 69.6289 54.2927C69.3713 54.1991 69.1098 54.1093 68.8444 54.0234C68.6337 53.9532 68.4269 53.8751 68.2239 53.7893C68.021 53.6956 67.8298 53.5942 67.6503 53.4849C67.4707 53.3678 67.3107 53.2312 67.1702 53.0751C67.0375 52.919 66.9322 52.7356 66.8541 52.5248C66.7839 52.3141 66.7488 52.0682 66.7488 51.7873C66.7488 51.358 66.8502 50.9794 67.0532 50.6516C67.2639 50.3238 67.5566 50.0701 67.9312 49.8906C68.3059 49.7033 68.7391 49.6096 69.2308 49.6096C69.5196 49.6096 69.785 49.6369 70.0269 49.6916C70.2689 49.7462 70.4835 49.8204 70.6709 49.914C70.8582 49.9999 71.0182 50.0935 71.1509 50.195C71.2836 50.2887 71.385 50.3784 71.4553 50.4643C71.5958 50.6126 71.6738 50.7375 71.6894 50.8389C71.705 50.9404 71.6465 51.0653 71.5138 51.2136C71.3889 51.3541 71.268 51.4282 71.1509 51.436C71.0338 51.4438 70.905 51.3892 70.7645 51.2721C70.6162 51.1004 70.4601 50.9677 70.2962 50.8741C70.1401 50.7804 69.9723 50.718 69.7928 50.6867C69.6211 50.6477 69.4298 50.6282 69.2191 50.6282C69.0162 50.6282 68.8249 50.6555 68.6454 50.7101C68.4737 50.757 68.3215 50.8311 68.1888 50.9326C68.0639 51.0341 67.9664 51.1589 67.8961 51.3072C67.8259 51.4477 67.7907 51.6116 67.7907 51.799C67.7907 52.0097 67.8454 52.1892 67.9547 52.3375C68.0717 52.4858 68.2239 52.6146 68.4113 52.7239C68.5986 52.8253 68.8093 52.919 69.0435 53.0049C69.2776 53.0829 69.5235 53.161 69.7811 53.239C70.062 53.3249 70.3391 53.4302 70.6123 53.5551C70.8855 53.6722 71.1314 53.8205 71.3499 54C71.5685 54.1717 71.7441 54.3903 71.8768 54.6557C72.0094 54.921 72.0758 55.2489 72.0758 55.6391C72.0758 56.0294 71.9977 56.3728 71.8416 56.6694C71.6933 56.966 71.4865 57.2158 71.2211 57.4187C70.9557 57.6138 70.6513 57.7621 70.3079 57.8636C69.9723 57.965 69.6172 58.0158 69.2425 58.0158Z" fill="black"/>
<path d="M75.5379 57.9104C75.1945 57.9104 74.8745 57.848 74.5779 57.7231C74.2891 57.5982 74.0354 57.4226 73.8169 57.1962C73.5983 56.9699 73.4266 56.6967 73.3017 56.3767C73.1846 56.0567 73.1261 55.6937 73.1261 55.2879V52.7473C73.1261 52.638 73.1378 52.5444 73.1612 52.4663C73.1846 52.3883 73.2315 52.3297 73.3017 52.2907C73.3798 52.2439 73.4929 52.2204 73.6412 52.2204C73.7895 52.2204 73.8988 52.2439 73.9691 52.2907C74.0471 52.3375 74.0978 52.4 74.1213 52.478C74.1447 52.5561 74.1564 52.6497 74.1564 52.759V55.2996C74.1564 55.6196 74.211 55.9045 74.3203 56.1543C74.4296 56.3962 74.5935 56.5835 74.812 56.7162C75.0384 56.8489 75.3115 56.9153 75.6316 56.9153C75.9594 56.9153 76.2404 56.8489 76.4745 56.7162C76.7165 56.5835 76.8999 56.3962 77.0248 56.1543C77.1575 55.9045 77.2238 55.6196 77.2238 55.2996V52.7473C77.2238 52.638 77.2355 52.5444 77.2589 52.4663C77.2823 52.3883 77.3292 52.3297 77.3994 52.2907C77.4775 52.2439 77.5907 52.2204 77.739 52.2204C77.8873 52.2204 77.9965 52.2439 78.0668 52.2907C78.1448 52.3375 78.1917 52.4 78.2073 52.478C78.2307 52.5561 78.2424 52.6497 78.2424 52.759V57.407C78.2424 57.5006 78.2307 57.5865 78.2073 57.6645C78.1917 57.7348 78.1448 57.7894 78.0668 57.8285C77.9965 57.8675 77.8873 57.887 77.739 57.887C77.6297 57.887 77.5399 57.8753 77.4697 57.8519C77.4072 57.8285 77.3604 57.7972 77.3292 57.7582C77.298 57.7192 77.2745 57.6763 77.2589 57.6294C77.2511 57.5748 77.2472 57.5202 77.2472 57.4655L77.2941 56.9621C77.216 57.0557 77.1224 57.1572 77.0131 57.2665C76.9038 57.3758 76.775 57.4811 76.6267 57.5826C76.4862 57.6763 76.3262 57.7543 76.1467 57.8167C75.9672 57.8792 75.7642 57.9104 75.5379 57.9104Z" fill="black"/>
<path d="M82.5154 57.8519C82.1329 57.8519 81.7856 57.7816 81.4734 57.6411C81.1611 57.5006 80.8958 57.3055 80.6772 57.0557C80.4587 56.7982 80.287 56.4977 80.1621 56.1543C80.045 55.8108 79.9904 55.4323 79.9982 55.0186C79.9982 54.6127 80.0567 54.2381 80.1738 53.8947C80.2909 53.5512 80.4587 53.2546 80.6772 53.0049C80.9036 52.7473 81.169 52.5522 81.4734 52.4195C81.7856 52.279 82.1329 52.2087 82.5154 52.2087C82.8744 52.2087 83.21 52.279 83.5222 52.4195C83.8422 52.56 84.1193 52.759 84.3535 53.0166C84.5954 53.2663 84.7827 53.5668 84.9154 53.9181C85.0559 54.2693 85.1262 54.6479 85.1262 55.0537C85.1262 55.4596 85.0559 55.8342 84.9154 56.1777C84.7827 56.5211 84.5954 56.8177 84.3535 57.0675C84.1193 57.3172 83.8422 57.5123 83.5222 57.6528C83.21 57.7855 82.8744 57.8519 82.5154 57.8519ZM80.0801 60.2051C79.9318 60.2051 79.8187 60.1817 79.7406 60.1349C79.6704 60.0959 79.6196 60.0373 79.5884 59.9593C79.565 59.8812 79.5533 59.7876 79.5533 59.6783V52.759C79.5533 52.6497 79.565 52.5561 79.5884 52.478C79.6118 52.4 79.6587 52.3414 79.7289 52.3024C79.807 52.2556 79.9201 52.2322 80.0684 52.2322C80.2401 52.2322 80.365 52.2595 80.4431 52.3141C80.5289 52.3687 80.5797 52.4663 80.5953 52.6068V59.6666C80.6031 59.7758 80.5953 59.8695 80.5719 59.9476C80.5484 60.0334 80.4977 60.0959 80.4197 60.1349C80.3494 60.1817 80.2362 60.2051 80.0801 60.2051ZM82.3632 56.8918C82.691 56.8918 82.9876 56.8138 83.2529 56.6577C83.5183 56.4938 83.7252 56.2713 83.8735 55.9903C84.0296 55.7094 84.1076 55.3893 84.1076 55.0303C84.1076 54.6635 84.0296 54.3435 83.8735 54.0703C83.7252 53.7971 83.5183 53.5864 83.2529 53.4381C82.9954 53.2819 82.6988 53.2039 82.3632 53.2039C82.0353 53.2039 81.7387 53.2819 81.4734 53.4381C81.2158 53.5942 81.009 53.8088 80.8529 54.082C80.7046 54.3552 80.6304 54.6713 80.6304 55.0303C80.6304 55.3893 80.7046 55.7094 80.8529 55.9903C81.009 56.2713 81.2158 56.4938 81.4734 56.6577C81.7387 56.8138 82.0353 56.8918 82.3632 56.8918Z" fill="black"/>
<path d="M89.0391 57.9572C88.5708 57.9572 88.1532 57.8792 87.7864 57.7231C87.4195 57.567 87.1073 57.3562 86.8498 57.0909C86.6 56.8177 86.4088 56.5055 86.2761 56.1543C86.1434 55.803 86.0771 55.4245 86.0771 55.0186C86.0771 54.48 86.2019 54 86.4517 53.5785C86.7015 53.1571 87.0449 52.8253 87.482 52.5834C87.9269 52.3336 88.4342 52.2087 89.004 52.2087C89.3943 52.2087 89.7416 52.2712 90.046 52.3961C90.3582 52.5131 90.6236 52.6731 90.8421 52.8761C91.0607 53.079 91.2285 53.3054 91.3455 53.5551C91.4626 53.8049 91.5212 54.0547 91.5212 54.3044C91.5212 54.7025 91.4275 54.9835 91.2402 55.1474C91.0528 55.3035 90.8226 55.3815 90.5494 55.3815H87.1659C87.1581 55.725 87.2478 56.0216 87.4352 56.2713C87.6303 56.5133 87.8722 56.7006 88.161 56.8333C88.4576 56.966 88.7542 57.0323 89.0508 57.0323C89.2694 57.0323 89.4567 57.0206 89.6128 56.9972C89.7689 56.9738 89.9055 56.9426 90.0226 56.9035C90.1396 56.8645 90.2411 56.8255 90.327 56.7865C90.4128 56.7474 90.487 56.7084 90.5494 56.6694C90.6197 56.6304 90.686 56.603 90.7485 56.5874C90.8187 56.5718 90.885 56.5796 90.9475 56.6109C91.0177 56.6343 91.0724 56.685 91.1114 56.7631C91.1582 56.8255 91.1894 56.884 91.2051 56.9387C91.2207 56.9933 91.2285 57.0518 91.2285 57.1143C91.2285 57.2236 91.1348 57.3445 90.9475 57.4772C90.7602 57.6099 90.4987 57.7231 90.1631 57.8167C89.8352 57.9104 89.4606 57.9572 89.0391 57.9572ZM87.1659 54.6908H90.1045C90.2528 54.6908 90.3621 54.6713 90.4323 54.6322C90.5104 54.5932 90.5494 54.4878 90.5494 54.3161C90.5494 54.0976 90.4831 53.9025 90.3504 53.7307C90.2177 53.5512 90.0343 53.4068 89.8001 53.2976C89.5738 53.1883 89.3123 53.1337 89.0157 53.1337C88.6723 53.1337 88.3562 53.2039 88.0674 53.3444C87.7864 53.4771 87.5639 53.6605 87.4 53.8947C87.2361 54.1288 87.1581 54.3942 87.1659 54.6908Z" fill="black"/>
<path d="M93.2075 57.8987C93.0592 57.8987 92.9461 57.8753 92.868 57.8285C92.7978 57.7894 92.7509 57.7309 92.7275 57.6528C92.7119 57.567 92.7041 57.4694 92.7041 57.3601V52.7473C92.7041 52.6302 92.7158 52.5327 92.7392 52.4546C92.7626 52.3765 92.8095 52.3219 92.8797 52.2907C92.95 52.2517 93.0631 52.2322 93.2192 52.2322C93.3597 52.2322 93.4651 52.2517 93.5354 52.2907C93.6134 52.3219 93.6641 52.3726 93.6876 52.4429C93.7188 52.5053 93.7344 52.5795 93.7344 52.6653L93.6876 53.0166C93.7422 52.9151 93.8046 52.8136 93.8749 52.7122C93.9529 52.6107 94.0466 52.5209 94.1559 52.4429C94.2729 52.357 94.4095 52.2868 94.5656 52.2322C94.7295 52.1775 94.9286 52.1502 95.1627 52.1502C95.2798 52.1502 95.3891 52.1619 95.4905 52.1853C95.5998 52.2009 95.7013 52.2283 95.795 52.2673C95.8964 52.3063 95.9823 52.3531 96.0525 52.4078C96.1228 52.4546 96.1774 52.5092 96.2164 52.5717C96.2633 52.6263 96.2867 52.6927 96.2867 52.7707C96.2867 52.9424 96.232 53.0907 96.1228 53.2156C96.0135 53.3327 95.9003 53.3912 95.7832 53.3912C95.6818 53.3912 95.6076 53.3795 95.5608 53.3561C95.514 53.3249 95.4671 53.2937 95.4203 53.2624C95.3813 53.2312 95.3227 53.2039 95.2447 53.1805C95.1666 53.1493 95.0418 53.1337 94.87 53.1337C94.753 53.1337 94.6281 53.1571 94.4954 53.2039C94.3705 53.2507 94.2495 53.321 94.1325 53.4146C94.0154 53.5005 93.9178 53.6137 93.8398 53.7542C93.7695 53.8947 93.7344 54.0586 93.7344 54.2459V57.3836C93.7344 57.4928 93.7227 57.5865 93.6993 57.6645C93.6758 57.7426 93.6251 57.8011 93.5471 57.8402C93.4768 57.8792 93.3636 57.8987 93.2075 57.8987Z" fill="black"/>
<path d="M97.9521 57.8987C97.8038 57.8987 97.6945 57.8753 97.6243 57.8285C97.554 57.7816 97.5072 57.7192 97.4838 57.6411C97.4604 57.5631 97.4487 57.4694 97.4487 57.3601V52.7239C97.4487 52.6146 97.4604 52.5248 97.4838 52.4546C97.5072 52.3844 97.554 52.3297 97.6243 52.2907C97.7023 52.2517 97.8155 52.2322 97.9638 52.2322C98.1355 52.2322 98.2565 52.2673 98.3268 52.3375C98.4048 52.4 98.4438 52.5131 98.4438 52.677L98.397 53.1805C98.4516 53.0634 98.5336 52.9463 98.6429 52.8292C98.7521 52.7122 98.8809 52.6068 99.0292 52.5131C99.1853 52.4195 99.3492 52.3453 99.5209 52.2907C99.6927 52.2361 99.8683 52.2087 100.048 52.2087C100.321 52.2087 100.563 52.2595 100.774 52.3609C100.992 52.4546 101.187 52.5912 101.359 52.7707C101.531 52.9502 101.675 53.1727 101.792 53.4381C101.948 53.1805 102.112 52.9619 102.284 52.7824C102.463 52.5951 102.666 52.4546 102.893 52.3609C103.119 52.2595 103.373 52.2087 103.654 52.2087C104.099 52.2087 104.469 52.3219 104.766 52.5483C105.07 52.7668 105.297 53.079 105.445 53.4849C105.601 53.8829 105.679 54.363 105.679 54.9249V57.3719C105.679 57.4811 105.668 57.5748 105.644 57.6528C105.628 57.7309 105.582 57.7894 105.504 57.8285C105.433 57.8753 105.32 57.8987 105.164 57.8987C105.016 57.8987 104.903 57.8753 104.825 57.8285C104.754 57.7816 104.707 57.7192 104.684 57.6411C104.661 57.5631 104.649 57.4694 104.649 57.3601V54.9132C104.649 54.562 104.606 54.2615 104.52 54.0117C104.442 53.7542 104.317 53.5551 104.146 53.4146C103.982 53.2741 103.767 53.2039 103.502 53.2039C103.221 53.2039 102.971 53.2741 102.752 53.4146C102.542 53.5473 102.378 53.7425 102.261 54C102.143 54.2576 102.085 54.562 102.085 54.9132V57.3836C102.085 57.5006 102.062 57.6021 102.015 57.688C101.968 57.7738 101.898 57.8324 101.804 57.8636C101.71 57.9026 101.597 57.9104 101.464 57.887C101.34 57.8714 101.246 57.8402 101.183 57.7933C101.121 57.7465 101.082 57.688 101.066 57.6177C101.051 57.5397 101.043 57.4538 101.043 57.3601V54.9132C101.043 54.562 101 54.2615 100.914 54.0117C100.836 53.7542 100.711 53.5551 100.54 53.4146C100.376 53.2741 100.161 53.2039 99.8956 53.2039C99.6146 53.2039 99.3648 53.278 99.1463 53.4263C98.9356 53.5668 98.7717 53.7659 98.6546 54.0234C98.5375 54.281 98.479 54.5776 98.479 54.9132V57.3719C98.479 57.4811 98.4672 57.5748 98.4438 57.6528C98.4204 57.7309 98.3697 57.7894 98.2916 57.8285C98.2214 57.8753 98.1082 57.8987 97.9521 57.8987Z" fill="black"/>
<path d="M111.945 57.887C111.773 57.887 111.648 57.8519 111.57 57.7816C111.5 57.7114 111.457 57.6021 111.441 57.4538L111.488 56.8684C111.41 56.9933 111.289 57.1377 111.125 57.3016C110.961 57.4577 110.747 57.5982 110.481 57.7231C110.216 57.8402 109.892 57.8987 109.51 57.8987C109.135 57.8987 108.784 57.8246 108.456 57.6763C108.136 57.528 107.851 57.3211 107.601 57.0557C107.359 56.7904 107.168 56.486 107.028 56.1425C106.895 55.7991 106.829 55.4323 106.829 55.042C106.829 54.6596 106.895 54.3005 107.028 53.9649C107.168 53.6215 107.363 53.321 107.613 53.0634C107.863 52.8058 108.148 52.6029 108.468 52.4546C108.795 52.3063 109.143 52.2322 109.51 52.2322C109.853 52.2322 110.146 52.279 110.388 52.3726C110.63 52.4585 110.837 52.5756 111.008 52.7239C111.188 52.8644 111.344 53.0244 111.477 53.2039L111.453 52.7122C111.445 52.5405 111.48 52.4195 111.559 52.3492C111.644 52.2712 111.777 52.2322 111.957 52.2322C112.105 52.2322 112.21 52.2556 112.273 52.3024C112.343 52.3492 112.39 52.4156 112.413 52.5014C112.437 52.5873 112.448 52.6927 112.448 52.8175V57.3367C112.448 57.446 112.437 57.5436 112.413 57.6294C112.39 57.7153 112.343 57.7777 112.273 57.8167C112.202 57.8636 112.093 57.887 111.945 57.887ZM109.685 56.9153C109.997 56.9153 110.282 56.8333 110.54 56.6694C110.805 56.5055 111.012 56.2869 111.16 56.0138C111.317 55.7328 111.395 55.4128 111.395 55.0537C111.395 54.6869 111.313 54.3669 111.149 54.0937C110.993 53.8127 110.782 53.5942 110.517 53.4381C110.259 53.2741 109.974 53.1922 109.662 53.1922C109.295 53.1922 108.975 53.278 108.702 53.4498C108.436 53.6137 108.226 53.8361 108.07 54.1171C107.913 54.3981 107.835 54.7181 107.835 55.0771C107.835 55.4284 107.913 55.7445 108.07 56.0255C108.226 56.2986 108.44 56.5172 108.714 56.6811C108.995 56.8372 109.318 56.9153 109.685 56.9153Z" fill="black"/>
<path d="M114.359 57.8987C114.211 57.8987 114.098 57.8753 114.02 57.8285C113.949 57.7894 113.903 57.7309 113.879 57.6528C113.864 57.567 113.856 57.4694 113.856 57.3601V52.7473C113.856 52.6302 113.868 52.5327 113.891 52.4546C113.914 52.3765 113.961 52.3219 114.031 52.2907C114.102 52.2517 114.215 52.2322 114.371 52.2322C114.511 52.2322 114.617 52.2517 114.687 52.2907C114.765 52.3219 114.816 52.3726 114.839 52.4429C114.87 52.5053 114.886 52.5795 114.886 52.6653L114.839 53.0166C114.894 52.9151 114.956 52.8136 115.027 52.7122C115.105 52.6107 115.198 52.5209 115.308 52.4429C115.425 52.357 115.561 52.2868 115.717 52.2322C115.881 52.1775 116.08 52.1502 116.314 52.1502C116.432 52.1502 116.541 52.1619 116.642 52.1853C116.752 52.2009 116.853 52.2283 116.947 52.2673C117.048 52.3063 117.134 52.3531 117.204 52.4078C117.274 52.4546 117.329 52.5092 117.368 52.5717C117.415 52.6263 117.438 52.6927 117.438 52.7707C117.438 52.9424 117.384 53.0907 117.274 53.2156C117.165 53.3327 117.052 53.3912 116.935 53.3912C116.833 53.3912 116.759 53.3795 116.712 53.3561C116.666 53.3249 116.619 53.2937 116.572 53.2624C116.533 53.2312 116.474 53.2039 116.396 53.1805C116.318 53.1493 116.193 53.1337 116.022 53.1337C115.905 53.1337 115.78 53.1571 115.647 53.2039C115.522 53.2507 115.401 53.321 115.284 53.4146C115.167 53.5005 115.069 53.6137 114.991 53.7542C114.921 53.8947 114.886 54.0586 114.886 54.2459V57.3836C114.886 57.4928 114.874 57.5865 114.851 57.6645C114.828 57.7426 114.777 57.8011 114.699 57.8402C114.629 57.8792 114.515 57.8987 114.359 57.8987Z" fill="black"/>
<path d="M122.956 56.9855C123.104 57.1026 123.182 57.2158 123.19 57.325C123.205 57.4343 123.151 57.5631 123.026 57.7114C122.932 57.8207 122.846 57.8909 122.768 57.9221C122.698 57.9611 122.624 57.965 122.546 57.9338C122.468 57.9104 122.378 57.8558 122.277 57.7699L119.631 55.6157V57.3719C119.631 57.4811 119.615 57.5748 119.584 57.6528C119.56 57.7309 119.514 57.7894 119.443 57.8285C119.373 57.8753 119.26 57.8987 119.104 57.8987C118.963 57.8987 118.854 57.8753 118.776 57.8285C118.698 57.7894 118.647 57.7309 118.624 57.6528C118.608 57.567 118.6 57.4694 118.6 57.3601V50.1365C118.6 50.0272 118.612 49.9335 118.635 49.8555C118.659 49.7774 118.71 49.7189 118.788 49.6799C118.866 49.633 118.975 49.6096 119.116 49.6096C119.272 49.6096 119.385 49.633 119.455 49.6799C119.525 49.7189 119.572 49.7813 119.596 49.8672C119.619 49.9452 119.631 50.0389 119.631 50.1482V54.2927L121.562 52.4429C121.648 52.357 121.73 52.2985 121.808 52.2673C121.894 52.2283 121.976 52.2204 122.054 52.2439C122.14 52.2673 122.226 52.3297 122.312 52.4312C122.452 52.5873 122.519 52.72 122.511 52.8292C122.511 52.9307 122.44 53.0478 122.3 53.1805L120.403 54.9718L122.956 56.9855Z" fill="black"/>
<path d="M126.643 57.9572C126.175 57.9572 125.758 57.8792 125.391 57.7231C125.024 57.567 124.712 57.3562 124.454 57.0909C124.204 56.8177 124.013 56.5055 123.88 56.1543C123.748 55.803 123.681 55.4245 123.681 55.0186C123.681 54.48 123.806 54 124.056 53.5785C124.306 53.1571 124.649 52.8253 125.086 52.5834C125.531 52.3336 126.038 52.2087 126.608 52.2087C126.999 52.2087 127.346 52.2712 127.65 52.3961C127.962 52.5131 128.228 52.6731 128.446 52.8761C128.665 53.079 128.833 53.3054 128.95 53.5551C129.067 53.8049 129.125 54.0547 129.125 54.3044C129.125 54.7025 129.032 54.9835 128.844 55.1474C128.657 55.3035 128.427 55.3815 128.154 55.3815H124.77C124.762 55.725 124.852 56.0216 125.039 56.2713C125.235 56.5133 125.477 56.7006 125.765 56.8333C126.062 56.966 126.359 57.0323 126.655 57.0323C126.874 57.0323 127.061 57.0206 127.217 56.9972C127.373 56.9738 127.51 56.9426 127.627 56.9035C127.744 56.8645 127.845 56.8255 127.931 56.7865C128.017 56.7474 128.091 56.7084 128.154 56.6694C128.224 56.6304 128.29 56.603 128.353 56.5874C128.423 56.5718 128.489 56.5796 128.552 56.6109C128.622 56.6343 128.677 56.685 128.716 56.7631C128.762 56.8255 128.794 56.884 128.809 56.9387C128.825 56.9933 128.833 57.0518 128.833 57.1143C128.833 57.2236 128.739 57.3445 128.552 57.4772C128.364 57.6099 128.103 57.7231 127.767 57.8167C127.44 57.9104 127.065 57.9572 126.643 57.9572ZM124.77 54.6908H127.709C127.857 54.6908 127.966 54.6713 128.037 54.6322C128.115 54.5932 128.154 54.4878 128.154 54.3161C128.154 54.0976 128.087 53.9025 127.955 53.7307C127.822 53.5512 127.639 53.4068 127.404 53.2976C127.178 53.1883 126.917 53.1337 126.62 53.1337C126.277 53.1337 125.96 53.2039 125.672 53.3444C125.391 53.4771 125.168 53.6605 125.004 53.8947C124.84 54.1288 124.762 54.3942 124.77 54.6908Z" fill="black"/>
<path d="M132.852 57.8987C132.485 57.8987 132.173 57.8636 131.915 57.7933C131.665 57.7231 131.458 57.6138 131.295 57.4655C131.131 57.3172 131.014 57.126 130.943 56.8918C130.873 56.6499 130.838 56.3533 130.838 56.002V50.8272C130.838 50.718 130.85 50.6243 130.873 50.5462C130.897 50.4682 130.943 50.4096 131.014 50.3706C131.084 50.3238 131.193 50.3004 131.341 50.3004C131.49 50.3004 131.603 50.3238 131.681 50.3706C131.759 50.4096 131.81 50.4682 131.833 50.5462C131.857 50.6165 131.868 50.7062 131.868 50.8155V56.002C131.868 56.205 131.884 56.3689 131.915 56.4938C131.954 56.6109 132.009 56.7006 132.079 56.7631C132.157 56.8255 132.259 56.8645 132.383 56.8801C132.508 56.8957 132.66 56.9035 132.84 56.9035C132.965 56.9035 133.066 56.9153 133.144 56.9387C133.222 56.9621 133.281 57.0089 133.32 57.0792C133.359 57.1494 133.379 57.2548 133.379 57.3953C133.379 57.5436 133.355 57.6567 133.308 57.7348C133.269 57.805 133.207 57.848 133.121 57.8636C133.043 57.887 132.953 57.8987 132.852 57.8987ZM130.229 52.3609L131.353 52.3726L132.98 52.3492C133.09 52.3492 133.183 52.3609 133.261 52.3844C133.34 52.4 133.398 52.4468 133.437 52.5248C133.484 52.5951 133.507 52.7044 133.507 52.8527C133.507 53.001 133.488 53.1141 133.449 53.1922C133.41 53.2624 133.351 53.3093 133.273 53.3327C133.195 53.3561 133.101 53.3678 132.992 53.3678L131.388 53.3444L130.206 53.3561C130.042 53.3561 129.929 53.3171 129.866 53.239C129.812 53.161 129.784 53.0322 129.784 52.8527C129.784 52.681 129.819 52.5561 129.89 52.478C129.96 52.4 130.073 52.3609 130.229 52.3609Z" fill="black"/>
</svg>
