<svg width="127" height="128" viewBox="0 0 127 128" fill="none" xmlns="http://www.w3.org/2000/svg">
<rect x="0.767857" y="1.26786" width="125.464" height="125.464" rx="16.7321" fill="white"/>
<rect x="0.767857" y="1.26786" width="125.464" height="125.464" rx="16.7321" stroke="#EEEEEE" stroke-width="1.46429"/>
<g clip-path="url(#clip0_1_1025)">
<path d="M110.286 97.7144C103.826 97.7144 98.5713 102.969 98.5713 109.429C98.5713 115.888 103.826 121.143 110.286 121.143C116.745 121.143 122 115.888 122 109.429C122 102.969 116.745 97.7144 110.286 97.7144Z" fill="#DF1C26"/>
<path d="M115.41 110.405H111.262V114.554C111.262 115.092 110.824 115.53 110.285 115.53C109.747 115.53 109.309 115.092 109.309 114.554V110.405H105.16C104.622 110.405 104.184 109.967 104.184 109.429C104.184 108.89 104.622 108.452 105.16 108.452H109.309V104.304C109.309 103.765 109.747 103.327 110.285 103.327C110.824 103.327 111.262 103.765 111.262 104.304V108.452H115.41C115.949 108.452 116.387 108.89 116.387 109.429C116.387 109.967 115.949 110.405 115.41 110.405Z" fill="#EEEEEE"/>
</g>
<path d="M61.508 45.6272C63.0344 44.2952 64.6654 44.4272 66.4008 46.0233C66.5052 46.1191 66.6286 46.1669 66.7708 46.1669C75.7118 46.1727 84.6557 46.1742 93.6026 46.1713C95.8879 46.1713 96.4842 50.0846 93.2717 50.089C84.4903 50.0919 75.7089 50.0919 66.9275 50.089C66.7795 50.089 66.6576 50.1441 66.5618 50.2544C63.1143 54.3419 57.7035 48.9529 61.508 45.6272Z" fill="#EEEEEE"/>
<path d="M31.568 50.977C31.2851 49.1836 31.8553 47.8167 33.8359 47.8124C41.7497 47.7979 49.662 47.7964 57.5728 47.808C57.7208 47.808 57.7933 47.8835 57.7904 48.0344C57.7701 49.288 58.1111 50.43 58.8134 51.4602C58.9324 51.6343 58.8859 51.7214 58.6741 51.7214H36.1343C35.8847 51.7214 35.7788 51.8447 35.8165 52.0914C37.0586 60.3417 38.289 68.6356 39.5079 76.973C39.7778 78.8361 41.2883 79.3541 43.073 79.3541C56.7588 79.3657 70.446 79.3672 84.1347 79.3585C85.828 79.3585 86.716 78.0961 86.9642 76.4507C88.1482 68.5805 89.3278 60.7117 90.5031 52.8444C90.5264 52.6877 90.6163 52.6079 90.773 52.605L94.3729 52.5615C94.4745 52.5586 94.518 52.6065 94.5035 52.7051C93.3137 60.674 92.1268 68.6458 90.9428 76.6205C90.1984 81.6351 87.517 83.2762 82.6503 83.2762C70.0354 83.282 57.4219 83.2834 44.8098 83.2805C38.5589 83.2805 36.2388 81.9398 35.3377 75.8195C34.116 67.5343 32.8594 59.2535 31.568 50.977Z" fill="#EEEEEE"/>
<path d="M53.9511 61.9377H53.8118C52.7709 61.9377 51.927 62.7816 51.927 63.8226V72.5547C51.927 73.5957 52.7709 74.4395 53.8118 74.4395H53.9511C54.9921 74.4395 55.836 73.5957 55.836 72.5547V63.8226C55.836 62.7816 54.9921 61.9377 53.9511 61.9377Z" fill="#EEEEEE"/>
<path d="M63.632 61.9377H63.4927C62.4518 61.9377 61.6079 62.7816 61.6079 63.8226V72.5547C61.6079 73.5957 62.4518 74.4395 63.4927 74.4395H63.632C64.673 74.4395 65.5169 73.5957 65.5169 72.5547V63.8226C65.5169 62.7816 64.673 61.9377 63.632 61.9377Z" fill="#EEEEEE"/>
<path d="M73.3132 61.9292H73.1827C72.1393 61.9292 71.2935 62.775 71.2935 63.8184V72.5505C71.2935 73.5939 72.1393 74.4397 73.1827 74.4397H73.3132C74.3566 74.4397 75.2024 73.5939 75.2024 72.5505V63.8184C75.2024 62.775 74.3566 61.9292 73.3132 61.9292Z" fill="#EEEEEE"/>
<defs>
<clipPath id="clip0_1_1025">
<rect width="23.4286" height="23.4286" fill="white" transform="translate(98.5713 97.7144)"/>
</clipPath>
</defs>
</svg>
