<svg width="63" height="55" viewBox="0 0 63 55" fill="none" xmlns="http://www.w3.org/2000/svg">
<path d="M37.9392 1.50866C39.9125 1.55172 41 2.71738 41.2016 5.00562C41.2139 5.14314 41.2713 5.25857 41.3737 5.35191C47.8067 11.2253 54.2448 17.0974 60.6877 22.9683C62.333 24.4685 60.1935 27.6773 57.8779 25.5716C51.554 19.8093 45.232 14.0449 38.9119 8.27836C38.8054 8.18121 38.6814 8.1409 38.5401 8.15742C33.375 8.83699 33.0171 1.4055 37.9392 1.50866Z" fill="#1F1F1F"/>
<path d="M0.25377 23.0977C-0.0218931 21.3504 0.533684 20.0187 2.46333 20.0145C10.1734 20.0003 17.8821 19.9989 25.5894 20.0102C25.7336 20.0102 25.8042 20.0837 25.8014 20.2308C25.7816 21.4522 26.1138 22.5647 26.798 23.5684C26.914 23.738 26.8687 23.8229 26.6623 23.8229H4.70256C4.45941 23.8229 4.35621 23.943 4.39297 24.1833C5.60306 32.2214 6.80185 40.3019 7.98932 48.4248C8.25226 50.2399 9.72388 50.7446 11.4627 50.7446C24.7963 50.7559 38.1313 50.7573 51.4678 50.7488C53.1175 50.7488 53.9827 49.5189 54.2244 47.9158C55.378 40.2482 56.5273 32.5819 57.6724 24.917C57.695 24.7644 57.7826 24.6866 57.9353 24.6838L61.4426 24.6414C61.5415 24.6385 61.5839 24.6852 61.5698 24.7813C60.4106 32.5451 59.2542 40.3118 58.1007 48.0812C57.3755 52.9668 54.763 54.5657 50.0216 54.5657C37.7313 54.5714 25.4423 54.5728 13.1548 54.5699C7.06478 54.5699 4.80434 53.2637 3.92646 47.3009C2.73616 39.2289 1.51193 31.1612 0.25377 23.0977Z" fill="#1F1F1F"/>
</svg>
