<svg width="135" height="120" viewBox="0 0 135 120" fill="none" xmlns="http://www.w3.org/2000/svg">
<path d="M65.5592 0.885523C67.0464 -0.412216 68.6354 -0.283571 70.3261 1.27145C70.4279 1.36475 70.548 1.41141 70.6866 1.41141C79.3975 1.41706 88.1113 1.41847 96.8279 1.41564C99.0545 1.41564 99.6355 5.22828 96.5056 5.23252C87.9502 5.23535 79.3947 5.23535 70.8392 5.23252C70.695 5.23252 70.5763 5.28624 70.483 5.39368C67.1241 9.37596 61.8526 4.12563 65.5592 0.885523Z" fill="#242021"/>
<path d="M36.3898 6.09765C36.1141 4.35037 36.6697 3.01871 38.5993 3.01447C46.3094 3.00033 54.0181 2.99891 61.7254 3.01022C61.8695 3.01022 61.9402 3.08374 61.9374 3.23076C61.9176 4.45216 62.2498 5.5647 62.934 6.5684C63.0499 6.73804 63.0047 6.82286 62.7983 6.82286H40.8385C40.5954 6.82286 40.4922 6.94303 40.529 7.18335C41.739 15.2214 42.9378 23.3019 44.1253 31.4248C44.3882 33.2399 45.8599 33.7446 47.5987 33.7446C60.9323 33.7559 74.2673 33.7573 87.6038 33.7488C89.2535 33.7488 90.1187 32.5189 90.3604 30.9158C91.514 23.2482 92.6633 15.5819 93.8083 7.91704C93.831 7.76436 93.9186 7.68661 94.0713 7.68378L97.5786 7.64137C97.6775 7.63854 97.7199 7.68519 97.7058 7.78132C96.5466 15.5451 95.3902 23.3118 94.2367 31.0812C93.5115 35.9668 90.899 37.5657 86.1576 37.5657C73.8673 37.5714 61.5783 37.5728 49.2908 37.5699C43.2008 37.5699 40.9403 36.2637 40.0624 30.3009C38.8721 22.2289 37.6479 14.1612 36.3898 6.09765Z" fill="#242021"/>
<path d="M58.1969 16.7764H58.0612C57.047 16.7764 56.2249 17.5985 56.2249 18.6127V27.1201C56.2249 28.1343 57.047 28.9564 58.0612 28.9564H58.1969C59.2111 28.9564 60.0332 28.1343 60.0332 27.1201V18.6127C60.0332 17.5985 59.2111 16.7764 58.1969 16.7764Z" fill="#242021"/>
<path d="M67.6288 16.7764H67.4931C66.4789 16.7764 65.6567 17.5985 65.6567 18.6127V27.1201C65.6567 28.1343 66.4789 28.9564 67.4931 28.9564H67.6288C68.643 28.9564 69.4651 28.1343 69.4651 27.1201V18.6127C69.4651 17.5985 68.643 16.7764 67.6288 16.7764Z" fill="#242021"/>
<path d="M77.0608 16.7681H76.9336C75.9171 16.7681 75.093 17.5921 75.093 18.6086V27.1161C75.093 28.1326 75.9171 28.9566 76.9336 28.9566H77.0608C78.0774 28.9566 78.9014 28.1326 78.9014 27.1161V18.6086C78.9014 17.5921 78.0774 16.7681 77.0608 16.7681Z" fill="#242021"/>
<path d="M17.5245 101.056C2.4987 100.098 -1.96705 86.6833 1.00164 73.9307C3.4614 63.3622 12.9654 59.3036 23.0293 60.7583C31.0362 61.9175 35.9727 66.4284 37.8387 74.2912C37.8755 74.4439 37.8147 74.5231 37.6564 74.5287L35.4765 74.6178C35.3041 74.6234 35.198 74.5428 35.1584 74.376C33.4875 67.4745 29.0288 63.7411 21.7824 63.1756C16.3964 62.7515 10.1155 63.6464 6.57852 68.0612C2.63017 72.9977 2.43933 81.2294 3.73283 87.2728C5.87876 97.3239 14.6745 99.4317 23.5806 98.2273C29.9124 97.3706 33.6275 93.1975 35.0736 87.2644C35.087 87.2077 35.1194 87.1573 35.1656 87.1211C35.2117 87.0849 35.269 87.0652 35.3281 87.065H37.6564C37.7864 87.065 37.8373 87.1287 37.8091 87.2559C35.6038 97.5487 27.3805 101.679 17.5245 101.056Z" fill="#DF1C26"/>
<path d="M43.6937 60.9938L41.1746 60.9806C41.1113 60.9802 41.0598 61.0312 41.0595 61.0945L41.0473 63.4185C41.047 63.4817 41.098 63.5333 41.1612 63.5336L43.6803 63.5468C43.7435 63.5471 43.7951 63.4961 43.7954 63.4329L43.8076 61.1089C43.8079 61.0456 43.7569 60.9941 43.6937 60.9938Z" fill="#242021"/>
<path d="M100.427 60.9873H97.9758C97.8634 60.9873 97.7722 61.0784 97.7722 61.1909V100.437C97.7722 100.549 97.8634 100.64 97.9758 100.64H100.427C100.539 100.64 100.631 100.549 100.631 100.437V61.1909C100.631 61.0784 100.539 60.9873 100.427 60.9873Z" fill="#DF1C26"/>
<path d="M77.738 100.954C70.9651 100.263 66.1389 96.497 64.7775 89.7327C62.4577 78.2057 67.9837 68.4642 80.8551 68.9901C88.6754 69.3081 94.4474 73.0317 95.83 81.3228C95.8526 81.4642 95.7932 81.5363 95.6518 81.5391L93.3066 81.59C93.2318 81.5907 93.1594 81.5644 93.1031 81.5159C93.0468 81.4674 93.0106 81.4002 93.0012 81.3271C91.8816 73.0148 84.7144 71.3608 77.6447 72.0224C70.9736 72.6458 67.8014 76.3779 67.1991 82.8962C66.546 89.9532 68.5859 96.6752 76.4657 97.9899C84.0485 99.2537 91.4787 97.4216 93.0479 88.7488C93.0846 88.5311 93.2147 88.4236 93.438 88.4265L95.6518 88.4519C95.7593 88.4519 95.8059 88.5056 95.7918 88.6131C94.3795 98.3037 86.7585 101.875 77.738 100.954Z" fill="#DF1C26"/>
<path d="M105.851 85.2541C105.885 91.2339 108.035 96.4545 114.452 97.8159C121.933 99.402 130.72 97.6801 131.776 88.5663C131.784 88.4943 131.819 88.428 131.874 88.3813C131.93 88.3347 132.001 88.3113 132.073 88.3161L134.338 88.4603C134.488 88.4687 134.551 88.5465 134.529 88.6935C133.104 98.5114 125.211 101.824 116.327 101.009C110.334 100.458 105.792 97.0355 103.977 91.2932C102.056 85.2244 102.874 76.3184 108.366 72.1071C114.278 67.5735 125.513 67.8915 130.788 73.3412C133.863 76.5134 134.631 80.4745 134.864 84.8427C134.866 84.8694 134.862 84.8961 134.853 84.9213C134.844 84.9464 134.83 84.9695 134.811 84.989C134.793 85.0084 134.771 85.024 134.747 85.0345C134.722 85.0451 134.696 85.0506 134.669 85.0505H106.051C105.918 85.0505 105.851 85.1184 105.851 85.2541ZM106.017 82.5059H131.853C131.854 82.5059 131.855 82.5055 131.856 82.5047C131.857 82.5039 131.857 82.5028 131.857 82.5017V82.4847C131.857 81.0852 131.564 79.6993 130.995 78.4062C130.426 77.1132 129.592 75.9383 128.54 74.9487C127.489 73.959 126.241 73.174 124.867 72.6384C123.493 72.1028 122.021 71.8272 120.534 71.8272H117.336C114.333 71.8272 111.453 72.95 109.329 74.9487C107.206 76.9474 106.013 79.6582 106.013 82.4847V82.5017C106.013 82.5028 106.013 82.5039 106.014 82.5047C106.015 82.5055 106.016 82.5059 106.017 82.5059Z" fill="#DF1C26"/>
<path d="M43.6912 69.4734H41.1636C41.1003 69.4734 41.0491 69.5247 41.0491 69.5879V100.539C41.0491 100.602 41.1003 100.653 41.1636 100.653H43.6912C43.7544 100.653 43.8057 100.602 43.8057 100.539V69.5879C43.8057 69.5247 43.7544 69.4734 43.6912 69.4734Z" fill="#DF1C26"/>
<path d="M49.6839 74.7663C49.6848 74.7893 49.6928 74.8116 49.7067 74.8301C49.7206 74.8486 49.7397 74.8624 49.7613 74.8694C49.7828 74.8765 49.8058 74.8764 49.827 74.8693C49.8481 74.8622 49.8663 74.8485 49.879 74.8299C53.8485 69.393 59.171 69.482 65.3034 69.5669C65.4448 69.5669 65.5183 69.6375 65.5239 69.7789L65.5833 71.8782C65.5861 72.0309 65.5126 72.1044 65.3628 72.0987C62.0152 71.963 59.7011 72.0408 58.4203 72.332C52.0461 73.7697 49.9808 78.8758 49.8111 84.9743C49.6641 90.1172 49.6061 95.2644 49.6372 100.416C49.6372 100.563 49.5637 100.636 49.4167 100.636H47.1987C46.9866 100.636 46.8806 100.53 46.8806 100.318V69.7832C46.8806 69.6446 46.9513 69.5739 47.0927 69.5711L49.3998 69.5669C49.5439 69.5669 49.6175 69.639 49.6203 69.7832L49.6839 74.7663Z" fill="#DF1C26"/>
<path d="M2.04418 110.129L4.04953 113.319L6.05487 110.129H7.28094L4.57944 114.493V117.714H3.50923V114.483L0.818115 110.129H2.04418Z" fill="#242021"/>
<path d="M8.68819 112.779C9.2562 112.211 9.94543 111.927 10.7559 111.927C11.5594 111.927 12.2486 112.214 12.8236 112.789C13.3985 113.357 13.686 114.043 13.686 114.846C13.686 115.657 13.3985 116.353 12.8236 116.935C12.2486 117.51 11.5594 117.797 10.7559 117.797C9.94543 117.797 9.25273 117.51 8.6778 116.935C8.10979 116.353 7.82578 115.657 7.82578 114.846C7.82578 114.043 8.11325 113.354 8.68819 112.779ZM8.85443 114.846C8.85443 115.38 9.04146 115.83 9.41551 116.197C9.78264 116.571 10.2294 116.758 10.7559 116.758C11.2823 116.758 11.7291 116.571 12.0962 116.197C12.4703 115.823 12.6573 115.373 12.6573 114.846C12.6573 114.327 12.4703 113.884 12.0962 113.516C11.7291 113.142 11.2823 112.955 10.7559 112.955C10.2294 112.955 9.77918 113.142 9.40512 113.516C9.038 113.884 8.85443 114.327 8.85443 114.846Z" fill="#242021"/>
<path d="M14.7105 111.999H15.7287V114.898C15.7287 115.522 15.8742 115.993 16.1651 116.311C16.4561 116.63 16.8267 116.789 17.2769 116.789C17.7202 116.789 18.0874 116.63 18.3783 116.311C18.6761 115.993 18.8251 115.522 18.8251 114.898V111.999H19.8329V117.714H18.8978L18.8459 116.696C18.6796 117.021 18.4406 117.288 18.1289 117.496C17.8172 117.697 17.457 117.797 17.0483 117.797C16.3487 117.797 15.7841 117.551 15.3547 117.06C14.9252 116.568 14.7105 115.847 14.7105 114.898V111.999Z" fill="#242021"/>
<path d="M21.319 111.999H22.2541L22.3165 112.935C22.4827 112.623 22.7182 112.384 23.023 112.218C23.3347 112.051 23.688 111.968 24.0829 111.968C24.1036 111.968 24.1209 111.968 24.1348 111.968C24.2803 111.968 24.4223 111.979 24.5608 111.999L24.353 112.976C24.2699 112.962 24.2041 112.955 24.1556 112.955C23.6222 112.955 23.1824 113.125 22.836 113.464C22.4966 113.804 22.3269 114.341 22.3269 115.075V117.714H21.319V111.999Z" fill="#242021"/>
<path d="M31.3836 110.129C32.1386 110.129 32.7516 110.358 33.2227 110.815C33.7006 111.272 33.9396 111.837 33.9396 112.509C33.9396 113.18 33.7006 113.748 33.2227 114.213C32.7516 114.67 32.1386 114.898 31.3836 114.898H29.5756V117.714H28.5054V110.129H31.3836ZM31.3628 113.849C31.8061 113.849 32.1628 113.721 32.433 113.464C32.7031 113.201 32.8382 112.883 32.8382 112.509C32.8382 112.141 32.7031 111.83 32.433 111.573C32.1628 111.31 31.8061 111.179 31.3628 111.179H29.5756V113.849H31.3628Z" fill="#242021"/>
<path d="M34.9129 111.999H35.9311V114.898C35.9311 115.522 36.0766 115.993 36.3675 116.311C36.6585 116.63 37.0291 116.789 37.4793 116.789C37.9226 116.789 38.2898 116.63 38.5807 116.311C38.8786 115.993 39.0275 115.522 39.0275 114.898V111.999H40.0354V117.714H39.1002L39.0483 116.696C38.882 117.021 38.643 117.288 38.3313 117.496C38.0196 117.697 37.6594 117.797 37.2507 117.797C36.5511 117.797 35.9866 117.551 35.5571 117.06C35.1276 116.568 34.9129 115.847 34.9129 114.898V111.999Z" fill="#242021"/>
<path d="M42.0409 112.779C42.6089 112.211 43.2982 111.927 44.1086 111.927C44.5935 111.927 45.0438 112.038 45.4594 112.259C45.8819 112.481 46.2317 112.782 46.5088 113.163L45.6672 113.724C45.2793 113.212 44.7598 112.955 44.1086 112.955C43.5822 112.955 43.1319 113.142 42.7579 113.516C42.3908 113.884 42.2072 114.327 42.2072 114.846C42.2072 115.38 42.3908 115.833 42.7579 116.208C43.1319 116.575 43.5822 116.758 44.1086 116.758C44.4342 116.758 44.7355 116.685 45.0126 116.54C45.2897 116.395 45.5148 116.194 45.688 115.937L46.5296 116.498C46.2664 116.893 45.92 117.208 45.4906 117.444C45.0611 117.679 44.6004 117.797 44.1086 117.797C43.2982 117.797 42.6055 117.51 42.0306 116.935C41.4625 116.353 41.1785 115.657 41.1785 114.846C41.1785 114.043 41.466 113.354 42.0409 112.779Z" fill="#242021"/>
<path d="M47.6603 117.714V109.61H48.6266V114.555L51.1826 111.999H52.3879L50.2059 114.275L52.6788 117.714H51.4839L49.5513 115.033L48.6266 115.927V117.714H47.6603Z" fill="#242021"/>
<path d="M54.1662 112.779C54.7342 112.211 55.4165 111.927 56.2131 111.927C57.0374 111.927 57.7266 112.211 58.2808 112.779C58.835 113.347 59.112 114.036 59.112 114.846C59.112 114.874 59.1016 115.033 59.0809 115.324H54.4052C54.4814 115.761 54.6996 116.124 55.0598 116.415C55.4269 116.699 55.8564 116.841 56.3482 116.841C57.034 116.841 57.5777 116.595 57.9795 116.104L58.8003 116.613C58.5302 116.973 58.1734 117.26 57.7301 117.475C57.2868 117.69 56.8261 117.797 56.3482 117.797C55.4892 117.797 54.7688 117.51 54.187 116.935C53.6051 116.36 53.3142 115.664 53.3142 114.846C53.3142 114.043 53.5982 113.354 54.1662 112.779ZM54.3948 114.493H58.0626C58.0349 114.043 57.8479 113.662 57.5015 113.35C57.1621 113.032 56.7361 112.872 56.2235 112.872C55.7248 112.872 55.3022 113.032 54.9559 113.35C54.6165 113.662 54.4294 114.043 54.3948 114.493Z" fill="#242021"/>
<path d="M59.7434 111.999H60.5435L60.6682 110.129H61.5202V111.999H62.8917V112.914H61.5202V115.574C61.5202 115.975 61.6137 116.284 61.8007 116.498C61.9877 116.713 62.244 116.821 62.5696 116.821C62.7358 116.821 62.8813 116.796 63.006 116.748L63.2658 117.652C63.0302 117.756 62.7532 117.808 62.4345 117.808C61.8665 117.808 61.4024 117.628 61.0422 117.267C60.6889 116.9 60.5123 116.339 60.5123 115.584V112.914H59.7434V111.999Z" fill="#242021"/>
<path d="M66.9127 116.634L67.5881 115.948C68.1769 116.537 68.8661 116.834 69.6558 116.841C70.1199 116.841 70.4939 116.737 70.7779 116.53C71.0689 116.315 71.2143 116.02 71.2143 115.646C71.2143 115.397 71.1381 115.186 70.9857 115.013C70.8333 114.833 70.6325 114.687 70.3831 114.576C70.1406 114.465 69.8705 114.365 69.5726 114.275C69.2817 114.178 68.9873 114.071 68.6895 113.953C68.3985 113.835 68.1284 113.7 67.879 113.548C67.6366 113.395 67.4391 113.187 67.2868 112.924C67.1344 112.661 67.0582 112.349 67.0582 111.989C67.0582 111.414 67.2798 110.94 67.7231 110.566C68.1665 110.191 68.7691 110.004 69.5311 110.004C69.9883 110.004 70.4454 110.105 70.9026 110.306C71.3598 110.507 71.7442 110.815 72.0559 111.231L71.2974 111.823C71.1173 111.566 70.868 111.366 70.5493 111.22C70.2376 111.075 69.9155 110.998 69.583 110.992C69.5692 110.992 69.5519 110.992 69.5311 110.992C69.1155 110.992 68.7726 111.085 68.5024 111.272C68.2323 111.452 68.0972 111.688 68.0972 111.979C68.0972 112.2 68.1734 112.394 68.3258 112.56C68.4782 112.72 68.6756 112.851 68.918 112.955C69.1674 113.052 69.4376 113.146 69.7285 113.236C70.0264 113.326 70.3242 113.43 70.6221 113.548C70.9199 113.665 71.1901 113.804 71.4325 113.963C71.6819 114.123 71.8828 114.341 72.0352 114.618C72.1876 114.895 72.2638 115.22 72.2638 115.594C72.2638 116.273 72.0213 116.817 71.5364 117.226C71.0515 117.628 70.435 117.828 69.6869 117.828C69.6731 117.828 69.6592 117.828 69.6454 117.828C68.5648 117.828 67.6539 117.43 66.9127 116.634Z" fill="#242021"/>
<path d="M73.3594 111.999H74.3776V114.898C74.3776 115.522 74.5231 115.993 74.814 116.311C75.1049 116.63 75.4755 116.789 75.9258 116.789C76.3691 116.789 76.7362 116.63 77.0272 116.311C77.325 115.993 77.474 115.522 77.474 114.898V111.999H78.4818V117.714H77.5467L77.4948 116.696C77.3285 117.021 77.0895 117.288 76.7778 117.496C76.4661 117.697 76.1059 117.797 75.6972 117.797C74.9976 117.797 74.433 117.551 74.0036 117.06C73.5741 116.568 73.3594 115.847 73.3594 114.898V111.999Z" fill="#242021"/>
<path d="M79.9679 120V111.999H80.903L80.955 113.184C81.1282 112.824 81.4087 112.526 81.7966 112.29C82.1914 112.048 82.6175 111.927 83.0746 111.927C83.8435 111.927 84.4981 112.214 85.0384 112.789C85.5856 113.357 85.8593 114.043 85.8593 114.846C85.8593 115.657 85.5856 116.353 85.0384 116.935C84.4981 117.51 83.8435 117.797 83.0746 117.797C82.6244 117.797 82.2053 117.679 81.8174 117.444C81.4295 117.202 81.1489 116.9 80.9758 116.54V120H79.9679ZM81.5472 116.218C81.9213 116.599 82.3785 116.789 82.9188 116.789C83.4452 116.789 83.8955 116.599 84.2695 116.218C84.6505 115.837 84.841 115.38 84.841 114.846C84.841 114.32 84.6505 113.87 84.2695 113.496C83.8955 113.115 83.4452 112.924 82.9188 112.924C82.3785 112.924 81.9178 113.111 81.5368 113.485C81.1628 113.859 80.9758 114.313 80.9758 114.846C80.9758 115.38 81.1663 115.837 81.5472 116.218Z" fill="#242021"/>
<path d="M87.519 112.779C88.087 112.211 88.7693 111.927 89.5659 111.927C90.3902 111.927 91.0794 112.211 91.6336 112.779C92.1877 113.347 92.4648 114.036 92.4648 114.846C92.4648 114.874 92.4544 115.033 92.4336 115.324H87.7579C87.8341 115.761 88.0523 116.124 88.4125 116.415C88.7797 116.699 89.2091 116.841 89.7009 116.841C90.3867 116.841 90.9305 116.595 91.3322 116.104L92.1531 116.613C91.8829 116.973 91.5262 117.26 91.0829 117.475C90.6395 117.69 90.1789 117.797 89.7009 117.797C88.842 117.797 88.1216 117.51 87.5397 116.935C86.9579 116.36 86.6669 115.664 86.6669 114.846C86.6669 114.043 86.9509 113.354 87.519 112.779ZM87.7475 114.493H91.4154C91.3876 114.043 91.2006 113.662 90.8543 113.35C90.5148 113.032 90.0889 112.872 89.5763 112.872C89.0775 112.872 88.655 113.032 88.3086 113.35C87.9692 113.662 87.7822 114.043 87.7475 114.493Z" fill="#242021"/>
<path d="M93.6053 111.999H94.5404L94.6028 112.935C94.769 112.623 95.0045 112.384 95.3093 112.218C95.621 112.051 95.9743 111.968 96.3691 111.968C96.3899 111.968 96.4072 111.968 96.4211 111.968C96.5666 111.968 96.7086 111.979 96.8471 111.999L96.6393 112.976C96.5562 112.962 96.4904 112.955 96.4419 112.955C95.9085 112.955 95.4686 113.125 95.1223 113.464C94.7829 113.804 94.6132 114.341 94.6132 115.075V117.714H93.6053V111.999Z" fill="#242021"/>
<path d="M97.8467 117.714V111.999H98.7818L98.8338 112.945C98.9723 112.619 99.1836 112.367 99.4676 112.186C99.7585 112.006 100.067 111.916 100.392 111.916C100.829 111.916 101.196 112.031 101.494 112.259C101.798 112.481 102.013 112.772 102.138 113.132C102.263 112.779 102.47 112.488 102.761 112.259C103.052 112.031 103.399 111.916 103.8 111.916C104.445 111.916 104.957 112.141 105.338 112.592C105.726 113.035 105.92 113.731 105.92 114.68V117.714H104.902V114.68C104.902 114.064 104.784 113.617 104.548 113.34C104.32 113.056 104.019 112.914 103.645 112.914C103.291 112.914 102.993 113.056 102.751 113.34C102.509 113.624 102.387 114.071 102.387 114.68V117.714H101.369V114.68C101.369 114.064 101.251 113.617 101.016 113.34C100.787 113.056 100.486 112.914 100.112 112.914C99.7516 112.914 99.4503 113.073 99.2078 113.392C98.9723 113.71 98.8546 114.181 98.8546 114.805V117.714H97.8467Z" fill="#242021"/>
<path d="M107.771 112.779C108.312 112.204 108.966 111.916 109.735 111.916C110.192 111.916 110.615 112.038 111.003 112.28C111.398 112.522 111.685 112.831 111.865 113.205L111.917 111.999H112.852V117.714H111.917L111.865 116.519C111.685 116.886 111.398 117.191 111.003 117.434C110.615 117.669 110.192 117.787 109.735 117.787C108.966 117.787 108.308 117.499 107.761 116.924C107.221 116.35 106.951 115.66 106.951 114.857C106.951 114.046 107.224 113.354 107.771 112.779ZM108.54 116.218C108.914 116.592 109.368 116.779 109.901 116.779C110.435 116.779 110.888 116.592 111.263 116.218C111.644 115.844 111.834 115.39 111.834 114.857C111.834 114.323 111.644 113.866 111.263 113.485C110.888 113.104 110.435 112.914 109.901 112.914C109.375 112.914 108.921 113.104 108.54 113.485C108.166 113.866 107.979 114.323 107.979 114.857C107.979 115.39 108.166 115.844 108.54 116.218Z" fill="#242021"/>
<path d="M114.335 111.999H115.27L115.333 112.935C115.499 112.623 115.735 112.384 116.039 112.218C116.351 112.051 116.704 111.968 117.099 111.968C117.12 111.968 117.137 111.968 117.151 111.968C117.297 111.968 117.439 111.979 117.577 111.999L117.369 112.976C117.286 112.962 117.22 112.955 117.172 112.955C116.639 112.955 116.199 113.125 115.852 113.464C115.513 113.804 115.343 114.341 115.343 115.075V117.714H114.335V111.999Z" fill="#242021"/>
<path d="M118.577 117.714V109.61H119.543V114.555L122.099 111.999H123.304L121.122 114.275L123.595 117.714H122.4L120.468 115.033L119.543 115.927V117.714H118.577Z" fill="#242021"/>
<path d="M125.083 112.779C125.651 112.211 126.333 111.927 127.13 111.927C127.954 111.927 128.643 112.211 129.197 112.779C129.751 113.347 130.028 114.036 130.028 114.846C130.028 114.874 130.018 115.033 129.997 115.324H125.322C125.398 115.761 125.616 116.124 125.976 116.415C126.343 116.699 126.773 116.841 127.265 116.841C127.95 116.841 128.494 116.595 128.896 116.104L129.717 116.613C129.447 116.973 129.09 117.26 128.647 117.475C128.203 117.69 127.743 117.797 127.265 117.797C126.406 117.797 125.685 117.51 125.103 116.935C124.522 116.36 124.231 115.664 124.231 114.846C124.231 114.043 124.515 113.354 125.083 112.779ZM125.311 114.493H128.979C128.951 114.043 128.764 113.662 128.418 113.35C128.079 113.032 127.653 112.872 127.14 112.872C126.641 112.872 126.219 113.032 125.872 113.35C125.533 113.662 125.346 114.043 125.311 114.493Z" fill="#242021"/>
<path d="M130.66 111.999H131.46L131.585 110.129H132.437V111.999H133.808V112.914H132.437V115.574C132.437 115.975 132.53 116.284 132.717 116.498C132.904 116.713 133.16 116.821 133.486 116.821C133.652 116.821 133.798 116.796 133.922 116.748L134.182 117.652C133.947 117.756 133.67 117.808 133.351 117.808C132.783 117.808 132.319 117.628 131.959 117.267C131.605 116.9 131.429 116.339 131.429 115.584V112.914H130.66V111.999Z" fill="#242021"/>
</svg>
