<svg width="167" height="48" viewBox="0 0 167 48" fill="none" xmlns="http://www.w3.org/2000/svg">
<rect x="0.5" y="0.5" width="166" height="47" rx="15.5" stroke="#707070"/>
<path d="M24.7602 28.872C24.7602 28.0973 25.0542 27.4533 25.6422 26.94C26.2302 26.4173 26.9956 26.156 27.9382 26.156H31.2422L31.2282 25.19C31.2189 24.1633 30.9062 23.3467 30.2902 22.74C29.6836 22.1333 28.8716 21.83 27.8542 21.83H25.0262V20.5H27.9242C29.2589 20.5 30.3649 20.934 31.2422 21.802C32.1196 22.6607 32.5629 23.7667 32.5722 25.12V27.5H27.9522C27.3642 27.5 26.9069 27.626 26.5802 27.878C26.2629 28.1393 26.1042 28.4707 26.1042 28.872C26.1042 29.3853 26.3049 29.782 26.7062 30.062L25.8942 31.098C25.1382 30.5287 24.7602 29.7867 24.7602 28.872ZM29.5062 28.9C29.6649 28.732 29.8609 28.648 30.0942 28.648C30.3276 28.648 30.5236 28.7273 30.6822 28.886C30.8502 29.054 30.9342 29.25 30.9342 29.474C30.9342 29.7073 30.8549 29.908 30.6962 30.076C30.5282 30.2347 30.3276 30.314 30.0942 30.314C29.8609 30.314 29.6649 30.23 29.5062 30.062C29.3476 29.9033 29.2682 29.7073 29.2682 29.474C29.2682 29.25 29.3476 29.0587 29.5062 28.9ZM34.9837 21.48C35.6651 20.7987 36.4911 20.458 37.4617 20.458C38.4977 20.458 39.3424 20.8127 39.9957 21.522C40.6584 22.222 40.9897 23.1273 40.9897 24.238V27.122C40.9897 28.1393 40.6771 28.9887 40.0517 29.67C39.4264 30.3513 38.5864 30.692 37.5317 30.692C36.9437 30.692 36.3791 30.566 35.8377 30.314C35.3057 30.0713 34.8764 29.7353 34.5497 29.306L35.4877 28.424C35.7117 28.7133 36.0057 28.9373 36.3697 29.096C36.7337 29.264 37.1117 29.348 37.5037 29.348C38.1197 29.348 38.6144 29.1707 38.9877 28.816C39.3704 28.4613 39.5851 28.0227 39.6317 27.5H37.6437C36.5797 27.5 35.6977 27.164 34.9977 26.492C34.2977 25.82 33.9477 24.9753 33.9477 23.958C33.9477 22.9873 34.2931 22.1613 34.9837 21.48ZM35.9497 25.54C36.3791 25.9507 36.9437 26.156 37.6437 26.156H39.6457V24.14C39.6457 23.4493 39.4451 22.8847 39.0437 22.446C38.6424 22.0073 38.1151 21.788 37.4617 21.788C36.8644 21.788 36.3511 21.998 35.9217 22.418C35.5017 22.838 35.2917 23.3513 35.2917 23.958C35.2917 24.6113 35.5111 25.1387 35.9497 25.54ZM41.0822 29.278C41.2782 29.3433 41.4696 29.376 41.6562 29.376C42.6176 29.376 43.0983 28.7927 43.0983 27.626V20.5L44.4423 20.486V26.156H45.9823V27.5H44.4423V27.892C44.4423 28.7413 44.2183 29.418 43.7703 29.922C43.3223 30.4353 42.6316 30.692 41.6983 30.692C41.3436 30.692 41.0122 30.636 40.7042 30.524L41.0822 29.278ZM45.6998 26.156H53.1058V25.078C53.0965 24.07 52.7838 23.2767 52.1678 22.698C51.5612 22.1193 50.7492 21.83 49.7318 21.83H46.8898V20.5H49.8018C51.1365 20.5 52.2378 20.92 53.1058 21.76C53.9832 22.5907 54.4265 23.6827 54.4358 25.036L54.4498 26.156H55.6258L55.6398 27.5H45.6998V26.156ZM49.8298 18.89C49.8298 18.6567 49.9092 18.4607 50.0678 18.302C50.2265 18.134 50.4225 18.05 50.6558 18.05C50.8892 18.05 51.0852 18.134 51.2438 18.302C51.4118 18.4607 51.4958 18.6567 51.4958 18.89C51.4958 19.1233 51.4165 19.3193 51.2578 19.478C51.0898 19.646 50.8892 19.73 50.6558 19.73C50.4225 19.73 50.2265 19.6507 50.0678 19.492C49.9092 19.324 49.8298 19.1233 49.8298 18.89ZM55.1745 26.156H55.5525C56.2898 26.156 56.6585 25.6847 56.6585 24.742V16.58H58.0025V24.742C58.0025 25.5727 57.7831 26.24 57.3445 26.744C56.9058 27.248 56.3085 27.5 55.5525 27.5H55.1745V26.156ZM61.6753 27.5H60.3453V16.58H61.6753V27.5ZM67.3208 21.9H68.6648V26.576C68.6648 27.416 68.8934 28.088 69.3508 28.592C69.8174 29.096 70.3914 29.348 71.0728 29.348C71.7634 29.348 72.3374 29.096 72.7948 28.592C73.2614 28.088 73.4948 27.416 73.4948 26.576V16.58H74.8248V24.742C74.8248 25.6847 75.1934 26.156 75.9308 26.156H76.3368V27.5H75.9308C75.4548 27.5 75.0814 27.3367 74.8108 27.01C74.7174 28.1113 74.3161 28.998 73.6068 29.67C72.9068 30.342 72.0621 30.678 71.0728 30.678C70.0181 30.678 69.1268 30.2953 68.3988 29.53C67.6801 28.7647 67.3208 27.78 67.3208 26.576V21.9ZM76.0514 26.156H76.9754C77.7034 26.156 78.0674 25.6847 78.0674 24.742V20.5H79.4114V24.742C79.4114 25.6847 79.7801 26.156 80.5174 26.156H81.4414V27.5H80.5174C79.7147 27.5 79.1221 27.1827 78.7394 26.548C78.3567 27.1827 77.7687 27.5 76.9754 27.5H76.0514V26.156ZM76.9894 28.914C77.1481 28.7553 77.3394 28.676 77.5634 28.676C77.7781 28.676 77.9647 28.7553 78.1234 28.914C78.2914 29.0727 78.3754 29.264 78.3754 29.488C78.3754 29.7027 78.2914 29.8893 78.1234 30.048C77.9647 30.216 77.7781 30.3 77.5634 30.3C77.3394 30.3 77.1481 30.216 76.9894 30.048C76.8307 29.8893 76.7514 29.7027 76.7514 29.488C76.7514 29.264 76.8307 29.0727 76.9894 28.914ZM79.3694 28.914C79.5187 28.7553 79.7054 28.676 79.9294 28.676C80.1441 28.676 80.3307 28.7553 80.4894 28.914C80.6574 29.0727 80.7414 29.264 80.7414 29.488C80.7414 29.7027 80.6574 29.8893 80.4894 30.048C80.3307 30.216 80.1441 30.3 79.9294 30.3C79.7054 30.3 79.5141 30.2207 79.3554 30.062C79.2061 29.9033 79.1314 29.712 79.1314 29.488C79.1314 29.264 79.2107 29.0727 79.3694 28.914ZM81.1647 27.5V26.156H88.5707V25.19C88.5614 24.1633 88.2487 23.3467 87.6327 22.74C87.0167 22.1333 86.2047 21.83 85.1967 21.83H82.3547V20.5H85.2667C86.6014 20.5 87.7027 20.934 88.5707 21.802C89.448 22.6607 89.8914 23.7667 89.9007 25.12L89.9147 26.156H91.1047V27.5H81.1647ZM85.3367 29.474C85.3367 29.25 85.416 29.054 85.5747 28.886C85.7427 28.7273 85.9434 28.648 86.1767 28.648C86.4007 28.648 86.5967 28.7273 86.7647 28.886C86.9327 29.054 87.0167 29.25 87.0167 29.474C87.0167 29.7073 86.9327 29.9033 86.7647 30.062C86.5967 30.23 86.4007 30.314 86.1767 30.314C85.9434 30.314 85.7427 30.23 85.5747 30.062C85.416 29.9033 85.3367 29.7073 85.3367 29.474ZM91.003 26.156C91.7403 26.156 92.109 25.6847 92.109 24.742V20.5H93.453V24.56C93.453 25.064 93.5743 25.456 93.817 25.736C94.0596 26.016 94.3676 26.156 94.741 26.156C95.1143 26.156 95.4223 26.016 95.665 25.736C95.917 25.456 96.043 25.064 96.043 24.56V20.5H97.373V24.56C97.373 25.064 97.4943 25.456 97.737 25.736C97.989 26.016 98.3016 26.156 98.675 26.156C99.0483 26.156 99.3563 26.016 99.599 25.736C99.8416 25.456 99.963 25.064 99.963 24.56V20.5H101.307V24.742C101.307 25.6847 101.676 26.156 102.413 26.156H102.763V27.5H102.413C101.564 27.5 100.957 27.1547 100.593 26.464C100.145 27.1547 99.5056 27.5 98.675 27.5C97.7883 27.5 97.135 27.122 96.715 26.366C96.2763 27.122 95.6183 27.5 94.741 27.5C93.8916 27.5 93.2523 27.15 92.823 26.45C92.4776 27.15 91.871 27.5 91.003 27.5H90.653V26.156H91.003ZM102.479 26.156H103.305C103.678 26.156 103.963 26.03 104.159 25.778C104.355 25.526 104.453 25.1807 104.453 24.742V20.5H105.797V24.742C105.797 25.5727 105.568 26.24 105.111 26.744C104.663 27.248 104.061 27.5 103.305 27.5H102.479V26.156ZM103.123 18.918C103.123 18.694 103.202 18.5027 103.361 18.344C103.52 18.1853 103.706 18.106 103.921 18.106C104.145 18.106 104.336 18.1853 104.495 18.344C104.663 18.5027 104.747 18.694 104.747 18.918C104.747 19.142 104.663 19.3333 104.495 19.492C104.336 19.6507 104.145 19.73 103.921 19.73C103.706 19.73 103.52 19.6507 103.361 19.492C103.202 19.3333 103.123 19.142 103.123 18.918ZM105.489 18.918C105.489 18.694 105.564 18.5027 105.713 18.344C105.872 18.1853 106.063 18.106 106.287 18.106C106.511 18.106 106.702 18.1853 106.861 18.344C107.02 18.5027 107.099 18.694 107.099 18.918C107.099 19.142 107.02 19.3333 106.861 19.492C106.702 19.6507 106.511 19.73 106.287 19.73C106.063 19.73 105.872 19.6507 105.713 19.492C105.564 19.3333 105.489 19.142 105.489 18.918Z" fill="#707070"/>
<g clip-path="url(#clip0_1_643)">
<path d="M131 36C133.525 35.9976 135.973 35.1264 137.932 33.5327C139.89 31.939 141.241 29.7198 141.757 27.2479C142.273 24.776 141.923 22.2017 140.766 19.9575C139.608 17.7132 137.713 15.9355 135.4 14.923C135.28 14.8697 135.15 14.8407 135.018 14.8377C134.886 14.8347 134.755 14.8577 134.632 14.9055C134.51 14.9533 134.398 15.0249 134.303 15.1162C134.208 15.2075 134.131 15.3166 134.079 15.4374C134.026 15.5582 133.998 15.6882 133.995 15.8199C133.993 15.9516 134.017 16.0825 134.065 16.2051C134.114 16.3276 134.186 16.4394 134.278 16.5339C134.37 16.6285 134.479 16.7039 134.6 16.756C136.495 17.5831 138.048 19.0374 138.996 20.8745C139.945 22.7116 140.233 24.8194 139.81 26.8434C139.388 28.8675 138.281 30.6844 136.677 31.9885C135.072 33.2927 133.068 34.0047 131 34.0047C128.932 34.0047 126.928 33.2927 125.323 31.9885C123.719 30.6844 122.612 28.8675 122.19 26.8434C121.767 24.8194 122.055 22.7116 123.004 20.8745C123.953 19.0374 125.505 17.5831 127.4 16.756C127.521 16.7039 127.631 16.6285 127.722 16.5339C127.814 16.4394 127.886 16.3276 127.935 16.2051C127.983 16.0825 128.007 15.9516 128.005 15.8199C128.002 15.6882 127.974 15.5582 127.921 15.4374C127.869 15.3166 127.793 15.2075 127.698 15.1162C127.603 15.0249 127.49 14.9533 127.368 14.9055C127.245 14.8577 127.114 14.8347 126.982 14.8377C126.85 14.8407 126.721 14.8697 126.6 14.923C124.287 15.9355 122.392 17.7132 121.235 19.9575C120.077 22.2017 119.727 24.776 120.243 27.2479C120.759 29.7198 122.11 31.939 124.069 33.5327C126.027 35.1264 128.475 35.9976 131 36Z" fill="#707070"/>
<path d="M131 22C131.265 22 131.52 21.8946 131.707 21.7071C131.895 21.5196 132 21.2652 132 21V13C132 12.7348 131.895 12.4804 131.707 12.2929C131.52 12.1054 131.265 12 131 12C130.735 12 130.48 12.1054 130.293 12.2929C130.105 12.4804 130 12.7348 130 13V21C130 21.2652 130.105 21.5196 130.293 21.7071C130.48 21.8946 130.735 22 131 22Z" fill="#707070"/>
</g>
<defs>
<clipPath id="clip0_1_643">
<rect width="24" height="24" fill="white" transform="translate(119 12)"/>
</clipPath>
</defs>
</svg>
