<svg width="49" height="48" viewBox="0 0 49 48" fill="none" xmlns="http://www.w3.org/2000/svg">
<g clip-path="url(#clip0_1_557)">
<path fill-rule="evenodd" clip-rule="evenodd" d="M24.8192 39.5923C16.2146 39.5923 9.21289 32.5905 9.21289 23.9859C9.21289 15.3814 16.2146 8.37961 24.8192 8.37961C33.4238 8.37961 40.4255 15.3814 40.4255 23.9859C40.4255 32.5905 33.4238 39.5923 24.8192 39.5923Z" fill="#FFC107"/>
<path fill-rule="evenodd" clip-rule="evenodd" d="M24.8194 6.01757C24.4258 6.01757 24.0883 5.70826 24.0883 5.28647V0.731107C24.0883 0.337434 24.4258 0 24.8194 0C25.2412 0 25.5505 0.337434 25.5505 0.731107V5.28647C25.5505 5.70826 25.2412 6.01757 24.8194 6.01757ZM34.1832 8.52021C34.0426 8.52021 33.9302 8.49209 33.8177 8.43585C33.4521 8.23902 33.3396 7.7891 33.5365 7.45167L35.8423 3.48682C36.0391 3.12127 36.489 3.00879 36.8265 3.20562C37.1639 3.40246 37.3045 3.85237 37.0795 4.21793L34.8019 8.15466C34.6613 8.40773 34.4363 8.52021 34.1832 8.52021ZM41.0163 15.3814C40.7632 15.3814 40.5101 15.2408 40.3976 15.0158C40.2008 14.6503 40.3133 14.2285 40.6507 14.0035L44.6156 11.7258C44.953 11.529 45.4029 11.6415 45.5998 12.007C45.7966 12.3445 45.6841 12.7944 45.3467 12.9912L41.3818 15.2689C41.2693 15.3533 41.1569 15.3814 41.0163 15.3814ZM48.1024 24.717H43.5189C43.1252 24.717 42.7878 24.4077 42.7878 23.9859C42.7878 23.5923 43.1252 23.2548 43.5189 23.2548H48.1024C48.4961 23.2548 48.8335 23.5923 48.8335 23.9859C48.8335 24.4077 48.4961 24.717 48.1024 24.717ZM44.9811 36.3585C44.8405 36.3585 44.7281 36.3304 44.6156 36.246L40.6507 33.9684C40.3133 33.7715 40.2008 33.3216 40.3976 32.9842C40.5945 32.6186 41.0444 32.5062 41.3818 32.703L45.3467 35.0088C45.6841 35.2056 45.7966 35.6555 45.5998 35.993C45.4873 36.2179 45.2342 36.3585 44.9811 36.3585ZM36.4609 44.8787C36.2078 44.8787 35.9548 44.7381 35.8423 44.5132L33.5365 40.5483C33.3396 40.2109 33.4521 39.761 33.8177 39.5641C34.1551 39.3673 34.605 39.4798 34.8019 39.8172L37.0795 43.7821C37.3045 44.1195 37.1639 44.5694 36.8265 44.7663C36.714 44.8506 36.5734 44.8787 36.4609 44.8787ZM24.8194 48C24.4258 48 24.0883 47.6626 24.0883 47.2689V42.6854C24.0883 42.2917 24.4258 41.9543 24.8194 41.9543C25.2412 41.9543 25.5505 42.2917 25.5505 42.6854V47.2689C25.5505 47.6626 25.2412 48 24.8194 48ZM13.2061 44.8787C13.0655 44.8787 12.953 44.8506 12.8405 44.7663C12.475 44.5694 12.3625 44.1195 12.5593 43.7821L14.837 39.8172C15.062 39.4798 15.4838 39.3392 15.8493 39.5641C16.1867 39.761 16.2992 40.2109 16.1024 40.5483L13.8247 44.5132C13.6841 44.7381 13.4592 44.8787 13.2061 44.8787ZM4.68587 36.3585C4.43279 36.3585 4.17972 36.2179 4.03912 35.993C3.84228 35.6555 3.95476 35.2056 4.32032 35.0088L8.28517 32.703C8.6226 32.5062 9.07251 32.6186 9.26935 32.9842C9.46619 33.3216 9.35371 33.7715 9.01627 33.9684L5.05142 36.246C4.93894 36.3304 4.79835 36.3585 4.68587 36.3585ZM6.11996 24.717H1.5646C1.17093 24.717 0.833496 24.4077 0.833496 23.9859C0.833496 23.5923 1.17093 23.2548 1.5646 23.2548H6.11996C6.54176 23.2548 6.85107 23.5923 6.85107 23.9859C6.85107 24.4077 6.54176 24.717 6.11996 24.717ZM8.65072 15.3814C8.51012 15.3814 8.39764 15.3533 8.28517 15.2689L4.32032 12.9912C3.95476 12.7944 3.84228 12.3445 4.03912 12.007C4.23596 11.6415 4.68587 11.529 5.05142 11.7258L9.01627 14.0035C9.35371 14.2285 9.46619 14.6503 9.26935 15.0158C9.12875 15.2408 8.87568 15.3814 8.65072 15.3814ZM15.4838 8.52021C15.2307 8.52021 14.9776 8.40773 14.837 8.18278L12.5593 4.21793C12.3625 3.85237 12.475 3.40246 12.8405 3.20562C13.178 3.00879 13.6279 3.12127 13.8247 3.48682L16.1024 7.45167C16.2992 7.7891 16.1867 8.23902 15.8493 8.43585C15.7368 8.49209 15.5962 8.52021 15.4838 8.52021Z" fill="#FF9D05"/>
<path fill-rule="evenodd" clip-rule="evenodd" d="M30.1059 32.8436C30.0216 32.8436 29.9372 32.8436 29.8529 32.7874L24.8195 30.8471L19.8142 32.7874C19.5892 32.8998 19.3081 32.8436 19.1112 32.703C18.9144 32.5624 18.8019 32.3375 18.83 32.0844L19.1393 26.7136L15.7088 22.5519C15.5682 22.355 15.5119 22.102 15.5963 21.8489C15.6806 21.6239 15.8494 21.4271 16.1024 21.3708L21.3045 20.0211L24.229 15.4657C24.3414 15.2689 24.5945 15.1564 24.8195 15.1564C25.0726 15.1564 25.2975 15.2689 25.4381 15.4657L28.3625 20.0211L33.5646 21.3708C33.7896 21.4271 33.9864 21.6239 34.0708 21.8489C34.1552 22.102 34.0989 22.355 33.9302 22.5519L30.5277 26.7136L30.837 32.0844C30.837 32.3375 30.7246 32.5624 30.5277 32.703C30.4153 32.8155 30.2465 32.8436 30.1059 32.8436Z" fill="white"/>
</g>
<defs>
<clipPath id="clip0_1_557">
<rect width="48" height="48" fill="white" transform="translate(0.833496)"/>
</clipPath>
</defs>
</svg>
