<svg width="375" height="812" viewBox="0 0 375 812" fill="none" xmlns="http://www.w3.org/2000/svg">
<rect width="375" height="812" fill="white"/>
<path d="M254 0H375V93.5C375 126.913 347.913 154 314.5 154C281.087 154 254 126.913 254 93.5V0Z" fill="#DF1C26"/>
<path d="M127 0H248V93.5C248 126.913 220.913 154 187.5 154C154.087 154 127 126.913 127 93.5V0Z" fill="#DF1C26"/>
<path d="M0 0H121V93.5C121 126.913 93.9132 154 60.5 154C27.0868 154 0 126.913 0 93.5V0Z" fill="#DF1C26"/>
<path d="M193.939 330.509C195.912 330.552 197 331.717 197.202 334.006C197.214 334.143 197.271 334.259 197.374 334.352C203.807 340.225 210.245 346.097 216.688 351.968C218.333 353.468 216.193 356.677 213.878 354.572C207.554 348.809 201.232 343.045 194.912 337.278C194.805 337.181 194.681 337.141 194.54 337.157C189.375 337.837 189.017 330.406 193.939 330.509Z" fill="#1F1F1F"/>
<path d="M156.254 352.098C155.978 350.35 156.534 349.019 158.463 349.014C166.173 349 173.882 348.999 181.589 349.01C181.734 349.01 181.804 349.084 181.801 349.231C181.782 350.452 182.114 351.565 182.798 352.568C182.914 352.738 182.869 352.823 182.662 352.823H160.703C160.459 352.823 160.356 352.943 160.393 353.183C161.603 361.221 162.802 369.302 163.989 377.425C164.252 379.24 165.724 379.745 167.463 379.745C180.796 379.756 194.131 379.757 207.468 379.749C209.118 379.749 209.983 378.519 210.224 376.916C211.378 369.248 212.527 361.582 213.672 353.917C213.695 353.764 213.783 353.687 213.935 353.684L217.443 353.641C217.542 353.639 217.584 353.685 217.57 353.781C216.411 361.545 215.254 369.312 214.101 377.081C213.375 381.967 210.763 383.566 206.022 383.566C193.731 383.571 181.442 383.573 169.155 383.57C163.065 383.57 160.804 382.264 159.926 376.301C158.736 368.229 157.512 360.161 156.254 352.098Z" fill="#1F1F1F"/>
<path d="M137.388 447.056C122.363 446.098 117.897 432.683 120.866 419.931C123.325 409.362 132.829 405.304 142.893 406.758C150.9 407.917 155.837 412.428 157.703 420.291C157.739 420.444 157.679 420.523 157.52 420.529L155.34 420.618C155.168 420.623 155.062 420.543 155.022 420.376C153.351 413.475 148.893 409.741 141.646 409.176C136.26 408.752 129.979 409.646 126.442 414.061C122.494 418.998 122.303 427.229 123.597 433.273C125.743 443.324 134.538 445.432 143.444 444.227C149.776 443.371 153.491 439.197 154.938 433.264C154.951 433.208 154.983 433.157 155.029 433.121C155.076 433.085 155.133 433.065 155.192 433.065H157.52C157.65 433.065 157.701 433.129 157.673 433.256C155.468 443.549 147.244 447.679 137.388 447.056Z" fill="#DF1C26"/>
<path d="M163.558 406.994L161.038 406.981C160.975 406.98 160.924 407.031 160.923 407.095L160.911 409.419C160.911 409.482 160.962 409.533 161.025 409.534L163.544 409.547C163.607 409.547 163.659 409.496 163.659 409.433L163.671 407.109C163.672 407.046 163.621 406.994 163.558 406.994Z" fill="#1F1F1F"/>
<path d="M220.291 406.987H217.84C217.727 406.987 217.636 407.078 217.636 407.191V446.437C217.636 446.549 217.727 446.64 217.84 446.64H220.291C220.403 446.64 220.495 446.549 220.495 446.437V407.191C220.495 407.078 220.403 406.987 220.291 406.987Z" fill="#DF1C26"/>
<path d="M197.602 446.954C190.829 446.263 186.003 442.497 184.641 435.733C182.321 424.206 187.847 414.464 200.719 414.99C208.539 415.308 214.311 419.032 215.694 427.323C215.716 427.464 215.657 427.536 215.516 427.539L213.17 427.59C213.096 427.591 213.023 427.564 212.967 427.516C212.911 427.467 212.874 427.4 212.865 427.327C211.745 419.015 204.578 417.361 197.508 418.022C190.837 418.646 187.665 422.378 187.063 428.896C186.41 435.953 188.45 442.675 196.329 443.99C203.912 445.254 211.342 443.422 212.912 434.749C212.948 434.531 213.078 434.424 213.302 434.426L215.516 434.452C215.623 434.452 215.67 434.506 215.656 434.613C214.243 444.304 206.622 447.875 197.602 446.954Z" fill="#DF1C26"/>
<path d="M225.715 431.254C225.749 437.234 227.899 442.455 234.316 443.816C241.797 445.402 250.584 443.68 251.64 434.566C251.648 434.494 251.683 434.428 251.738 434.381C251.794 434.335 251.865 434.311 251.937 434.316L254.202 434.46C254.352 434.469 254.415 434.547 254.393 434.694C252.968 444.511 245.075 447.824 236.19 447.009C230.198 446.458 225.656 443.036 223.841 437.293C221.919 431.224 222.738 422.318 228.23 418.107C234.142 413.574 245.376 413.892 250.652 419.341C253.727 422.514 254.494 426.475 254.728 430.843C254.729 430.869 254.726 430.896 254.717 430.921C254.708 430.946 254.694 430.97 254.675 430.989C254.657 431.008 254.635 431.024 254.61 431.035C254.586 431.045 254.559 431.051 254.533 431.051H225.914C225.782 431.051 225.715 431.118 225.715 431.254ZM225.881 428.506H251.717C251.718 428.506 251.719 428.506 251.72 428.505C251.72 428.504 251.721 428.503 251.721 428.502V428.485C251.721 427.085 251.428 425.699 250.859 424.406C250.29 423.113 249.456 421.938 248.404 420.949C247.353 419.959 246.105 419.174 244.731 418.638C243.357 418.103 241.884 417.827 240.397 417.827H237.2C234.197 417.827 231.316 418.95 229.193 420.949C227.069 422.947 225.876 425.658 225.876 428.485V428.502C225.876 428.503 225.877 428.504 225.878 428.505C225.878 428.506 225.879 428.506 225.881 428.506Z" fill="#DF1C26"/>
<path d="M163.555 415.473H161.028C160.964 415.473 160.913 415.525 160.913 415.588V446.539C160.913 446.602 160.964 446.653 161.028 446.653H163.555C163.618 446.653 163.67 446.602 163.67 446.539V415.588C163.67 415.525 163.618 415.473 163.555 415.473Z" fill="#DF1C26"/>
<path d="M169.548 420.766C169.549 420.789 169.557 420.811 169.57 420.83C169.584 420.848 169.603 420.862 169.625 420.869C169.647 420.876 169.67 420.876 169.691 420.869C169.712 420.862 169.73 420.848 169.743 420.83C173.712 415.393 179.035 415.482 185.167 415.567C185.309 415.567 185.382 415.637 185.388 415.779L185.447 417.878C185.45 418.031 185.376 418.104 185.227 418.099C181.879 417.963 179.565 418.041 178.284 418.332C171.91 419.77 169.845 424.876 169.675 430.974C169.528 436.117 169.47 441.264 169.501 446.416C169.501 446.563 169.428 446.636 169.28 446.636H167.062C166.85 446.636 166.744 446.53 166.744 446.318V415.783C166.744 415.644 166.815 415.574 166.956 415.571L169.264 415.567C169.408 415.567 169.481 415.639 169.484 415.783L169.548 420.766Z" fill="#DF1C26"/>
<path d="M127.761 455.762C127.925 455.879 128.014 455.988 128.03 456.09C128.053 456.191 128.014 456.312 127.913 456.453L125.162 460.632V463.384C125.162 463.485 125.15 463.579 125.126 463.665C125.103 463.743 125.052 463.801 124.974 463.84C124.904 463.887 124.791 463.91 124.635 463.91C124.479 463.91 124.362 463.887 124.283 463.84C124.213 463.801 124.162 463.739 124.131 463.653C124.108 463.567 124.096 463.469 124.096 463.36V460.621L121.333 456.476C121.239 456.335 121.204 456.215 121.228 456.113C121.251 456.004 121.345 455.891 121.509 455.774C121.626 455.695 121.723 455.649 121.801 455.633C121.887 455.61 121.965 455.621 122.036 455.668C122.106 455.707 122.172 455.781 122.235 455.891L124.623 459.637L127.023 455.891C127.093 455.781 127.16 455.707 127.222 455.668C127.292 455.629 127.37 455.617 127.456 455.633C127.542 455.641 127.644 455.684 127.761 455.762Z" fill="black"/>
<path d="M130.249 463.969C129.867 463.969 129.5 463.895 129.149 463.747C128.806 463.598 128.497 463.395 128.224 463.138C127.951 462.872 127.736 462.564 127.58 462.213C127.424 461.862 127.346 461.479 127.346 461.065C127.346 460.66 127.42 460.285 127.568 459.941C127.717 459.59 127.924 459.282 128.189 459.017C128.454 458.751 128.759 458.544 129.102 458.396C129.453 458.24 129.828 458.162 130.226 458.162C130.765 458.162 131.249 458.291 131.678 458.548C132.115 458.798 132.462 459.141 132.72 459.579C132.977 460.016 133.106 460.507 133.106 461.054C133.106 461.483 133.028 461.877 132.872 462.236C132.716 462.587 132.505 462.892 132.24 463.149C131.974 463.407 131.67 463.61 131.327 463.758C130.983 463.899 130.624 463.969 130.249 463.969ZM130.226 462.95C130.554 462.95 130.858 462.868 131.139 462.705C131.42 462.541 131.647 462.314 131.818 462.025C131.99 461.737 132.076 461.409 132.076 461.042C132.076 460.675 131.994 460.351 131.83 460.07C131.674 459.789 131.455 459.571 131.174 459.415C130.893 459.259 130.573 459.18 130.214 459.18C129.871 459.18 129.559 459.262 129.278 459.426C129.005 459.59 128.782 459.813 128.61 460.094C128.446 460.375 128.365 460.695 128.365 461.054C128.365 461.428 128.45 461.76 128.622 462.049C128.794 462.33 129.02 462.552 129.301 462.716C129.59 462.872 129.898 462.95 130.226 462.95Z" fill="black"/>
<path d="M136.485 463.91C136.141 463.91 135.821 463.848 135.525 463.723C135.236 463.598 134.982 463.423 134.764 463.196C134.545 462.97 134.373 462.697 134.248 462.377C134.131 462.057 134.073 461.694 134.073 461.288V458.747C134.073 458.638 134.085 458.544 134.108 458.466C134.131 458.388 134.178 458.33 134.248 458.291C134.327 458.244 134.44 458.22 134.588 458.22C134.736 458.22 134.846 458.244 134.916 458.291C134.994 458.338 135.045 458.4 135.068 458.478C135.091 458.556 135.103 458.65 135.103 458.759V461.3C135.103 461.62 135.158 461.904 135.267 462.154C135.376 462.396 135.54 462.584 135.759 462.716C135.985 462.849 136.258 462.915 136.578 462.915C136.906 462.915 137.187 462.849 137.421 462.716C137.663 462.584 137.847 462.396 137.972 462.154C138.104 461.904 138.171 461.62 138.171 461.3V458.747C138.171 458.638 138.182 458.544 138.206 458.466C138.229 458.388 138.276 458.33 138.346 458.291C138.424 458.244 138.537 458.22 138.686 458.22C138.834 458.22 138.943 458.244 139.014 458.291C139.092 458.338 139.138 458.4 139.154 458.478C139.177 458.556 139.189 458.65 139.189 458.759V463.407C139.189 463.501 139.177 463.586 139.154 463.665C139.138 463.735 139.092 463.789 139.014 463.828C138.943 463.867 138.834 463.887 138.686 463.887C138.576 463.887 138.487 463.875 138.416 463.852C138.354 463.828 138.307 463.797 138.276 463.758C138.245 463.719 138.221 463.676 138.206 463.629C138.198 463.575 138.194 463.52 138.194 463.466L138.241 462.962C138.163 463.056 138.069 463.157 137.96 463.266C137.851 463.376 137.722 463.481 137.573 463.583C137.433 463.676 137.273 463.754 137.093 463.817C136.914 463.879 136.711 463.91 136.485 463.91Z" fill="black"/>
<path d="M141.109 463.899C140.961 463.899 140.847 463.875 140.769 463.828C140.699 463.789 140.652 463.731 140.629 463.653C140.613 463.567 140.605 463.469 140.605 463.36V458.747C140.605 458.63 140.617 458.533 140.641 458.455C140.664 458.377 140.711 458.322 140.781 458.291C140.851 458.252 140.964 458.232 141.121 458.232C141.261 458.232 141.366 458.252 141.437 458.291C141.515 458.322 141.565 458.373 141.589 458.443C141.62 458.505 141.636 458.579 141.636 458.665L141.589 459.017C141.644 458.915 141.706 458.814 141.776 458.712C141.854 458.611 141.948 458.521 142.057 458.443C142.174 458.357 142.311 458.287 142.467 458.232C142.631 458.178 142.83 458.15 143.064 458.15C143.181 458.15 143.29 458.162 143.392 458.185C143.501 458.201 143.603 458.228 143.696 458.267C143.798 458.306 143.884 458.353 143.954 458.408C144.024 458.455 144.079 458.509 144.118 458.572C144.165 458.626 144.188 458.693 144.188 458.771C144.188 458.942 144.133 459.091 144.024 459.216C143.915 459.333 143.802 459.391 143.685 459.391C143.583 459.391 143.509 459.38 143.462 459.356C143.415 459.325 143.368 459.294 143.322 459.262C143.283 459.231 143.224 459.204 143.146 459.18C143.068 459.149 142.943 459.134 142.771 459.134C142.654 459.134 142.529 459.157 142.397 459.204C142.272 459.251 142.151 459.321 142.034 459.415C141.917 459.5 141.819 459.614 141.741 459.754C141.671 459.895 141.636 460.059 141.636 460.246V463.384C141.636 463.493 141.624 463.586 141.601 463.665C141.577 463.743 141.526 463.801 141.448 463.84C141.378 463.879 141.265 463.899 141.109 463.899Z" fill="black"/>
<path d="M148.908 463.899C148.76 463.899 148.647 463.875 148.569 463.828C148.498 463.789 148.451 463.731 148.428 463.653C148.405 463.567 148.393 463.469 148.393 463.36V456.254C148.393 456.152 148.405 456.062 148.428 455.984C148.459 455.906 148.514 455.844 148.592 455.797C148.67 455.75 148.779 455.727 148.92 455.727H151.484C151.858 455.727 152.202 455.785 152.514 455.902C152.834 456.012 153.111 456.183 153.345 456.417C153.587 456.644 153.775 456.921 153.907 457.249C154.04 457.577 154.106 457.955 154.106 458.384C154.106 458.806 154.04 459.18 153.907 459.508C153.775 459.836 153.587 460.113 153.345 460.34C153.103 460.558 152.822 460.726 152.502 460.843C152.19 460.96 151.847 461.019 151.472 461.019H149.458V463.372C149.458 463.481 149.443 463.575 149.411 463.653C149.388 463.731 149.337 463.789 149.259 463.828C149.189 463.875 149.072 463.899 148.908 463.899ZM149.458 459.953H151.484C151.796 459.953 152.069 459.895 152.303 459.778C152.537 459.653 152.721 459.473 152.854 459.239C152.986 458.997 153.053 458.704 153.053 458.361C153.053 458.033 152.99 457.752 152.865 457.518C152.74 457.284 152.557 457.104 152.315 456.979C152.081 456.855 151.8 456.792 151.472 456.792H149.458V459.953Z" fill="black"/>
<path d="M157.918 463.969C157.536 463.969 157.169 463.895 156.818 463.747C156.474 463.598 156.166 463.395 155.893 463.138C155.62 462.872 155.405 462.564 155.249 462.213C155.093 461.862 155.015 461.479 155.015 461.065C155.015 460.66 155.089 460.285 155.237 459.941C155.385 459.59 155.592 459.282 155.858 459.017C156.123 458.751 156.427 458.544 156.771 458.396C157.122 458.24 157.497 458.162 157.895 458.162C158.433 458.162 158.917 458.291 159.347 458.548C159.784 458.798 160.131 459.141 160.388 459.579C160.646 460.016 160.775 460.507 160.775 461.054C160.775 461.483 160.697 461.877 160.541 462.236C160.385 462.587 160.174 462.892 159.908 463.149C159.643 463.407 159.339 463.61 158.995 463.758C158.652 463.899 158.293 463.969 157.918 463.969ZM157.895 462.95C158.223 462.95 158.527 462.868 158.808 462.705C159.089 462.541 159.315 462.314 159.487 462.025C159.659 461.737 159.745 461.409 159.745 461.042C159.745 460.675 159.663 460.351 159.499 460.07C159.343 459.789 159.124 459.571 158.843 459.415C158.562 459.259 158.242 459.18 157.883 459.18C157.54 459.18 157.227 459.262 156.946 459.426C156.673 459.59 156.451 459.813 156.279 460.094C156.115 460.375 156.033 460.695 156.033 461.054C156.033 461.428 156.119 461.76 156.291 462.049C156.462 462.33 156.689 462.552 156.97 462.716C157.259 462.872 157.567 462.95 157.895 462.95Z" fill="black"/>
<path d="M164.575 463.922C164.169 463.922 163.787 463.856 163.427 463.723C163.076 463.59 162.764 463.399 162.491 463.149C162.225 462.9 162.015 462.603 161.859 462.26C161.71 461.908 161.636 461.51 161.636 461.065C161.636 460.621 161.71 460.226 161.859 459.883C162.015 459.532 162.225 459.231 162.491 458.981C162.756 458.732 163.065 458.54 163.416 458.408C163.775 458.275 164.153 458.209 164.551 458.209C164.817 458.209 165.078 458.252 165.336 458.338C165.593 458.416 165.82 458.521 166.015 458.654C166.218 458.779 166.362 458.911 166.448 459.052C166.526 459.153 166.581 459.239 166.612 459.309C166.651 459.372 166.655 459.446 166.624 459.532C166.592 459.594 166.55 459.653 166.495 459.707C166.44 459.754 166.386 459.793 166.331 459.824C166.191 459.934 166.05 459.949 165.91 459.871C165.824 459.785 165.726 459.707 165.617 459.637C165.515 459.559 165.406 459.489 165.289 459.426C165.172 459.364 165.051 459.317 164.926 459.286C164.809 459.247 164.684 459.227 164.551 459.227C164.185 459.227 163.861 459.305 163.58 459.461C163.299 459.61 163.08 459.824 162.924 460.105C162.776 460.379 162.702 460.699 162.702 461.065C162.702 461.432 162.776 461.752 162.924 462.025C163.08 462.299 163.295 462.513 163.568 462.669C163.849 462.825 164.169 462.904 164.528 462.904C164.692 462.904 164.848 462.884 164.996 462.845C165.152 462.798 165.297 462.74 165.43 462.669C165.562 462.591 165.671 462.509 165.757 462.424C165.835 462.369 165.902 462.322 165.956 462.283C166.011 462.244 166.077 462.224 166.155 462.224C166.218 462.224 166.284 462.252 166.354 462.306C166.425 462.353 166.499 462.427 166.577 462.529C166.639 462.599 166.674 462.673 166.682 462.751C166.698 462.829 166.686 462.904 166.647 462.974C166.608 463.044 166.546 463.114 166.46 463.185C166.335 463.309 166.167 463.43 165.956 463.547C165.753 463.657 165.531 463.747 165.289 463.817C165.047 463.887 164.809 463.922 164.575 463.922Z" fill="black"/>
<path d="M172.206 462.986C172.354 463.103 172.432 463.216 172.44 463.325C172.456 463.434 172.401 463.563 172.276 463.711C172.183 463.821 172.097 463.891 172.019 463.922C171.949 463.961 171.874 463.965 171.796 463.934C171.718 463.91 171.629 463.856 171.527 463.77L168.881 461.616V463.372C168.881 463.481 168.865 463.575 168.834 463.653C168.811 463.731 168.764 463.789 168.694 463.828C168.624 463.875 168.51 463.899 168.354 463.899C168.214 463.899 168.104 463.875 168.026 463.828C167.948 463.789 167.898 463.731 167.874 463.653C167.859 463.567 167.851 463.469 167.851 463.36V456.136C167.851 456.027 167.863 455.934 167.886 455.855C167.909 455.777 167.96 455.719 168.038 455.68C168.116 455.633 168.225 455.61 168.366 455.61C168.522 455.61 168.635 455.633 168.705 455.68C168.776 455.719 168.823 455.781 168.846 455.867C168.869 455.945 168.881 456.039 168.881 456.148V460.293L170.813 458.443C170.899 458.357 170.981 458.298 171.059 458.267C171.145 458.228 171.227 458.22 171.305 458.244C171.39 458.267 171.476 458.33 171.562 458.431C171.703 458.587 171.769 458.72 171.761 458.829C171.761 458.931 171.691 459.048 171.55 459.18L169.654 460.972L172.206 462.986Z" fill="black"/>
<path d="M175.894 463.957C175.426 463.957 175.008 463.879 174.641 463.723C174.274 463.567 173.962 463.356 173.704 463.091C173.455 462.818 173.264 462.505 173.131 462.154C172.998 461.803 172.932 461.424 172.932 461.019C172.932 460.48 173.057 460 173.306 459.579C173.556 459.157 173.9 458.825 174.337 458.583C174.782 458.334 175.289 458.209 175.859 458.209C176.249 458.209 176.596 458.271 176.901 458.396C177.213 458.513 177.478 458.673 177.697 458.876C177.915 459.079 178.083 459.305 178.2 459.555C178.317 459.805 178.376 460.055 178.376 460.304C178.376 460.702 178.282 460.983 178.095 461.147C177.908 461.303 177.677 461.382 177.404 461.382H174.021C174.013 461.725 174.103 462.022 174.29 462.271C174.485 462.513 174.727 462.701 175.016 462.833C175.312 462.966 175.609 463.032 175.906 463.032C176.124 463.032 176.311 463.021 176.468 462.997C176.624 462.974 176.76 462.943 176.877 462.904C176.994 462.865 177.096 462.825 177.182 462.786C177.268 462.747 177.342 462.708 177.404 462.669C177.474 462.63 177.541 462.603 177.603 462.587C177.673 462.572 177.74 462.58 177.802 462.611C177.872 462.634 177.927 462.685 177.966 462.763C178.013 462.825 178.044 462.884 178.06 462.939C178.075 462.993 178.083 463.052 178.083 463.114C178.083 463.224 177.99 463.345 177.802 463.477C177.615 463.61 177.353 463.723 177.018 463.817C176.69 463.91 176.315 463.957 175.894 463.957ZM174.021 460.691H176.959C177.108 460.691 177.217 460.671 177.287 460.632C177.365 460.593 177.404 460.488 177.404 460.316C177.404 460.098 177.338 459.902 177.205 459.731C177.072 459.551 176.889 459.407 176.655 459.298C176.429 459.188 176.167 459.134 175.87 459.134C175.527 459.134 175.211 459.204 174.922 459.344C174.641 459.477 174.419 459.66 174.255 459.895C174.091 460.129 174.013 460.394 174.021 460.691Z" fill="black"/>
<path d="M182.102 463.899C181.735 463.899 181.423 463.864 181.166 463.793C180.916 463.723 180.709 463.614 180.545 463.466C180.381 463.317 180.264 463.126 180.194 462.892C180.124 462.65 180.088 462.353 180.088 462.002V456.827C180.088 456.718 180.1 456.624 180.124 456.546C180.147 456.468 180.194 456.41 180.264 456.371C180.334 456.324 180.444 456.3 180.592 456.3C180.74 456.3 180.853 456.324 180.931 456.371C181.009 456.41 181.06 456.468 181.084 456.546C181.107 456.616 181.119 456.706 181.119 456.816V462.002C181.119 462.205 181.134 462.369 181.166 462.494C181.205 462.611 181.259 462.701 181.329 462.763C181.407 462.825 181.509 462.865 181.634 462.88C181.759 462.896 181.911 462.904 182.09 462.904C182.215 462.904 182.317 462.915 182.395 462.939C182.473 462.962 182.531 463.009 182.57 463.079C182.609 463.149 182.629 463.255 182.629 463.395C182.629 463.544 182.606 463.657 182.559 463.735C182.52 463.805 182.457 463.848 182.371 463.864C182.293 463.887 182.204 463.899 182.102 463.899ZM179.48 458.361L180.604 458.373L182.231 458.349C182.34 458.349 182.434 458.361 182.512 458.384C182.59 458.4 182.649 458.447 182.688 458.525C182.734 458.595 182.758 458.704 182.758 458.853C182.758 459.001 182.738 459.114 182.699 459.192C182.66 459.262 182.602 459.309 182.524 459.333C182.446 459.356 182.352 459.368 182.243 459.368L180.639 459.344L179.456 459.356C179.292 459.356 179.179 459.317 179.117 459.239C179.062 459.161 179.035 459.032 179.035 458.853C179.035 458.681 179.07 458.556 179.14 458.478C179.21 458.4 179.324 458.361 179.48 458.361Z" fill="black"/>
<path d="M189.243 464.016C188.946 464.016 188.665 463.981 188.4 463.91C188.142 463.84 187.904 463.747 187.685 463.629C187.475 463.505 187.287 463.368 187.123 463.22C186.959 463.071 186.831 462.923 186.737 462.775C186.651 462.65 186.597 462.548 186.573 462.47C186.55 462.385 186.554 462.303 186.585 462.224C186.624 462.146 186.698 462.061 186.807 461.967C186.932 461.873 187.041 461.83 187.135 461.838C187.229 461.838 187.315 461.873 187.393 461.944C187.479 462.014 187.564 462.107 187.65 462.224C187.845 462.49 188.083 462.685 188.364 462.81C188.645 462.927 188.923 462.986 189.196 462.986C189.547 462.986 189.859 462.939 190.132 462.845C190.405 462.751 190.62 462.611 190.776 462.424C190.94 462.228 191.022 461.979 191.022 461.674C191.022 461.424 190.96 461.214 190.835 461.042C190.71 460.87 190.542 460.726 190.331 460.609C190.121 460.484 189.886 460.379 189.629 460.293C189.371 460.199 189.11 460.109 188.844 460.023C188.634 459.953 188.427 459.875 188.224 459.789C188.021 459.696 187.83 459.594 187.65 459.485C187.471 459.368 187.311 459.231 187.17 459.075C187.038 458.919 186.932 458.736 186.854 458.525C186.784 458.314 186.749 458.068 186.749 457.787C186.749 457.358 186.85 456.979 187.053 456.652C187.264 456.324 187.557 456.07 187.931 455.891C188.306 455.703 188.739 455.61 189.231 455.61C189.52 455.61 189.785 455.637 190.027 455.692C190.269 455.746 190.484 455.82 190.671 455.914C190.858 456 191.018 456.094 191.151 456.195C191.284 456.289 191.385 456.378 191.455 456.464C191.596 456.613 191.674 456.737 191.689 456.839C191.705 456.94 191.646 457.065 191.514 457.214C191.389 457.354 191.268 457.428 191.151 457.436C191.034 457.444 190.905 457.389 190.765 457.272C190.616 457.1 190.46 456.968 190.296 456.874C190.14 456.78 189.972 456.718 189.793 456.687C189.621 456.648 189.43 456.628 189.219 456.628C189.016 456.628 188.825 456.656 188.645 456.71C188.474 456.757 188.322 456.831 188.189 456.933C188.064 457.034 187.966 457.159 187.896 457.307C187.826 457.448 187.791 457.612 187.791 457.799C187.791 458.01 187.845 458.189 187.955 458.338C188.072 458.486 188.224 458.615 188.411 458.724C188.599 458.825 188.809 458.919 189.043 459.005C189.278 459.083 189.523 459.161 189.781 459.239C190.062 459.325 190.339 459.43 190.612 459.555C190.885 459.672 191.131 459.821 191.35 460C191.568 460.172 191.744 460.39 191.877 460.656C192.009 460.921 192.076 461.249 192.076 461.639C192.076 462.029 191.998 462.373 191.842 462.669C191.693 462.966 191.486 463.216 191.221 463.419C190.956 463.614 190.651 463.762 190.308 463.864C189.972 463.965 189.617 464.016 189.243 464.016Z" fill="black"/>
<path d="M195.538 463.91C195.194 463.91 194.874 463.848 194.578 463.723C194.289 463.598 194.035 463.423 193.817 463.196C193.598 462.97 193.427 462.697 193.302 462.377C193.185 462.057 193.126 461.694 193.126 461.288V458.747C193.126 458.638 193.138 458.544 193.161 458.466C193.185 458.388 193.231 458.33 193.302 458.291C193.38 458.244 193.493 458.22 193.641 458.22C193.79 458.22 193.899 458.244 193.969 458.291C194.047 458.338 194.098 458.4 194.121 458.478C194.145 458.556 194.156 458.65 194.156 458.759V461.3C194.156 461.62 194.211 461.904 194.32 462.154C194.43 462.396 194.593 462.584 194.812 462.716C195.038 462.849 195.312 462.915 195.632 462.915C195.959 462.915 196.24 462.849 196.475 462.716C196.716 462.584 196.9 462.396 197.025 462.154C197.157 461.904 197.224 461.62 197.224 461.3V458.747C197.224 458.638 197.236 458.544 197.259 458.466C197.282 458.388 197.329 458.33 197.399 458.291C197.477 458.244 197.591 458.22 197.739 458.22C197.887 458.22 197.997 458.244 198.067 458.291C198.145 458.338 198.192 458.4 198.207 458.478C198.231 458.556 198.242 458.65 198.242 458.759V463.407C198.242 463.501 198.231 463.586 198.207 463.665C198.192 463.735 198.145 463.789 198.067 463.828C197.997 463.867 197.887 463.887 197.739 463.887C197.63 463.887 197.54 463.875 197.47 463.852C197.407 463.828 197.36 463.797 197.329 463.758C197.298 463.719 197.275 463.676 197.259 463.629C197.251 463.575 197.247 463.52 197.247 463.466L197.294 462.962C197.216 463.056 197.122 463.157 197.013 463.266C196.904 463.376 196.775 463.481 196.627 463.583C196.486 463.676 196.326 463.754 196.147 463.817C195.967 463.879 195.764 463.91 195.538 463.91Z" fill="black"/>
<path d="M202.515 463.852C202.133 463.852 201.786 463.782 201.473 463.641C201.161 463.501 200.896 463.306 200.677 463.056C200.459 462.798 200.287 462.498 200.162 462.154C200.045 461.811 199.99 461.432 199.998 461.019C199.998 460.613 200.057 460.238 200.174 459.895C200.291 459.551 200.459 459.255 200.677 459.005C200.904 458.747 201.169 458.552 201.473 458.419C201.786 458.279 202.133 458.209 202.515 458.209C202.874 458.209 203.21 458.279 203.522 458.419C203.842 458.56 204.119 458.759 204.353 459.017C204.595 459.266 204.783 459.567 204.915 459.918C205.056 460.269 205.126 460.648 205.126 461.054C205.126 461.46 205.056 461.834 204.915 462.178C204.783 462.521 204.595 462.818 204.353 463.067C204.119 463.317 203.842 463.512 203.522 463.653C203.21 463.786 202.874 463.852 202.515 463.852ZM200.08 466.205C199.932 466.205 199.819 466.182 199.741 466.135C199.67 466.096 199.62 466.037 199.588 465.959C199.565 465.881 199.553 465.788 199.553 465.678V458.759C199.553 458.65 199.565 458.556 199.588 458.478C199.612 458.4 199.659 458.341 199.729 458.302C199.807 458.256 199.92 458.232 200.068 458.232C200.24 458.232 200.365 458.259 200.443 458.314C200.529 458.369 200.58 458.466 200.595 458.607V465.667C200.603 465.776 200.595 465.87 200.572 465.948C200.548 466.033 200.498 466.096 200.42 466.135C200.349 466.182 200.236 466.205 200.08 466.205ZM202.363 462.892C202.691 462.892 202.988 462.814 203.253 462.658C203.518 462.494 203.725 462.271 203.873 461.99C204.03 461.709 204.108 461.389 204.108 461.03C204.108 460.663 204.03 460.343 203.873 460.07C203.725 459.797 203.518 459.586 203.253 459.438C202.995 459.282 202.699 459.204 202.363 459.204C202.035 459.204 201.739 459.282 201.473 459.438C201.216 459.594 201.009 459.809 200.853 460.082C200.705 460.355 200.63 460.671 200.63 461.03C200.63 461.389 200.705 461.709 200.853 461.99C201.009 462.271 201.216 462.494 201.473 462.658C201.739 462.814 202.035 462.892 202.363 462.892Z" fill="black"/>
<path d="M209.039 463.957C208.571 463.957 208.153 463.879 207.786 463.723C207.42 463.567 207.107 463.356 206.85 463.091C206.6 462.818 206.409 462.505 206.276 462.154C206.143 461.803 206.077 461.424 206.077 461.019C206.077 460.48 206.202 460 206.452 459.579C206.701 459.157 207.045 458.825 207.482 458.583C207.927 458.334 208.434 458.209 209.004 458.209C209.394 458.209 209.742 458.271 210.046 458.396C210.358 458.513 210.624 458.673 210.842 458.876C211.061 459.079 211.228 459.305 211.346 459.555C211.463 459.805 211.521 460.055 211.521 460.304C211.521 460.702 211.427 460.983 211.24 461.147C211.053 461.303 210.823 461.382 210.549 461.382H207.166C207.158 461.725 207.248 462.022 207.435 462.271C207.63 462.513 207.872 462.701 208.161 462.833C208.458 462.966 208.754 463.032 209.051 463.032C209.269 463.032 209.457 463.021 209.613 462.997C209.769 462.974 209.905 462.943 210.023 462.904C210.14 462.865 210.241 462.825 210.327 462.786C210.413 462.747 210.487 462.708 210.549 462.669C210.62 462.63 210.686 462.603 210.748 462.587C210.819 462.572 210.885 462.58 210.947 462.611C211.018 462.634 211.072 462.685 211.111 462.763C211.158 462.825 211.189 462.884 211.205 462.939C211.221 462.993 211.228 463.052 211.228 463.114C211.228 463.224 211.135 463.345 210.947 463.477C210.76 463.61 210.499 463.723 210.163 463.817C209.835 463.91 209.461 463.957 209.039 463.957ZM207.166 460.691H210.105C210.253 460.691 210.362 460.671 210.432 460.632C210.51 460.593 210.549 460.488 210.549 460.316C210.549 460.098 210.483 459.902 210.35 459.731C210.218 459.551 210.034 459.407 209.8 459.298C209.574 459.188 209.312 459.134 209.016 459.134C208.672 459.134 208.356 459.204 208.067 459.344C207.786 459.477 207.564 459.66 207.4 459.895C207.236 460.129 207.158 460.394 207.166 460.691Z" fill="black"/>
<path d="M213.208 463.899C213.059 463.899 212.946 463.875 212.868 463.828C212.798 463.789 212.751 463.731 212.728 463.653C212.712 463.567 212.704 463.469 212.704 463.36V458.747C212.704 458.63 212.716 458.533 212.739 458.455C212.763 458.377 212.809 458.322 212.88 458.291C212.95 458.252 213.063 458.232 213.219 458.232C213.36 458.232 213.465 458.252 213.535 458.291C213.613 458.322 213.664 458.373 213.688 458.443C213.719 458.505 213.734 458.579 213.734 458.665L213.688 459.017C213.742 458.915 213.805 458.814 213.875 458.712C213.953 458.611 214.047 458.521 214.156 458.443C214.273 458.357 214.41 458.287 214.566 458.232C214.73 458.178 214.929 458.15 215.163 458.15C215.28 458.15 215.389 458.162 215.491 458.185C215.6 458.201 215.701 458.228 215.795 458.267C215.896 458.306 215.982 458.353 216.053 458.408C216.123 458.455 216.177 458.509 216.216 458.572C216.263 458.626 216.287 458.693 216.287 458.771C216.287 458.942 216.232 459.091 216.123 459.216C216.013 459.333 215.9 459.391 215.783 459.391C215.682 459.391 215.608 459.38 215.561 459.356C215.514 459.325 215.467 459.294 215.42 459.262C215.381 459.231 215.323 459.204 215.245 459.18C215.167 459.149 215.042 459.134 214.87 459.134C214.753 459.134 214.628 459.157 214.495 459.204C214.371 459.251 214.25 459.321 214.132 459.415C214.015 459.5 213.918 459.614 213.84 459.754C213.77 459.895 213.734 460.059 213.734 460.246V463.384C213.734 463.493 213.723 463.586 213.699 463.665C213.676 463.743 213.625 463.801 213.547 463.84C213.477 463.879 213.364 463.899 213.208 463.899Z" fill="black"/>
<path d="M217.952 463.899C217.804 463.899 217.695 463.875 217.624 463.828C217.554 463.782 217.507 463.719 217.484 463.641C217.46 463.563 217.449 463.469 217.449 463.36V458.724C217.449 458.615 217.46 458.525 217.484 458.455C217.507 458.384 217.554 458.33 217.624 458.291C217.702 458.252 217.816 458.232 217.964 458.232C218.136 458.232 218.257 458.267 218.327 458.338C218.405 458.4 218.444 458.513 218.444 458.677L218.397 459.18C218.452 459.063 218.534 458.946 218.643 458.829C218.752 458.712 218.881 458.607 219.029 458.513C219.185 458.419 219.349 458.345 219.521 458.291C219.693 458.236 219.868 458.209 220.048 458.209C220.321 458.209 220.563 458.259 220.774 458.361C220.992 458.455 221.187 458.591 221.359 458.771C221.531 458.95 221.675 459.173 221.792 459.438C221.948 459.18 222.112 458.962 222.284 458.782C222.463 458.595 222.666 458.455 222.893 458.361C223.119 458.259 223.373 458.209 223.654 458.209C224.099 458.209 224.469 458.322 224.766 458.548C225.07 458.767 225.297 459.079 225.445 459.485C225.601 459.883 225.679 460.363 225.679 460.925V463.372C225.679 463.481 225.668 463.575 225.644 463.653C225.628 463.731 225.582 463.789 225.504 463.828C225.433 463.875 225.32 463.899 225.164 463.899C225.016 463.899 224.903 463.875 224.825 463.828C224.754 463.782 224.707 463.719 224.684 463.641C224.661 463.563 224.649 463.469 224.649 463.36V460.913C224.649 460.562 224.606 460.261 224.52 460.012C224.442 459.754 224.317 459.555 224.146 459.415C223.982 459.274 223.767 459.204 223.502 459.204C223.221 459.204 222.971 459.274 222.752 459.415C222.542 459.547 222.378 459.742 222.261 460C222.143 460.258 222.085 460.562 222.085 460.913V463.384C222.085 463.501 222.062 463.602 222.015 463.688C221.968 463.774 221.898 463.832 221.804 463.864C221.71 463.903 221.597 463.91 221.464 463.887C221.34 463.871 221.246 463.84 221.183 463.793C221.121 463.747 221.082 463.688 221.066 463.618C221.051 463.54 221.043 463.454 221.043 463.36V460.913C221.043 460.562 221 460.261 220.914 460.012C220.836 459.754 220.711 459.555 220.54 459.415C220.376 459.274 220.161 459.204 219.896 459.204C219.615 459.204 219.365 459.278 219.146 459.426C218.936 459.567 218.772 459.766 218.655 460.023C218.537 460.281 218.479 460.578 218.479 460.913V463.372C218.479 463.481 218.467 463.575 218.444 463.653C218.42 463.731 218.37 463.789 218.292 463.828C218.221 463.875 218.108 463.899 217.952 463.899Z" fill="black"/>
<path d="M231.945 463.887C231.773 463.887 231.648 463.852 231.57 463.782C231.5 463.711 231.457 463.602 231.441 463.454L231.488 462.868C231.41 462.993 231.289 463.138 231.125 463.302C230.961 463.458 230.747 463.598 230.481 463.723C230.216 463.84 229.892 463.899 229.51 463.899C229.135 463.899 228.784 463.825 228.456 463.676C228.136 463.528 227.851 463.321 227.601 463.056C227.359 462.79 227.168 462.486 227.028 462.143C226.895 461.799 226.829 461.432 226.829 461.042C226.829 460.66 226.895 460.301 227.028 459.965C227.168 459.621 227.363 459.321 227.613 459.063C227.863 458.806 228.148 458.603 228.468 458.455C228.795 458.306 229.143 458.232 229.51 458.232C229.853 458.232 230.146 458.279 230.388 458.373C230.63 458.459 230.837 458.576 231.008 458.724C231.188 458.864 231.344 459.024 231.477 459.204L231.453 458.712C231.445 458.54 231.48 458.419 231.559 458.349C231.644 458.271 231.777 458.232 231.957 458.232C232.105 458.232 232.21 458.256 232.273 458.302C232.343 458.349 232.39 458.416 232.413 458.501C232.437 458.587 232.448 458.693 232.448 458.818V463.337C232.448 463.446 232.437 463.544 232.413 463.629C232.39 463.715 232.343 463.778 232.273 463.817C232.202 463.864 232.093 463.887 231.945 463.887ZM229.685 462.915C229.997 462.915 230.282 462.833 230.54 462.669C230.805 462.505 231.012 462.287 231.16 462.014C231.317 461.733 231.395 461.413 231.395 461.054C231.395 460.687 231.313 460.367 231.149 460.094C230.993 459.813 230.782 459.594 230.517 459.438C230.259 459.274 229.974 459.192 229.662 459.192C229.295 459.192 228.975 459.278 228.702 459.45C228.436 459.614 228.226 459.836 228.07 460.117C227.913 460.398 227.835 460.718 227.835 461.077C227.835 461.428 227.913 461.744 228.07 462.025C228.226 462.299 228.44 462.517 228.714 462.681C228.995 462.837 229.318 462.915 229.685 462.915Z" fill="black"/>
<path d="M234.359 463.899C234.211 463.899 234.098 463.875 234.02 463.828C233.949 463.789 233.903 463.731 233.879 463.653C233.864 463.567 233.856 463.469 233.856 463.36V458.747C233.856 458.63 233.868 458.533 233.891 458.455C233.914 458.377 233.961 458.322 234.031 458.291C234.102 458.252 234.215 458.232 234.371 458.232C234.511 458.232 234.617 458.252 234.687 458.291C234.765 458.322 234.816 458.373 234.839 458.443C234.87 458.505 234.886 458.579 234.886 458.665L234.839 459.017C234.894 458.915 234.956 458.814 235.027 458.712C235.105 458.611 235.198 458.521 235.308 458.443C235.425 458.357 235.561 458.287 235.717 458.232C235.881 458.178 236.08 458.15 236.314 458.15C236.432 458.15 236.541 458.162 236.642 458.185C236.752 458.201 236.853 458.228 236.947 458.267C237.048 458.306 237.134 458.353 237.204 458.408C237.274 458.455 237.329 458.509 237.368 458.572C237.415 458.626 237.438 458.693 237.438 458.771C237.438 458.942 237.384 459.091 237.274 459.216C237.165 459.333 237.052 459.391 236.935 459.391C236.833 459.391 236.759 459.38 236.712 459.356C236.666 459.325 236.619 459.294 236.572 459.262C236.533 459.231 236.474 459.204 236.396 459.18C236.318 459.149 236.193 459.134 236.022 459.134C235.905 459.134 235.78 459.157 235.647 459.204C235.522 459.251 235.401 459.321 235.284 459.415C235.167 459.5 235.069 459.614 234.991 459.754C234.921 459.895 234.886 460.059 234.886 460.246V463.384C234.886 463.493 234.874 463.586 234.851 463.665C234.828 463.743 234.777 463.801 234.699 463.84C234.629 463.879 234.515 463.899 234.359 463.899Z" fill="black"/>
<path d="M242.956 462.986C243.104 463.103 243.182 463.216 243.19 463.325C243.205 463.434 243.151 463.563 243.026 463.711C242.932 463.821 242.846 463.891 242.768 463.922C242.698 463.961 242.624 463.965 242.546 463.934C242.468 463.91 242.378 463.856 242.277 463.77L239.631 461.616V463.372C239.631 463.481 239.615 463.575 239.584 463.653C239.56 463.731 239.514 463.789 239.443 463.828C239.373 463.875 239.26 463.899 239.104 463.899C238.963 463.899 238.854 463.875 238.776 463.828C238.698 463.789 238.647 463.731 238.624 463.653C238.608 463.567 238.6 463.469 238.6 463.36V456.136C238.6 456.027 238.612 455.934 238.635 455.855C238.659 455.777 238.71 455.719 238.788 455.68C238.866 455.633 238.975 455.61 239.116 455.61C239.272 455.61 239.385 455.633 239.455 455.68C239.525 455.719 239.572 455.781 239.596 455.867C239.619 455.945 239.631 456.039 239.631 456.148V460.293L241.562 458.443C241.648 458.357 241.73 458.298 241.808 458.267C241.894 458.228 241.976 458.22 242.054 458.244C242.14 458.267 242.226 458.33 242.312 458.431C242.452 458.587 242.519 458.72 242.511 458.829C242.511 458.931 242.44 459.048 242.3 459.18L240.403 460.972L242.956 462.986Z" fill="black"/>
<path d="M246.643 463.957C246.175 463.957 245.758 463.879 245.391 463.723C245.024 463.567 244.712 463.356 244.454 463.091C244.204 462.818 244.013 462.505 243.88 462.154C243.748 461.803 243.681 461.424 243.681 461.019C243.681 460.48 243.806 460 244.056 459.579C244.306 459.157 244.649 458.825 245.086 458.583C245.531 458.334 246.038 458.209 246.608 458.209C246.999 458.209 247.346 458.271 247.65 458.396C247.962 458.513 248.228 458.673 248.446 458.876C248.665 459.079 248.833 459.305 248.95 459.555C249.067 459.805 249.125 460.055 249.125 460.304C249.125 460.702 249.032 460.983 248.844 461.147C248.657 461.303 248.427 461.382 248.154 461.382H244.77C244.762 461.725 244.852 462.022 245.039 462.271C245.235 462.513 245.477 462.701 245.765 462.833C246.062 462.966 246.359 463.032 246.655 463.032C246.874 463.032 247.061 463.021 247.217 462.997C247.373 462.974 247.51 462.943 247.627 462.904C247.744 462.865 247.845 462.825 247.931 462.786C248.017 462.747 248.091 462.708 248.154 462.669C248.224 462.63 248.29 462.603 248.353 462.587C248.423 462.572 248.489 462.58 248.552 462.611C248.622 462.634 248.677 462.685 248.716 462.763C248.762 462.825 248.794 462.884 248.809 462.939C248.825 462.993 248.833 463.052 248.833 463.114C248.833 463.224 248.739 463.345 248.552 463.477C248.364 463.61 248.103 463.723 247.767 463.817C247.44 463.91 247.065 463.957 246.643 463.957ZM244.77 460.691H247.709C247.857 460.691 247.966 460.671 248.037 460.632C248.115 460.593 248.154 460.488 248.154 460.316C248.154 460.098 248.087 459.902 247.955 459.731C247.822 459.551 247.639 459.407 247.404 459.298C247.178 459.188 246.917 459.134 246.62 459.134C246.277 459.134 245.96 459.204 245.672 459.344C245.391 459.477 245.168 459.66 245.004 459.895C244.84 460.129 244.762 460.394 244.77 460.691Z" fill="black"/>
<path d="M252.852 463.899C252.485 463.899 252.173 463.864 251.915 463.793C251.665 463.723 251.458 463.614 251.295 463.466C251.131 463.317 251.014 463.126 250.943 462.892C250.873 462.65 250.838 462.353 250.838 462.002V456.827C250.838 456.718 250.85 456.624 250.873 456.546C250.897 456.468 250.943 456.41 251.014 456.371C251.084 456.324 251.193 456.3 251.341 456.3C251.49 456.3 251.603 456.324 251.681 456.371C251.759 456.41 251.81 456.468 251.833 456.546C251.857 456.616 251.868 456.706 251.868 456.816V462.002C251.868 462.205 251.884 462.369 251.915 462.494C251.954 462.611 252.009 462.701 252.079 462.763C252.157 462.825 252.259 462.865 252.383 462.88C252.508 462.896 252.66 462.904 252.84 462.904C252.965 462.904 253.066 462.915 253.144 462.939C253.222 462.962 253.281 463.009 253.32 463.079C253.359 463.149 253.379 463.255 253.379 463.395C253.379 463.544 253.355 463.657 253.308 463.735C253.269 463.805 253.207 463.848 253.121 463.864C253.043 463.887 252.953 463.899 252.852 463.899ZM250.229 458.361L251.353 458.373L252.98 458.349C253.09 458.349 253.183 458.361 253.261 458.384C253.34 458.4 253.398 458.447 253.437 458.525C253.484 458.595 253.507 458.704 253.507 458.853C253.507 459.001 253.488 459.114 253.449 459.192C253.41 459.262 253.351 459.309 253.273 459.333C253.195 459.356 253.101 459.368 252.992 459.368L251.388 459.344L250.206 459.356C250.042 459.356 249.929 459.317 249.866 459.239C249.812 459.161 249.784 459.032 249.784 458.853C249.784 458.681 249.819 458.556 249.89 458.478C249.96 458.4 250.073 458.361 250.229 458.361Z" fill="black"/>
</svg>
