<svg width="49" height="48" viewBox="0 0 49 48" fill="none" xmlns="http://www.w3.org/2000/svg">
<g clip-path="url(#clip0_1_573)">
<path d="M39.5119 15.3722V36.2812H4.66406V15.3722L22.0884 4.91812L39.5119 15.3722Z" fill="#FFA001"/>
<path d="M39.5118 15.3722V36.2812H22.0884V4.91812L39.5118 15.3722Z" fill="#F87F02"/>
<path d="M0.166992 15.3723L4.66399 4.91776H22.0882L17.5912 15.3723H0.166992Z" fill="#FFDA2D"/>
<path d="M44.0095 15.3723L39.5125 4.91776H22.0884L26.5854 15.3723H44.0095Z" fill="#FCBE00"/>
<path d="M10.2651 27.5196H13.0776V30.3321H10.2651V27.5196Z" fill="#FFDA2D"/>
<path d="M48.1668 32.7969C48.1668 38.4772 43.5618 43.0822 37.8815 43.0822C32.2002 43.0822 27.5952 38.4772 27.5952 32.7969C27.5952 27.1157 32.2002 22.5107 37.8815 22.5107C43.5618 22.5107 48.1668 27.1156 48.1668 32.7969Z" fill="#83E470"/>
<path d="M48.1671 32.7969C48.1671 38.4772 43.5621 43.0822 37.8818 43.0822V22.5107C43.5621 22.5107 48.1671 27.1156 48.1671 32.7969Z" fill="#01B763"/>
<path d="M43.2638 31.131L37.8817 36.5131L36.9488 37.446L32.4985 32.9956L34.4879 31.0072L36.9488 33.4681L37.8817 32.5354L41.2745 29.1426L43.2638 31.131Z" fill="#F3FDFF"/>
<path d="M43.264 31.131L37.8818 36.5131V32.5354L41.2746 29.1426L43.264 31.131Z" fill="#D7F3F7"/>
</g>
<defs>
<clipPath id="clip0_1_573">
<rect width="48" height="48" fill="white" transform="translate(0.166992)"/>
</clipPath>
</defs>
</svg>
