<svg width="20" height="20" viewBox="0 0 20 20" fill="none" xmlns="http://www.w3.org/2000/svg">
<path d="M10 0C8.02219 0 6.08879 0.58649 4.4443 1.6853C2.79981 2.78412 1.51809 4.3459 0.761209 6.17317C0.00433286 8.00043 -0.193701 10.0111 0.192152 11.9509C0.578004 13.8907 1.53041 15.6725 2.92894 17.0711C4.32746 18.4696 6.10929 19.422 8.0491 19.8079C9.98891 20.1937 11.9996 19.9957 13.8268 19.2388C15.6541 18.4819 17.2159 17.2002 18.3147 15.5557C19.4135 13.9112 20 11.9778 20 10C19.9971 7.34872 18.9426 4.80684 17.0679 2.9321C15.1932 1.05736 12.6513 0.00286757 10 0ZM10 18.3333C8.35183 18.3333 6.74066 17.8446 5.37025 16.9289C3.99984 16.0132 2.93174 14.7117 2.30101 13.189C1.67028 11.6663 1.50525 9.99076 1.82679 8.37425C2.14834 6.75774 2.94201 5.27288 4.10745 4.10744C5.27289 2.94201 6.75774 2.14833 8.37425 1.82679C9.99076 1.50525 11.6663 1.67027 13.189 2.301C14.7118 2.93173 16.0132 3.99984 16.9289 5.37025C17.8446 6.74066 18.3333 8.35182 18.3333 10C18.3309 12.2094 17.4522 14.3276 15.8899 15.8899C14.3276 17.4522 12.2094 18.3309 10 18.3333Z" fill="#DF1C26"/>
<path d="M10.0002 8.33331H9.16683C8.94582 8.33331 8.73385 8.42111 8.57757 8.57739C8.42129 8.73367 8.3335 8.94563 8.3335 9.16665C8.3335 9.38766 8.42129 9.59962 8.57757 9.7559C8.73385 9.91218 8.94582 9.99998 9.16683 9.99998H10.0002V15C10.0002 15.221 10.088 15.433 10.2442 15.5892C10.4005 15.7455 10.6125 15.8333 10.8335 15.8333C11.0545 15.8333 11.2665 15.7455 11.4228 15.5892C11.579 15.433 11.6668 15.221 11.6668 15V9.99998C11.6668 9.55795 11.4912 9.13403 11.1787 8.82147C10.8661 8.50891 10.4422 8.33331 10.0002 8.33331Z" fill="#DF1C26"/>
<path d="M10 6.66669C10.6904 6.66669 11.25 6.10704 11.25 5.41669C11.25 4.72633 10.6904 4.16669 10 4.16669C9.30964 4.16669 8.75 4.72633 8.75 5.41669C8.75 6.10704 9.30964 6.66669 10 6.66669Z" fill="#DF1C26"/>
</svg>
