<svg width="20" height="20" viewBox="0 0 20 20" fill="none" xmlns="http://www.w3.org/2000/svg">
<g clip-path="url(#clip0_2_5905)">
<path d="M10.0004 0C8.42071 0.000169172 6.86354 0.374574 5.45644 1.09254C4.04935 1.81051 2.83236 2.85162 1.90518 4.13058C0.977993 5.40954 0.366994 6.88996 0.122233 8.45057C-0.122529 10.0112 0.00591011 11.6076 0.497028 13.109C0.988147 14.6104 1.82797 15.9741 2.9477 17.0883C4.06744 18.2026 5.43522 19.0357 6.939 19.5195C8.44279 20.0033 10.0398 20.1239 11.5992 19.8715C13.1586 19.6192 14.636 19.0009 15.9104 18.0675L14.9237 16.7242C13.4125 17.8308 11.5724 18.396 9.70051 18.3286C7.82859 18.2612 6.03397 17.5651 4.60621 16.3526C3.17845 15.1402 2.20082 13.482 1.83105 11.6457C1.46128 9.80948 1.72094 7.90218 2.56814 6.23159C3.41534 4.56101 4.80066 3.22456 6.50059 2.43789C8.20052 1.65122 10.1159 1.46021 11.9377 1.89567C13.7595 2.33113 15.3815 3.36767 16.5419 4.83805C17.7024 6.30842 18.3336 8.12687 18.3337 10V11.6667C18.3337 12.1087 18.1581 12.5326 17.8456 12.8452C17.533 13.1577 17.1091 13.3333 16.6671 13.3333C16.225 13.3333 15.8011 13.1577 15.4886 12.8452C15.176 12.5326 15.0004 12.1087 15.0004 11.6667V10C15.0044 8.82357 14.595 7.68312 13.8436 6.77793C13.0922 5.87273 12.0466 5.26035 10.8895 5.04779C9.73242 4.83523 8.53744 5.03601 7.51337 5.61504C6.48929 6.19407 5.70124 7.11453 5.28691 8.21559C4.87258 9.31665 4.85831 10.5283 5.24661 11.6388C5.63491 12.7493 6.40107 13.6881 7.41123 14.291C8.42139 14.894 9.61131 15.1229 10.7731 14.9376C11.9348 14.7523 12.9945 14.1648 13.7671 13.2775C14.1224 13.9247 14.6833 14.4351 15.3611 14.728C16.0389 15.0209 16.795 15.0797 17.5098 14.8949C18.2247 14.7102 18.8577 14.2925 19.3087 13.7079C19.7597 13.1233 20.0031 12.405 20.0004 11.6667V10C19.9975 7.34872 18.943 4.80684 17.0683 2.9321C15.1936 1.05736 12.6517 0.00286757 10.0004 0ZM10.0004 13.3333C9.34112 13.3333 8.69666 13.1378 8.14849 12.7716C7.60033 12.4053 7.17309 11.8847 6.9208 11.2756C6.6685 10.6665 6.60249 9.9963 6.73111 9.3497C6.85973 8.7031 7.1772 8.10915 7.64337 7.64298C8.10955 7.1768 8.70349 6.85933 9.35009 6.73072C9.9967 6.6021 10.6669 6.66811 11.276 6.9204C11.8851 7.17269 12.4057 7.59994 12.772 8.1481C13.1382 8.69626 13.3337 9.34073 13.3337 10C13.3337 10.8841 12.9825 11.7319 12.3574 12.357C11.7323 12.9821 10.8845 13.3333 10.0004 13.3333Z" fill="#DF1C26"/>
</g>
<defs>
<clipPath id="clip0_2_5905">
<rect width="20" height="20" fill="white"/>
</clipPath>
</defs>
</svg>
