<svg width="25" height="24" viewBox="0 0 25 24" fill="none" xmlns="http://www.w3.org/2000/svg">
<g clip-path="url(#clip0_2093_407)">
<path d="M23.246 9.06899L15.661 1.48299C14.7223 0.546978 13.4507 0.0213623 12.125 0.0213623C10.7994 0.0213623 9.52777 0.546978 8.58901 1.48299L1.00401 9.06899C0.724438 9.34677 0.502782 9.67729 0.351895 10.0414C0.201007 10.4055 0.12389 10.7959 0.125012 11.19V21.007C0.125012 21.8026 0.441083 22.5657 1.00369 23.1283C1.5663 23.6909 2.32936 24.007 3.12501 24.007H21.125C21.9207 24.007 22.6837 23.6909 23.2463 23.1283C23.8089 22.5657 24.125 21.8026 24.125 21.007V11.19C24.1261 10.7959 24.049 10.4055 23.8981 10.0414C23.7472 9.67729 23.5256 9.34677 23.246 9.06899ZM15.125 22.007H9.12501V18.073C9.12501 17.2773 9.44108 16.5143 10.0037 15.9517C10.5663 15.3891 11.3294 15.073 12.125 15.073C12.9207 15.073 13.6837 15.3891 14.2463 15.9517C14.8089 16.5143 15.125 17.2773 15.125 18.073V22.007ZM22.125 21.007C22.125 21.2722 22.0197 21.5266 21.8321 21.7141C21.6446 21.9016 21.3902 22.007 21.125 22.007H17.125V18.073C17.125 16.7469 16.5982 15.4751 15.6605 14.5375C14.7229 13.5998 13.4511 13.073 12.125 13.073C10.7989 13.073 9.52716 13.5998 8.58948 14.5375C7.6518 15.4751 7.12501 16.7469 7.12501 18.073V22.007H3.12501C2.8598 22.007 2.60544 21.9016 2.41791 21.7141C2.23037 21.5266 2.12501 21.2722 2.12501 21.007V11.19C2.12594 10.925 2.2312 10.671 2.41801 10.483L10.003 2.89999C10.5667 2.33892 11.3297 2.02393 12.125 2.02393C12.9203 2.02393 13.6833 2.33892 14.247 2.89999L21.832 10.486C22.0181 10.6732 22.1233 10.926 22.125 11.19V21.007Z" fill="#777777"/>
</g>
<defs>
<clipPath id="clip0_2093_407">
<rect width="24" height="24" fill="white" transform="translate(0.125)"/>
</clipPath>
</defs>
</svg>
