<svg width="25" height="24" viewBox="0 0 25 24" fill="none" xmlns="http://www.w3.org/2000/svg">
<path d="M12.125 14.9926C10.4682 14.9926 9.125 16.3357 9.125 17.9926V23.9926H15.125V17.9926C15.125 16.3357 13.7818 14.9926 12.125 14.9926Z" fill="#DF1C26"/>
<path d="M17.125 17.9925V23.9925H21.125C22.7818 23.9925 24.125 22.6493 24.125 20.9925V11.8715C24.1252 11.352 23.9233 10.8528 23.562 10.4795L15.064 1.29249C13.5646 -0.329857 11.0339 -0.429466 9.41155 1.06997C9.33449 1.14122 9.26023 1.21542 9.18903 1.29249L0.706016 10.4765C0.333734 10.8513 0.124859 11.3582 0.125 11.8865V20.9925C0.125 22.6493 1.46816 23.9925 3.125 23.9925H7.12498V17.9925C7.14369 15.2657 9.34527 13.0389 12.0034 12.9748C14.7505 12.9085 17.1041 15.1732 17.125 17.9925Z" fill="#DF1C26"/>
<path d="M12.125 14.9926C10.4682 14.9926 9.125 16.3357 9.125 17.9926V23.9926H15.125V17.9926C15.125 16.3357 13.7818 14.9926 12.125 14.9926Z" fill="#DF1C26"/>
</svg>
