<svg width="20" height="21" viewBox="0 0 20 21" fill="none" xmlns="http://www.w3.org/2000/svg">
<g clip-path="url(#clip0_2_5916)">
<path d="M20 9.87248C19.8794 7.9225 19.1909 6.05041 18.0193 4.487C16.8477 2.9236 15.2441 1.73723 13.4064 1.07414C11.5687 0.411063 9.57705 0.300259 7.6771 0.755394C5.77715 1.21053 4.05192 2.21171 2.71409 3.6355C1.37626 5.05929 0.484331 6.84345 0.148249 8.76803C-0.187833 10.6926 0.0466277 12.6735 0.822727 14.4664C1.59883 16.2593 2.88264 17.786 4.51589 18.8581C6.14914 19.9302 8.06043 20.501 10.0141 20.5H15.8333C16.938 20.4989 17.9972 20.0595 18.7784 19.2784C19.5595 18.4972 19.9989 17.438 20 16.3333V9.87248ZM18.3333 16.3333C18.3333 16.9964 18.0699 17.6322 17.6011 18.1011C17.1322 18.5699 16.4963 18.8333 15.8333 18.8333H10.0141C8.83824 18.8328 7.67567 18.5844 6.60221 18.1044C5.52876 17.6244 4.56853 16.9235 3.78413 16.0475C2.99594 15.1719 2.40407 14.1379 2.04821 13.0148C1.69235 11.8917 1.58071 10.7056 1.7208 9.53581C1.94199 7.69076 2.77095 5.9718 4.077 4.64992C5.38304 3.32803 7.09188 2.47841 8.93413 2.23498C9.29349 2.18994 9.65529 2.16712 10.0175 2.16665C11.9595 2.16135 13.8415 2.8399 15.3333 4.08331C16.2046 4.80743 16.9197 5.70094 17.4354 6.70967C17.9511 7.7184 18.2566 8.82135 18.3333 9.95165V16.3333Z" fill="#DF1C26"/>
<path d="M6.66683 7.99998H10.0002C10.2212 7.99998 10.4331 7.91218 10.5894 7.7559C10.7457 7.59962 10.8335 7.38766 10.8335 7.16665C10.8335 6.94563 10.7457 6.73367 10.5894 6.57739C10.4331 6.42111 10.2212 6.33331 10.0002 6.33331H6.66683C6.44582 6.33331 6.23385 6.42111 6.07757 6.57739C5.92129 6.73367 5.8335 6.94563 5.8335 7.16665C5.8335 7.38766 5.92129 7.59962 6.07757 7.7559C6.23385 7.91218 6.44582 7.99998 6.66683 7.99998ZM13.3335 9.66665H6.66683C6.44582 9.66665 6.23385 9.75444 6.07757 9.91072C5.92129 10.067 5.8335 10.279 5.8335 10.5C5.8335 10.721 5.92129 10.933 6.07757 11.0892C6.23385 11.2455 6.44582 11.3333 6.66683 11.3333H13.3335C13.5545 11.3333 13.7665 11.2455 13.9228 11.0892C14.079 10.933 14.1668 10.721 14.1668 10.5C14.1668 10.279 14.079 10.067 13.9228 9.91072C13.7665 9.75444 13.5545 9.66665 13.3335 9.66665ZM13.3335 13H6.66683C6.44582 13 6.23385 13.0878 6.07757 13.2441C5.92129 13.4003 5.8335 13.6123 5.8335 13.8333C5.8335 14.0543 5.92129 14.2663 6.07757 14.4226C6.23385 14.5788 6.44582 14.6666 6.66683 14.6666H13.3335C13.5545 14.6666 13.7665 14.5788 13.9228 14.4226C14.079 14.2663 14.1668 14.0543 14.1668 13.8333C14.1668 13.6123 14.079 13.4003 13.9228 13.2441C13.7665 13.0878 13.5545 13 13.3335 13Z" fill="#DF1C26"/>
</g>
<defs>
<clipPath id="clip0_2_5916">
<rect width="20" height="20" fill="white" transform="translate(0 0.5)"/>
</clipPath>
</defs>
</svg>
