<svg width="25" height="24" viewBox="0 0 25 24" fill="none" xmlns="http://www.w3.org/2000/svg">
<g clip-path="url(#clip0_2093_727)">
<path d="M12.875 8C12.0839 8 11.3105 8.2346 10.6527 8.67412C9.99493 9.11365 9.48223 9.73836 9.17948 10.4693C8.87673 11.2002 8.79752 12.0044 8.95186 12.7804C9.1062 13.5563 9.48716 14.269 10.0466 14.8284C10.606 15.3878 11.3187 15.7688 12.0946 15.9231C12.8706 16.0775 13.6748 15.9983 14.4057 15.6955C15.1366 15.3928 15.7614 14.8801 16.2009 14.2223C16.6404 13.5645 16.875 12.7911 16.875 12C16.875 10.9391 16.4536 9.92172 15.7034 9.17157C14.9533 8.42143 13.9359 8 12.875 8ZM12.875 14C12.4794 14 12.0928 13.8827 11.7639 13.6629C11.435 13.4432 11.1786 13.1308 11.0272 12.7654C10.8759 12.3999 10.8363 11.9978 10.9134 11.6098C10.9906 11.2219 11.1811 10.8655 11.4608 10.5858C11.7405 10.3061 12.0969 10.1156 12.4848 10.0384C12.8728 9.96126 13.2749 10.0009 13.6404 10.1522C14.0058 10.3036 14.3182 10.56 14.5379 10.8889C14.7577 11.2178 14.875 11.6044 14.875 12C14.875 12.5304 14.6643 13.0391 14.2892 13.4142C13.9141 13.7893 13.4054 14 12.875 14Z" fill="#777777"/>
<path d="M22.1688 13.9L21.7248 13.644C21.9247 12.5564 21.9247 11.4416 21.7248 10.354L22.1688 10.098C22.5102 9.90102 22.8095 9.63871 23.0496 9.32606C23.2897 9.01341 23.4658 8.65654 23.5679 8.27582C23.6701 7.8951 23.6962 7.49799 23.6449 7.10716C23.5936 6.71633 23.4658 6.33944 23.2688 5.998C23.0718 5.65656 22.8095 5.35727 22.4969 5.1172C22.1842 4.87714 21.8273 4.70101 21.4466 4.59886C21.0659 4.49672 20.6688 4.47056 20.278 4.52189C19.8871 4.57321 19.5102 4.70102 19.1688 4.898L18.7238 5.155C17.8833 4.43692 16.9175 3.88025 15.8748 3.513V3C15.8748 2.20435 15.5587 1.44129 14.9961 0.87868C14.4335 0.31607 13.6704 0 12.8748 0C12.0791 0 11.3161 0.31607 10.7535 0.87868C10.1909 1.44129 9.8748 2.20435 9.8748 3V3.513C8.83219 3.88157 7.86665 4.4396 7.0268 5.159L6.5798 4.9C5.89024 4.50218 5.07088 4.39457 4.30198 4.60086C3.53308 4.80715 2.87762 5.31044 2.4798 6C2.08197 6.68956 1.97437 7.50892 2.18066 8.27782C2.38695 9.04672 2.89024 9.70218 3.5798 10.1L4.0238 10.356C3.82391 11.4436 3.82391 12.5584 4.0238 13.646L3.5798 13.902C2.89024 14.2998 2.38695 14.9553 2.18066 15.7242C1.97437 16.4931 2.08197 17.3124 2.4798 18.002C2.87762 18.6916 3.53308 19.1948 4.30198 19.4011C5.07088 19.6074 5.89024 19.4998 6.5798 19.102L7.0248 18.845C7.86556 19.5632 8.83178 20.1199 9.8748 20.487V21C9.8748 21.7956 10.1909 22.5587 10.7535 23.1213C11.3161 23.6839 12.0791 24 12.8748 24C13.6704 24 14.4335 23.6839 14.9961 23.1213C15.5587 22.5587 15.8748 21.7956 15.8748 21V20.487C16.9174 20.1184 17.883 19.5604 18.7228 18.841L19.1698 19.099C19.8594 19.4968 20.6787 19.6044 21.4476 19.3981C22.2165 19.1918 22.872 18.6886 23.2698 17.999C23.6676 17.3094 23.7752 16.4901 23.5689 15.7212C23.3626 14.9523 22.8594 14.2968 22.1698 13.899L22.1688 13.9ZM19.6208 10.124C19.9594 11.3511 19.9594 12.6469 19.6208 13.874C19.5617 14.0876 19.5752 14.3147 19.6591 14.5198C19.7431 14.7249 19.8928 14.8963 20.0848 15.007L21.1688 15.633C21.3986 15.7656 21.5663 15.9841 21.6351 16.2403C21.7038 16.4966 21.6679 16.7697 21.5353 16.9995C21.4027 17.2293 21.1842 17.397 20.928 17.4658C20.6717 17.5345 20.3986 17.4986 20.1688 17.366L19.0828 16.738C18.8907 16.6267 18.667 16.5826 18.447 16.6124C18.2271 16.6423 18.0233 16.7445 17.8678 16.903C16.9777 17.8117 15.8564 18.46 14.6248 18.778C14.4098 18.8333 14.2194 18.9585 14.0834 19.1339C13.9474 19.3094 13.8737 19.525 13.8738 19.747V21C13.8738 21.2652 13.7684 21.5196 13.5809 21.7071C13.3934 21.8946 13.139 22 12.8738 22C12.6086 22 12.3542 21.8946 12.1667 21.7071C11.9792 21.5196 11.8738 21.2652 11.8738 21V19.748C11.8739 19.526 11.8002 19.3104 11.6642 19.1349C11.5282 18.9595 11.3378 18.8343 11.1228 18.779C9.89115 18.4597 8.77013 17.81 7.8808 16.9C7.72532 16.7415 7.52154 16.6393 7.30155 16.6094C7.08157 16.5796 6.8579 16.6237 6.6658 16.735L5.5818 17.362C5.46803 17.4287 5.34219 17.4722 5.21152 17.4901C5.08086 17.508 4.94795 17.4998 4.82045 17.4661C4.69295 17.4324 4.57338 17.3738 4.46862 17.2937C4.36386 17.2136 4.27598 17.1135 4.21004 16.9993C4.14409 16.8851 4.10139 16.759 4.0844 16.6282C4.0674 16.4974 4.07644 16.3646 4.11099 16.2373C4.14554 16.11 4.20493 15.9909 4.28573 15.8866C4.36653 15.7824 4.46715 15.6952 4.5818 15.63L5.6658 15.004C5.85775 14.8933 6.00747 14.7219 6.09146 14.5168C6.17544 14.3117 6.18893 14.0846 6.1298 13.871C5.79116 12.6439 5.79116 11.3481 6.1298 10.121C6.18786 9.90788 6.17373 9.68153 6.08961 9.47729C6.00549 9.27305 5.85611 9.10241 5.6648 8.992L4.5808 8.366C4.35099 8.23339 4.18327 8.01492 4.11454 7.75865C4.04581 7.50239 4.08169 7.22931 4.2143 6.9995C4.34691 6.76969 4.56538 6.60197 4.82164 6.53324C5.07791 6.46451 5.35099 6.50039 5.5808 6.633L6.6668 7.261C6.85838 7.37251 7.08158 7.41721 7.30133 7.38807C7.52107 7.35893 7.72491 7.25759 7.8808 7.1C8.77089 6.19134 9.89222 5.54302 11.1238 5.225C11.3394 5.16956 11.5304 5.04375 11.6664 4.8675C11.8025 4.69125 11.8758 4.47464 11.8748 4.252V3C11.8748 2.73478 11.9802 2.48043 12.1677 2.29289C12.3552 2.10536 12.6096 2 12.8748 2C13.14 2 13.3944 2.10536 13.5819 2.29289C13.7694 2.48043 13.8748 2.73478 13.8748 3V4.252C13.8747 4.47396 13.9484 4.68964 14.0844 4.86508C14.2204 5.04052 14.4108 5.16573 14.6258 5.221C15.8578 5.54015 16.9792 6.18988 17.8688 7.1C18.0243 7.25847 18.2281 7.36069 18.448 7.39057C18.668 7.42044 18.8917 7.37626 19.0838 7.265L20.1678 6.638C20.2816 6.5713 20.4074 6.52777 20.5381 6.5099C20.6687 6.49204 20.8016 6.50019 20.9291 6.5339C21.0566 6.56761 21.1762 6.6262 21.281 6.70631C21.3857 6.78642 21.4736 6.88646 21.5396 7.00067C21.6055 7.11488 21.6482 7.24101 21.6652 7.37179C21.6822 7.50257 21.6732 7.63542 21.6386 7.76269C21.6041 7.88997 21.5447 8.00915 21.4639 8.11337C21.3831 8.2176 21.2824 8.30482 21.1678 8.37L20.0838 8.996C19.8928 9.10671 19.7439 9.27748 19.6601 9.48169C19.5764 9.68591 19.5626 9.9121 19.6208 10.125V10.124Z" fill="#777777"/>
</g>
<defs>
<clipPath id="clip0_2093_727">
<rect width="24" height="24" fill="white" transform="translate(0.875)"/>
</clipPath>
</defs>
</svg>
