<svg width="22" height="24" viewBox="0 0 22 24" fill="none" xmlns="http://www.w3.org/2000/svg">
<path d="M0.481821 18C1.30898 19.4356 3.14334 19.9288 4.57893 19.1017C4.57991 19.1011 4.58085 19.1005 4.58184 19.1L5.02682 18.843C5.86682 19.5616 6.83235 20.119 7.8748 20.487V21C7.8748 22.6568 9.21796 24 10.8748 24C12.5316 24 13.8748 22.6568 13.8748 21V20.487C14.9174 20.1184 15.883 19.5604 16.7228 18.841L17.1698 19.099C18.6057 19.9274 20.4414 19.4349 21.2698 17.999C22.0982 16.563 21.6058 14.7274 20.1698 13.899L19.7258 13.643C19.9257 12.5554 19.9257 11.4405 19.7258 10.353L20.1698 10.097C21.6057 9.26855 22.0982 7.43292 21.2698 5.99695C20.4414 4.56103 18.6058 4.06852 17.1698 4.89694L16.7248 5.15395C15.884 4.43616 14.9178 3.87984 13.8748 3.513V3C13.8748 1.34316 12.5316 0 10.8748 0C9.21796 0 7.8748 1.34316 7.8748 3V3.513C6.83221 3.88158 5.86663 4.43958 5.02682 5.15902L4.57982 4.90003C3.14385 4.07156 1.30823 4.56408 0.479805 6C-0.348617 7.43592 0.143852 9.27159 1.57982 10.1L2.02382 10.356C1.82395 11.4435 1.82395 12.5584 2.02382 13.646L1.57982 13.902C0.147836 14.7326 -0.343039 16.5647 0.481821 18ZM10.8748 8.00002C13.0839 8.00002 14.8748 9.79088 14.8748 12C14.8748 14.2091 13.0839 16 10.8748 16C8.66568 16 6.87482 14.2091 6.87482 12C6.87482 9.79088 8.66568 8.00002 10.8748 8.00002Z" fill="#DF1C26"/>
</svg>
